<svg width="596" height="622" viewBox="0 0 596 622" fill="none" xmlns="http://www.w3.org/2000/svg">
<g clip-path="url(#clip0_9916_1781)">
<rect width="596" height="622" fill="#333333"/>
<g clip-path="url(#clip1_9916_1781)">
<rect width="1886.12" height="586.792" transform="translate(-169.91 -6.90625)" fill="#333333"/>
<line opacity="0.2" x1="-169.91" y1="34.5078" x2="1716.21" y2="34.5078" stroke="#F9D2CB"/>
<line opacity="0.2" x1="-169.91" y1="76.4219" x2="1716.21" y2="76.4219" stroke="#F9D2CB"/>
<line opacity="0.2" x1="-169.91" y1="118.334" x2="1716.21" y2="118.334" stroke="#F9D2CB"/>
<line opacity="0.2" x1="-169.91" y1="160.248" x2="1716.21" y2="160.248" stroke="#F9D2CB"/>
<line opacity="0.2" x1="-169.91" y1="202.162" x2="1716.21" y2="202.162" stroke="#F9D2CB"/>
<line opacity="0.2" x1="-169.91" y1="244.076" x2="1716.21" y2="244.076" stroke="#F9D2CB"/>
<line opacity="0.2" x1="-169.91" y1="285.99" x2="1716.21" y2="285.99" stroke="#F9D2CB"/>
<line opacity="0.2" x1="-169.91" y1="327.904" x2="1716.21" y2="327.904" stroke="#F9D2CB"/>
<line opacity="0.2" x1="-169.91" y1="369.816" x2="1716.21" y2="369.816" stroke="#F9D2CB"/>
<line opacity="0.2" x1="-169.91" y1="411.73" x2="1716.21" y2="411.73" stroke="#F9D2CB"/>
<line opacity="0.2" x1="-169.91" y1="453.645" x2="1716.21" y2="453.645" stroke="#F9D2CB"/>
<line opacity="0.2" x1="-169.91" y1="495.559" x2="1716.21" y2="495.559" stroke="#F9D2CB"/>
<line opacity="0.2" x1="-169.91" y1="537.473" x2="1716.21" y2="537.473" stroke="#F9D2CB"/>
<line opacity="0.2" x1="-169.91" y1="579.387" x2="1716.21" y2="579.387" stroke="#F9D2CB"/>
<circle cx="399" cy="35" r="6" fill="#F6F5FF"/>
<circle cx="243" cy="495" r="6" fill="#B6B4FF"/>
<rect x="548" y="113" width="12" height="12" fill="#78F8C2"/>
<rect x="428" y="490" width="12" height="12" fill="#78F8C2"/>
<circle cx="124" cy="579" r="6" fill="#78F8C2"/>
<path d="M22 161L34 154.072L34 167.928L22 161Z" fill="#F6F5FF"/>
<path d="M551 538L563 531.072L563 544.928L551 538Z" fill="#B6B4FF"/>
<path d="M471.313 578.508L483.313 571.58L483.313 585.436L471.313 578.508Z" fill="#DCDBFF"/>
<rect x="60" y="71" width="12" height="12" fill="#B6B4FF"/>
</g>
</g>
<defs>
<clipPath id="clip0_9916_1781">
<rect width="596" height="622" fill="white"/>
</clipPath>
<clipPath id="clip1_9916_1781">
<rect width="936" height="693" fill="white" transform="translate(-169 -7)"/>
</clipPath>
</defs>
</svg>
