<svg width="81" height="81" viewBox="0 0 81 81" fill="none" xmlns="http://www.w3.org/2000/svg">
<g id="60b6a4471d9740d26799d451_aicpasvg 1">
<path id="Vector" d="M40.4566 79.5865C61.9326 79.5865 79.3424 62.0546 79.3424 40.428C79.3424 18.8014 61.9326 1.26953 40.4566 1.26953C18.9806 1.26953 1.5708 18.8014 1.5708 40.428C1.5708 62.0546 18.9806 79.5865 40.4566 79.5865Z" fill="url(#paint0_linear_741_124654)"/>
<path id="Vector_2" d="M40.4564 70.8125C57.1203 70.8125 70.6291 57.209 70.6291 40.4282C70.6291 23.6475 57.1203 10.0439 40.4564 10.0439C23.7925 10.0439 10.2837 23.6475 10.2837 40.4282C10.2837 57.209 23.7925 70.8125 40.4564 70.8125Z" fill="url(#paint1_linear_741_124654)"/>
<g id="Group">
<path id="Vector_3" d="M16.6358 66.2802C16.7472 66.168 16.7917 66.0558 16.7695 65.9211C16.7472 65.7865 16.6803 65.5845 16.5243 65.3377C16.3683 65.0908 16.3015 64.8889 16.2569 64.7318C16.2124 64.5074 16.2792 64.3279 16.4129 64.1708C16.5466 64.0137 16.7249 63.9688 16.9477 63.9913C17.1706 64.0137 17.3711 64.1259 17.5494 64.3054C17.6831 64.4401 17.7722 64.5747 17.8168 64.7094C17.8614 64.8664 17.8837 65.0011 17.8614 65.1582C17.8391 65.2928 17.7722 65.4274 17.6608 65.5396L17.5048 65.3826C17.6385 65.2479 17.6831 65.0908 17.6831 64.9338C17.6608 64.7542 17.594 64.5971 17.438 64.4625C17.282 64.3279 17.1483 64.2381 16.9923 64.2157C16.8363 64.1932 16.7026 64.2381 16.6135 64.3503C16.5243 64.4401 16.4798 64.5747 16.502 64.7094C16.5243 64.844 16.5912 65.0235 16.7249 65.2479C16.8586 65.4723 16.9477 65.6518 16.97 65.7865C17.0146 65.9211 17.0146 66.0558 16.9923 66.168C16.97 66.2802 16.9032 66.3924 16.814 66.4821C16.658 66.6392 16.4798 66.7065 16.2792 66.6841C16.0787 66.6617 15.8558 66.5495 15.6553 66.3475C15.5215 66.2129 15.4101 66.0782 15.3433 65.8987C15.2764 65.7416 15.2541 65.5845 15.2764 65.4499C15.2987 65.2928 15.3656 65.1806 15.477 65.0684L15.633 65.2255C15.4993 65.3601 15.4547 65.5172 15.477 65.6967C15.4993 65.8763 15.6107 66.0558 15.7667 66.2129C15.9227 66.3699 16.0787 66.4373 16.2346 66.4597C16.3906 66.4373 16.5243 66.3924 16.6358 66.2802Z" fill="white"/>
<path id="Vector_4" d="M19.0876 67.6941C18.9317 67.8961 18.7534 68.0307 18.5751 68.1205C18.3968 68.2103 18.1963 68.2327 18.018 68.2103C17.8397 68.1878 17.6615 68.0981 17.5055 67.9634C17.2603 67.7615 17.1489 67.5146 17.1489 67.2004C17.1489 66.8863 17.2603 66.5945 17.5055 66.3028L17.6837 66.0784C17.8397 65.8989 18.018 65.7418 18.1963 65.6521C18.3746 65.5623 18.5751 65.5399 18.7534 65.5623C18.9317 65.5847 19.1099 65.6745 19.2659 65.8091C19.4219 65.9438 19.5333 66.1009 19.6002 66.2804C19.667 66.4599 19.667 66.6394 19.6002 66.8414C19.5556 67.0434 19.4442 67.2229 19.2882 67.4248L19.0876 67.6941ZM19.1099 67.3126C19.3105 67.0658 19.4219 66.819 19.4219 66.5721C19.4219 66.3253 19.3328 66.1233 19.1322 65.9662C18.9317 65.8091 18.7311 65.7418 18.486 65.7867C18.2631 65.8316 18.0403 65.9887 17.8174 66.2355L17.6392 66.4599C17.4386 66.7068 17.3272 66.9536 17.3272 67.2004C17.3272 67.4473 17.4163 67.6492 17.6169 67.8063C17.8174 67.9634 18.018 68.0307 18.2631 67.9859C18.5083 67.941 18.7088 67.7839 18.9317 67.537L19.1099 67.3126Z" fill="white"/>
<path id="Vector_5" d="M20.9145 69.4893C20.714 69.7137 20.5134 69.8259 20.2906 69.8484C20.0677 69.8708 19.8226 69.8035 19.5998 69.624C19.4438 69.5118 19.3324 69.3547 19.2655 69.1976C19.1987 69.0181 19.1764 68.8386 19.2209 68.6366C19.2655 68.4346 19.3546 68.2327 19.4884 68.0531L19.6889 67.7614C19.8226 67.5595 19.9786 67.4248 20.1569 67.3126C20.3351 67.2004 20.5134 67.1555 20.6917 67.178C20.87 67.178 21.0482 67.2453 21.2265 67.3799C21.4716 67.5595 21.6053 67.739 21.6499 67.9634C21.6945 68.1878 21.6499 68.4122 21.5162 68.659L21.3379 68.5244C21.5608 68.1205 21.4939 67.7839 21.1374 67.5146C20.9368 67.3799 20.7363 67.3351 20.5134 67.4024C20.2906 67.4697 20.09 67.6268 19.8895 67.8961L19.6889 68.1653C19.5106 68.4122 19.4215 68.659 19.4215 68.9059C19.4215 69.1527 19.5329 69.3322 19.7335 69.4669C19.934 69.6015 20.1123 69.6689 20.2683 69.6464C20.4243 69.624 20.6026 69.5342 20.7585 69.3547L20.9145 69.4893Z" fill="white"/>
<path id="Vector_6" d="M21.8735 71.1046L22.8095 69.5337L22.5198 69.3542L22.6089 69.1971L22.8986 69.3766L23.0323 69.1747C23.1437 68.9952 23.2552 68.883 23.4111 68.8381C23.5671 68.7932 23.7008 68.8156 23.8791 68.9278C23.946 68.9727 24.0128 69.0176 24.0574 69.0849L23.946 69.242C23.9014 69.1971 23.8568 69.1522 23.79 69.1074C23.6785 69.04 23.5894 69.0176 23.478 69.0625C23.3666 69.1074 23.2997 69.1747 23.2329 69.2869L23.0992 69.5113L23.5003 69.7581L23.4111 69.9152L23.01 69.6684L22.0741 71.2392L21.8735 71.1046Z" fill="white"/>
<path id="Vector_7" d="M23.2764 70.7458C23.3655 70.5663 23.477 70.4317 23.633 70.3419C23.7667 70.2297 23.9226 70.1848 24.0786 70.1848C24.2346 70.1848 24.3906 70.2073 24.5466 70.297C24.7917 70.4317 24.9254 70.6112 24.9923 70.858C25.0591 71.1049 25.0146 71.3517 24.8586 71.6434L24.8363 71.6883C24.7472 71.8678 24.6357 72.0025 24.4797 72.0922C24.346 72.2044 24.1901 72.2493 24.0341 72.2493C23.8781 72.2493 23.7221 72.2269 23.5661 72.1371C23.3433 72.0025 23.1873 71.823 23.1204 71.5761C23.0536 71.3293 23.0981 71.0824 23.2541 70.7907L23.2764 70.7458ZM23.4324 70.9029C23.321 71.1049 23.2764 71.3293 23.321 71.5088C23.3655 71.7108 23.4547 71.8454 23.633 71.9352C23.8112 72.0249 23.9895 72.0474 24.1678 71.9576C24.346 71.8678 24.502 71.7332 24.6135 71.5088L24.6357 71.4639C24.7026 71.3293 24.7472 71.1946 24.7694 71.06C24.7694 70.9253 24.7472 70.7907 24.7026 70.6785C24.6357 70.5663 24.5689 70.4765 24.4352 70.4092C24.2569 70.3195 24.0786 70.297 23.9004 70.3868C23.7221 70.4541 23.5661 70.6112 23.4547 70.8356L23.4324 70.9029Z" fill="white"/>
<path id="Vector_8" d="M26.4632 71.4868C26.4186 71.4644 26.374 71.4419 26.3295 71.4195C26.1958 71.3522 26.0843 71.3522 25.9729 71.3746C25.8615 71.397 25.7501 71.4868 25.6387 71.599L25.037 72.8557L24.8364 72.7659L25.7055 70.9482L25.9061 71.038L25.7724 71.3297C25.9729 71.1726 26.1958 71.1278 26.4409 71.24C26.5077 71.2624 26.53 71.2849 26.5523 71.3297L26.4632 71.4868Z" fill="white"/>
<path id="Vector_9" d="M28.6913 73.663C28.7359 73.5284 28.7359 73.3938 28.6691 73.2816C28.6022 73.1694 28.4462 73.0123 28.2234 72.8327C28.0005 72.6532 27.8223 72.4961 27.7331 72.3615C27.5994 72.182 27.5771 71.98 27.6663 71.7781C27.7331 71.5761 27.8891 71.4639 28.0897 71.3966C28.2902 71.3292 28.5131 71.3517 28.7582 71.4414C28.9365 71.5088 29.0702 71.5985 29.1593 71.7107C29.2707 71.8229 29.3376 71.9576 29.3599 72.0922C29.3821 72.2269 29.3821 72.3839 29.3153 72.5186L29.0925 72.4288C29.1593 72.2493 29.1593 72.0922 29.0702 71.9351C29.0033 71.778 28.8473 71.6658 28.6468 71.5985C28.4462 71.5312 28.2902 71.5088 28.1342 71.5536C27.9782 71.5985 27.8891 71.6883 27.8445 71.8229C27.8 71.9576 27.8 72.0698 27.8891 72.2044C27.9782 72.3391 28.0897 72.4513 28.2902 72.6083C28.4908 72.7654 28.6468 72.8776 28.7359 72.9898C28.825 73.102 28.8919 73.2142 28.9142 73.3264C28.9365 73.4386 28.9365 73.5733 28.8696 73.6855C28.8028 73.8875 28.6468 74.0221 28.4462 74.067C28.2457 74.1343 28.0005 74.1119 27.7554 73.9997C27.5771 73.9323 27.4211 73.8426 27.3097 73.7079C27.176 73.5957 27.1092 73.4611 27.0646 73.304C27.0423 73.1694 27.0423 73.0123 27.1092 72.8552L27.332 72.945C27.2652 73.1245 27.2874 73.2816 27.3766 73.4386C27.4657 73.5957 27.6217 73.7079 27.8445 73.7977C28.0451 73.865 28.2234 73.8874 28.3571 73.8426C28.5131 73.8874 28.6245 73.7977 28.6913 73.663Z" fill="white"/>
<path id="Vector_10" d="M29.8948 74.8072C29.7388 74.7623 29.6051 74.6726 29.4937 74.5379C29.3823 74.4033 29.3154 74.2687 29.2931 74.1116C29.2708 73.9545 29.2708 73.775 29.3377 73.5954L29.36 73.5281C29.4268 73.3486 29.4937 73.1915 29.6274 73.0569C29.7388 72.9222 29.8725 72.8549 30.0285 72.81C30.1845 72.7651 30.3405 72.7651 30.4742 72.81C30.697 72.8773 30.8753 73.012 30.9421 73.214C31.0313 73.4159 31.0313 73.6628 30.9421 73.932L30.8976 74.0442L29.5382 73.6179L29.516 73.6628C29.4491 73.8872 29.4491 74.0891 29.5382 74.2687C29.6274 74.4482 29.7611 74.5828 29.9394 74.6277C30.0508 74.6726 30.1622 74.6726 30.2513 74.6501C30.3405 74.6277 30.4519 74.5828 30.541 74.5155L30.6524 74.6501C30.4519 74.8521 30.2068 74.897 29.8948 74.8072ZM30.4296 72.9671C30.2736 72.9222 30.1176 72.9447 29.9616 73.012C29.8056 73.1018 29.6942 73.2364 29.6051 73.4159L30.7639 73.775V73.7525C30.8084 73.573 30.8084 73.3935 30.7416 73.2588C30.697 73.1242 30.5856 73.012 30.4296 72.9671Z" fill="white"/>
<path id="Vector_11" d="M32.4798 73.5734C32.4352 73.5509 32.3906 73.5285 32.3461 73.5285C32.2124 73.4836 32.0786 73.506 31.9672 73.5509C31.8558 73.5958 31.7667 73.6856 31.6775 73.8202L31.321 75.1666L31.0981 75.1218L31.6107 73.1694L31.8112 73.2143L31.7444 73.5285C31.9227 73.3265 32.1232 73.2592 32.3906 73.3265C32.4575 73.349 32.502 73.3714 32.5243 73.3938L32.4798 73.5734Z" fill="white"/>
<path id="Vector_12" d="M33.147 75.2786L34.0829 73.7302L34.3058 73.7751L33.1693 75.5927L32.991 75.5479L32.6567 73.416L32.8796 73.4609L33.147 75.2786Z" fill="white"/>
<path id="Vector_13" d="M34.5749 75.8618L34.3521 75.8169L34.6863 73.8197L34.9092 73.8646L34.5749 75.8618ZM34.7532 73.2587C34.7532 73.2138 34.7754 73.1914 34.82 73.1689C34.8423 73.1465 34.8869 73.1465 34.9314 73.1465C34.976 73.1465 35.0206 73.1689 35.0429 73.2138C35.0651 73.2363 35.0651 73.2811 35.0651 73.326C35.0651 73.3709 35.0429 73.3933 34.9983 73.4158C34.9537 73.4382 34.9314 73.4382 34.8869 73.4382C34.8423 73.4382 34.7977 73.4158 34.7754 73.3709C34.7532 73.3484 34.7532 73.3036 34.7532 73.2587Z" fill="white"/>
<path id="Vector_14" d="M36.0014 75.9295C36.1574 75.952 36.2911 75.9295 36.4025 75.8398C36.514 75.75 36.5808 75.6602 36.6031 75.5256L36.8037 75.548C36.7814 75.6602 36.7368 75.7724 36.6477 75.8622C36.5585 75.952 36.4694 76.0193 36.3357 76.0642C36.202 76.109 36.0906 76.109 35.9569 76.109C35.6894 76.0866 35.5112 75.952 35.3775 75.75C35.2438 75.548 35.1992 75.3012 35.2438 74.987V74.9197C35.266 74.7177 35.3329 74.5607 35.422 74.4036C35.5112 74.2465 35.6226 74.1567 35.7563 74.0894C35.89 74.0221 36.046 73.9996 36.2243 74.0221C36.4471 74.0445 36.6031 74.1343 36.7368 74.2914C36.8705 74.4485 36.9151 74.628 36.8928 74.8299L36.6922 74.8075C36.6922 74.6504 36.6699 74.5158 36.5808 74.4036C36.4917 74.2914 36.358 74.224 36.202 74.2016C36.0014 74.1792 35.8454 74.2241 35.7117 74.3587C35.578 74.4933 35.5112 74.6953 35.4666 74.9421V75.0095C35.4443 75.2563 35.4666 75.4807 35.5557 75.6378C35.6449 75.7949 35.8009 75.9071 36.0014 75.9295Z" fill="white"/>
<path id="Vector_15" d="M38.0516 76.3106C37.8733 76.2881 37.7396 76.2433 37.6059 76.1535C37.4722 76.0637 37.383 75.9291 37.3162 75.772C37.2493 75.6149 37.2271 75.4354 37.2271 75.2559V75.1661C37.2493 74.9641 37.2939 74.8071 37.383 74.65C37.4722 74.4929 37.5836 74.3807 37.7173 74.3134C37.851 74.2236 38.007 74.2012 38.163 74.2012C38.4081 74.2236 38.5864 74.3134 38.7201 74.4929C38.8538 74.6724 38.8984 74.8968 38.8761 75.1885V75.3232L37.4499 75.2334V75.2783C37.4276 75.5027 37.4945 75.7047 37.6059 75.8618C37.7173 76.0188 37.8733 76.1086 38.0738 76.131C38.1853 76.131 38.2967 76.131 38.3858 76.0862C38.475 76.0413 38.5641 75.9964 38.6532 75.8842L38.7869 75.9964C38.6087 76.2432 38.3635 76.333 38.0516 76.3106ZM38.1407 74.4031C37.9847 74.3807 37.8287 74.448 37.7173 74.5602C37.6059 74.6724 37.5167 74.8295 37.4722 75.0315L38.6755 75.1212V75.0988C38.6755 74.8968 38.6309 74.7397 38.5418 74.6051C38.4304 74.4929 38.2967 74.4256 38.1407 74.4031Z" fill="white"/>
<path id="Vector_16" d="M42.3284 75.1212C42.3284 75.368 42.3061 75.5924 42.217 75.772C42.1279 75.9515 42.0164 76.1086 41.8605 76.2208C41.7045 76.333 41.5262 76.3778 41.3033 76.3778C40.9914 76.3778 40.724 76.2881 40.5234 76.0637C40.3228 75.8393 40.2114 75.5476 40.2114 75.1436V74.8743C40.2114 74.6275 40.2337 74.4031 40.3228 74.2236C40.412 74.0216 40.5234 73.887 40.6794 73.7748C40.8354 73.6626 41.0137 73.6177 41.2365 73.6177C41.4371 73.6177 41.6376 73.6626 41.7936 73.7523C41.9496 73.8421 42.0833 73.9992 42.1724 74.1787C42.2616 74.3582 42.3061 74.5826 42.3284 74.807V75.1212ZM42.0833 74.8295C42.0833 74.4928 41.9942 74.246 41.8382 74.0665C41.6822 73.887 41.4816 73.7972 41.2365 73.7972C40.9914 73.7972 40.7908 73.9094 40.6348 74.0889C40.5011 74.2684 40.412 74.5377 40.4343 74.8743V75.1661C40.4343 75.4802 40.5234 75.7495 40.6794 75.929C40.8354 76.1086 41.0359 76.1983 41.2811 76.1983C41.5485 76.1983 41.749 76.0861 41.8827 75.9066C42.0164 75.7271 42.0833 75.4578 42.0833 75.1212V74.8295Z" fill="white"/>
<path id="Vector_17" d="M43.7548 74.3811C43.7102 74.3811 43.6656 74.3811 43.5988 74.3811C43.4651 74.3811 43.3537 74.4485 43.2645 74.5158C43.1754 74.6055 43.1085 74.7178 43.0863 74.8748L43.1977 76.2661L42.9748 76.2886L42.8188 74.2689L43.0417 74.2465L43.064 74.5607C43.1531 74.3138 43.3314 74.1792 43.5988 74.1567C43.6656 74.1567 43.7102 74.1567 43.7548 74.1792V74.3811Z" fill="white"/>
<path id="Vector_18" d="M44.0683 75.144C44.0238 74.8298 44.0683 74.5829 44.1798 74.381C44.2912 74.179 44.4695 74.0668 44.7146 74.0444C44.982 73.9995 45.2048 74.0893 45.3831 74.2912L45.3608 73.9995L45.5614 73.9771L45.8065 75.9294C45.8288 76.1762 45.7842 76.4006 45.6728 76.5801C45.5391 76.7597 45.3608 76.8494 45.1157 76.8719C44.982 76.8943 44.8483 76.8719 44.7146 76.827C44.5809 76.7821 44.4695 76.7148 44.3803 76.625L44.4917 76.4679C44.67 76.6475 44.8706 76.7148 45.0934 76.6923C45.2717 76.6699 45.4054 76.6026 45.4945 76.4679C45.5837 76.3557 45.6282 76.1762 45.606 75.9967L45.5837 75.7498C45.4722 75.9742 45.2717 76.0864 45.0043 76.1313C44.7814 76.1538 44.5809 76.0865 44.4249 75.9294C44.2689 75.7723 44.1575 75.5254 44.1129 75.2113L44.0683 75.144ZM44.3135 75.1664C44.3358 75.4132 44.4249 75.6152 44.5363 75.7498C44.6477 75.8845 44.8037 75.9294 45.0043 75.9069C45.2717 75.862 45.45 75.7274 45.5391 75.4581L45.4277 74.5381C45.3608 74.4259 45.2717 74.3361 45.1603 74.2688C45.0489 74.2015 44.9374 74.2015 44.8037 74.2239C44.6255 74.2463 44.4917 74.3361 44.4026 74.4932C44.3135 74.6503 44.2689 74.8747 44.3135 75.1664Z" fill="white"/>
<path id="Vector_19" d="M47.7222 75.6155C47.6776 75.5481 47.6553 75.4584 47.6331 75.3462C47.5662 75.4584 47.4994 75.5481 47.3879 75.6379C47.2765 75.7277 47.1651 75.7725 47.0314 75.795C46.8531 75.8399 46.6748 75.8174 46.5411 75.7277C46.4074 75.6379 46.3183 75.5257 46.296 75.3686C46.2514 75.1667 46.3183 75.0096 46.452 74.8749C46.5857 74.7403 46.8085 74.6281 47.076 74.5832L47.4771 74.5159L47.4325 74.2915C47.4102 74.1568 47.3434 74.0446 47.2319 73.9773C47.1205 73.91 46.9868 73.8875 46.8308 73.9324C46.6748 73.9549 46.5634 74.0222 46.4743 74.112C46.3851 74.2017 46.3629 74.3139 46.3852 74.4261L46.1623 74.471C46.14 74.3139 46.1846 74.1568 46.296 74.0222C46.4297 73.8876 46.5857 73.7978 46.8085 73.7529C47.0314 73.708 47.2097 73.7305 47.3657 73.8202C47.5216 73.91 47.6108 74.0446 47.6553 74.2466L47.8336 75.1891C47.8782 75.3911 47.9228 75.5257 47.9673 75.6155V75.6379L47.7222 75.6155ZM47.0091 75.593C47.1651 75.5706 47.2765 75.5033 47.3879 75.4135C47.4994 75.3237 47.5439 75.2115 47.5885 75.0769L47.4994 74.6505L47.1205 74.7178C46.8977 74.7627 46.7417 74.83 46.6303 74.9422C46.5189 75.0544 46.4743 75.1667 46.4966 75.3013C46.5189 75.4135 46.5857 75.5033 46.6748 75.5481C46.764 75.593 46.8754 75.6155 47.0091 75.593Z" fill="white"/>
<path id="Vector_20" d="M48.2792 73.4156L48.3683 73.7522C48.4129 73.6175 48.4797 73.5053 48.5689 73.4156C48.658 73.3258 48.7694 73.2585 48.9031 73.236C49.1037 73.1912 49.282 73.1912 49.4157 73.3034C49.5494 73.3931 49.6385 73.5502 49.7054 73.7971L50.0396 75.0762L49.8168 75.121L49.4825 73.8419C49.4379 73.6624 49.3711 73.5502 49.282 73.4829C49.1928 73.4156 49.0591 73.3931 48.9031 73.438C48.7694 73.4829 48.658 73.5502 48.5911 73.6624C48.502 73.7746 48.4574 73.9093 48.4574 74.0663L48.7917 75.4128L48.5689 75.4576L48.0786 73.5053L48.2792 73.4156Z" fill="white"/>
<path id="Vector_21" d="M49.9069 72.3843C49.8846 72.3394 49.9069 72.317 49.9069 72.2721C49.9292 72.2272 49.9514 72.2048 49.996 72.2048C50.0406 72.1824 50.0852 72.2048 50.1074 72.2048C50.1297 72.2048 50.1743 72.2497 50.1743 72.2946C50.1966 72.3394 50.1743 72.3619 50.1743 72.4068C50.152 72.4516 50.1297 72.4741 50.0852 72.4741C50.0406 72.4965 49.996 72.4741 49.9737 72.4741C49.9292 72.4516 49.9069 72.4292 49.9069 72.3843ZM50.8874 74.8079L50.6645 74.8752L50.0852 72.9453L50.308 72.878L50.8874 74.8079Z" fill="white"/>
<path id="Vector_22" d="M51.6219 74.3811L52.8475 73.9547L52.9144 74.1343L51.4213 74.6504L51.3768 74.4933L51.9784 72.5186L50.8642 72.9L50.7974 72.7205L52.179 72.2493L52.2235 72.4064L51.6219 74.3811Z" fill="white"/>
<path id="Vector_23" d="M54.5412 73.4609C54.4966 73.416 54.4521 73.3262 54.3852 73.214C54.3629 73.3487 54.2961 73.4384 54.2069 73.5506C54.1178 73.6404 54.0064 73.7301 53.895 73.775C53.7167 73.8424 53.5607 73.8648 53.4047 73.7975C53.2487 73.7526 53.1373 73.6404 53.0927 73.4833C53.0259 73.3038 53.0259 73.1243 53.1373 72.9672C53.2487 72.8101 53.427 72.653 53.6944 72.5408L54.0732 72.3837L53.9841 72.1818C53.9395 72.0471 53.8504 71.9574 53.739 71.9125C53.6275 71.8676 53.4938 71.89 53.3379 71.9349C53.2041 72.0022 53.0927 72.0696 53.0259 72.1818C52.959 72.294 52.959 72.4062 53.0036 72.4959L52.803 72.5857C52.7362 72.4286 52.7585 72.2715 52.8476 72.1144C52.9367 71.9574 53.0927 71.8227 53.2933 71.733C53.4938 71.6432 53.6944 71.6207 53.8504 71.6881C54.0064 71.7329 54.1401 71.8676 54.2069 72.0471L54.5635 72.9223C54.6303 73.1018 54.7195 73.2365 54.7863 73.3038V73.3262L54.5412 73.4609ZM53.8281 73.5731C53.9618 73.5057 54.0732 73.4384 54.1624 73.3262C54.2515 73.214 54.2961 73.1018 54.2961 72.9672L54.1178 72.5632L53.7612 72.7203C53.5607 72.8101 53.4047 72.9223 53.3379 73.0345C53.271 73.1467 53.2264 73.2813 53.2933 73.416C53.3379 73.5282 53.4047 73.5955 53.5161 73.6179C53.583 73.6404 53.7167 73.6179 53.8281 73.5731Z" fill="white"/>
<path id="Vector_24" d="M54.541 70.678L54.7638 71.1492L55.1427 70.9697L55.2095 71.1268L54.8307 71.3063L55.3878 72.5181C55.4323 72.6303 55.4992 72.6976 55.5438 72.7201C55.5883 72.7425 55.6775 72.7425 55.7666 72.6976C55.8112 72.6752 55.8557 72.6527 55.9226 72.6079L56.0117 72.7649C55.9672 72.8098 55.9003 72.8547 55.8112 72.8996C55.6775 72.9669 55.5661 72.9669 55.4546 72.922C55.3655 72.8771 55.2764 72.7649 55.1872 72.6079L54.6301 71.3961L54.2959 71.5532L54.229 71.3961L54.5633 71.239L54.3404 70.7677L54.541 70.678Z" fill="white"/>
<path id="Vector_25" d="M55.2767 70.2293C55.2544 70.1844 55.2544 70.162 55.2544 70.1171C55.2544 70.0722 55.299 70.0498 55.3435 70.0273C55.3881 70.0049 55.4327 70.0049 55.455 70.0049C55.4995 70.0273 55.5218 70.0498 55.5441 70.0722C55.5664 70.0946 55.5664 70.1395 55.5441 70.1844C55.5218 70.2293 55.4995 70.2517 55.455 70.2742C55.4104 70.2966 55.3658 70.2966 55.3435 70.2966C55.3212 70.2966 55.299 70.2742 55.2767 70.2293ZM56.6806 72.4509L56.48 72.5631L55.5664 70.7679L55.7669 70.6557L56.6806 72.4509Z" fill="white"/>
<path id="Vector_26" d="M56.6584 71.284C56.5693 71.1045 56.5024 70.9474 56.5024 70.7679C56.5024 70.5884 56.5247 70.4313 56.5916 70.2967C56.6584 70.162 56.7921 70.0498 56.9258 69.96C57.1487 69.8254 57.3938 69.803 57.6389 69.8927C57.8841 69.9825 58.0623 70.162 58.2183 70.4313L58.2406 70.4762C58.3297 70.6557 58.3966 70.8128 58.3966 70.9923C58.3966 71.1718 58.3743 71.3289 58.3075 71.4636C58.2406 71.5982 58.1069 71.7104 57.9732 71.8002C57.7504 71.9348 57.5052 71.9572 57.2824 71.8675C57.0373 71.7777 56.859 71.5982 56.703 71.3289L56.6584 71.284ZM56.8813 71.2391C56.9927 71.4411 57.1487 71.5982 57.327 71.6655C57.5052 71.7328 57.6835 71.7328 57.8618 71.6206C58.04 71.5309 58.1292 71.3738 58.1738 71.1718C58.2183 70.9699 58.1515 70.7679 58.04 70.5435L58.0178 70.4986C57.9509 70.364 57.8395 70.2518 57.7281 70.162C57.6166 70.0722 57.5052 70.0274 57.3715 70.0274C57.2378 70.0274 57.1264 70.0498 57.015 70.1171C56.8367 70.2069 56.7476 70.364 56.703 70.5659C56.6807 70.7679 56.7253 70.9699 56.8367 71.1943L56.8813 71.2391Z" fill="white"/>
<path id="Vector_27" d="M58.2854 69.1969L58.4859 69.4886C58.4859 69.354 58.5082 69.2193 58.5751 69.0847C58.6419 68.9725 58.7311 68.8827 58.8425 68.793C59.0208 68.6808 59.199 68.6359 59.3327 68.6808C59.4887 68.7257 59.6224 68.8603 59.7561 69.0623L60.4692 70.1843L60.291 70.2965L59.5779 69.1745C59.4887 69.0174 59.3773 68.9276 59.2659 68.9052C59.1545 68.8827 59.0208 68.9052 58.8871 68.9949C58.7756 69.0623 58.6865 69.1745 58.6419 69.3091C58.5974 69.4438 58.5974 69.5784 58.6419 69.7355L59.3996 70.9024L59.2213 71.0146L58.1294 69.3315L58.2854 69.1969Z" fill="white"/>
<path id="Vector_28" d="M61.6933 68.659C61.6264 68.5692 61.5373 68.5244 61.4259 68.5244C61.3145 68.5244 61.1808 68.5692 61.0025 68.6366C60.8242 68.7039 60.6905 68.7488 60.6014 68.7712C60.4899 68.7936 60.4008 68.7937 60.3117 68.7488C60.2225 68.7263 60.1557 68.659 60.1111 68.5917C60.022 68.457 59.9997 68.3224 60.0443 68.1653C60.0888 68.0082 60.2002 67.8512 60.3562 67.739C60.5345 67.6043 60.7128 67.537 60.8911 67.5594C61.0693 67.5594 61.203 67.6492 61.3145 67.7838L61.1362 67.9185C61.0693 67.8287 60.9802 67.7838 60.8465 67.7614C60.7128 67.7614 60.6014 67.8063 60.4677 67.896C60.3562 67.9858 60.2671 68.0756 60.2448 68.1878C60.2225 68.3 60.2225 68.3897 60.2894 68.4795C60.3562 68.5692 60.4231 68.5917 60.5122 68.5917C60.6014 68.5917 60.7351 68.5468 60.9356 68.4795C61.1139 68.3897 61.2699 68.3448 61.3813 68.3448C61.4927 68.3224 61.5819 68.3448 61.671 68.3673C61.7601 68.3897 61.827 68.457 61.8938 68.5468C61.983 68.6814 62.0275 68.8385 61.9607 68.9956C61.8938 69.1527 61.8047 69.3098 61.6264 69.4444C61.4482 69.5791 61.2476 69.6464 61.0693 69.6464C60.8911 69.6464 60.7351 69.5791 60.6459 69.422L60.8242 69.2873C60.9133 69.3771 61.0025 69.4444 61.1362 69.4444C61.2699 69.4444 61.3813 69.3995 61.515 69.2873C61.6487 69.1976 61.7156 69.0854 61.7601 68.9732C61.7601 68.861 61.7601 68.7488 61.6933 68.659Z" fill="white"/>
<path id="Vector_29" d="M64.6125 67.5593L64.4788 67.694L62.3618 65.2928L62.4955 65.1582L64.6125 67.5593Z" fill="white"/>
<path id="Vector_30" d="M66.5976 63.8562C66.5085 63.7665 66.4193 63.744 66.3079 63.7665C66.1965 63.7889 66.0628 63.8562 65.8622 63.9684C65.6617 64.0806 65.5057 64.1704 65.3497 64.2153C65.06 64.2826 64.8371 64.2377 64.6589 64.0806C64.5029 63.9236 64.436 63.744 64.436 63.5196C64.4583 63.2952 64.5475 63.0708 64.748 62.8689C64.8817 62.7342 65.0154 62.622 65.1714 62.5771C65.3274 62.5323 65.4834 62.4874 65.6171 62.5323C65.7731 62.5547 65.9068 62.622 66.0182 62.7342L65.7062 63.0708C65.5948 62.9811 65.4834 62.9362 65.372 62.9362C65.2605 62.9586 65.1491 63.0035 65.0377 63.1382C64.9263 63.2504 64.8817 63.3626 64.8594 63.4748C64.8594 63.587 64.8817 63.6767 64.9709 63.7665C65.0377 63.8338 65.1268 63.8562 65.2383 63.8338C65.3497 63.8114 65.5057 63.744 65.6839 63.6318C65.8622 63.5196 66.0405 63.4523 66.1742 63.4074C66.3079 63.3626 66.4416 63.3626 66.5753 63.385C66.709 63.4074 66.7982 63.4748 66.9096 63.5645C67.0656 63.7216 67.1547 63.9011 67.1324 64.1255C67.1101 64.3499 66.9987 64.5519 66.7982 64.7763C66.6644 64.9109 66.5085 65.0231 66.3525 65.0905C66.1965 65.1578 66.0182 65.1802 65.8845 65.1802C65.7285 65.1578 65.5948 65.0905 65.4611 64.9783L65.7731 64.6417C65.8845 64.7539 66.0182 64.7987 66.1296 64.7763C66.2633 64.7539 66.397 64.6865 66.5085 64.5295C66.6199 64.4173 66.6867 64.3051 66.6867 64.1928C66.709 64.0133 66.6644 63.9236 66.5976 63.8562Z" fill="white"/>
<path id="Vector_31" d="M68.3129 62.9365C68.1346 63.1609 67.9118 63.2731 67.6667 63.318C67.4215 63.3404 67.1764 63.2507 66.9313 63.0711L66.8867 63.0263C66.7307 62.8916 66.6193 62.757 66.5525 62.5999C66.4856 62.4428 66.441 62.2857 66.4633 62.1062C66.4856 61.9491 66.5525 61.792 66.6639 61.6574C66.8421 61.433 67.0427 61.3432 67.2655 61.3208C67.4884 61.3208 67.7335 61.4106 67.9786 61.6125L68.1123 61.7247L67.2878 62.757C67.4215 62.8467 67.5552 62.8916 67.6889 62.8692C67.8226 62.8467 67.9341 62.7794 68.0232 62.6672C68.1569 62.5101 68.2015 62.3306 68.1346 62.1062L68.4689 62.0613C68.5135 62.196 68.5135 62.3531 68.4912 62.4877C68.4689 62.6223 68.4243 62.8243 68.3129 62.9365ZM66.9313 61.9043C66.8644 61.994 66.8199 62.1062 66.8421 62.2184C66.8644 62.3306 66.9313 62.4428 67.0204 62.555L67.5552 61.8818L67.533 61.8594C67.3992 61.7696 67.2878 61.7247 67.1987 61.7472C67.1096 61.7472 67.0204 61.7921 66.9313 61.9043Z" fill="white"/>
<path id="Vector_32" d="M68.3798 60.1316C68.3352 60.1765 68.2906 60.2213 68.2684 60.2662C68.1569 60.4233 68.1347 60.6028 68.2238 60.7375L69.338 61.5453L69.0706 61.9044L67.4438 60.715L67.689 60.356L67.8672 60.4906C67.8004 60.2887 67.8004 60.1316 67.9118 59.9745C67.9564 59.9296 67.9787 59.8847 68.0232 59.8623L68.3798 60.1316Z" fill="white"/>
<path id="Vector_33" d="M69.8054 59.8404L68.8472 58.6959L69.0923 58.3145L70.3848 59.9975L70.162 60.3341L68.1118 59.818L68.3792 59.4365L69.8054 59.8404Z" fill="white"/>
<path id="Vector_34" d="M68.7808 57.7979C68.714 57.753 68.6917 57.7081 68.6694 57.6408C68.6471 57.5735 68.6694 57.5062 68.714 57.4389C68.7585 57.3715 68.8031 57.3267 68.8699 57.3042C68.9368 57.2818 69.0036 57.3042 69.0482 57.3267C69.1151 57.3715 69.1373 57.4164 69.1596 57.4613C69.1819 57.5286 69.1596 57.5959 69.1151 57.6633C69.0705 57.7306 69.0259 57.7755 68.9591 57.7979C68.8922 57.8428 68.8254 57.8428 68.7808 57.7979ZM71.1875 58.6955L70.9646 59.077L69.2488 58.0448L69.4716 57.6633L71.1875 58.6955Z" fill="white"/>
<path id="Vector_35" d="M71.5881 57.3266C71.6327 57.2368 71.655 57.1246 71.6327 57.0348C71.6104 56.9451 71.5658 56.8553 71.4767 56.8104L71.6773 56.429C71.7887 56.4963 71.8778 56.586 71.9224 56.6982C71.9669 56.8104 72.0115 56.9451 72.0115 57.0797C72.0115 57.2144 71.9669 57.349 71.9001 57.4837C71.7664 57.7305 71.5881 57.8876 71.343 57.9325C71.0979 57.9998 70.8527 57.9325 70.563 57.7978L70.5185 57.7754C70.2511 57.6183 70.0728 57.4388 69.9837 57.2144C69.8945 56.99 69.9168 56.7431 70.0505 56.4963C70.1619 56.2943 70.3179 56.1372 70.5185 56.0699C70.719 56.0026 70.9196 56.025 71.1202 56.1148L70.9196 56.4963C70.8082 56.4514 70.719 56.429 70.6076 56.4738C70.4962 56.4963 70.4293 56.5636 70.3848 56.6758C70.3179 56.8104 70.3179 56.9226 70.3625 57.0573C70.4071 57.1695 70.5408 57.2817 70.719 57.3939L70.7859 57.4388C70.9864 57.551 71.1424 57.5959 71.2761 57.5734C71.4098 57.5285 71.5213 57.4612 71.5881 57.3266Z" fill="white"/>
<path id="Vector_36" d="M72.859 55.5541C72.7476 55.8234 72.5693 55.9805 72.3242 56.0703C72.0791 56.16 71.8339 56.1376 71.5665 56.003L71.522 55.9805C71.3437 55.8908 71.1877 55.7786 71.0763 55.6439C70.9648 55.5093 70.898 55.3522 70.8757 55.1951C70.8534 55.038 70.8757 54.8809 70.9648 54.7239C71.0763 54.477 71.2545 54.3199 71.4774 54.2526C71.7002 54.1853 71.9454 54.2302 72.235 54.3648L72.391 54.4321L71.8339 55.6215C71.9899 55.6888 72.1236 55.6888 72.2573 55.6439C72.391 55.599 72.4802 55.5093 72.547 55.3746C72.6362 55.1951 72.6362 54.9931 72.5247 54.8136L72.8367 54.7014C72.9036 54.8361 72.9481 54.9707 72.9481 55.1053C72.9704 55.2624 72.9481 55.4195 72.859 55.5541ZM71.2991 54.8809C71.2545 54.9931 71.2545 55.1053 71.2991 55.2175C71.3437 55.3297 71.4328 55.4195 71.5665 55.5093L71.9231 54.7239L71.9008 54.7014C71.7671 54.6565 71.6334 54.6341 71.5442 54.6565C71.4105 54.7014 71.3437 54.7687 71.2991 54.8809Z" fill="white"/>
<path id="Vector_37" d="M73.2595 50.9315C73.5047 51.0212 73.7052 51.1334 73.8612 51.2905C74.0172 51.4476 74.1286 51.6271 74.1732 51.8066C74.2177 52.0086 74.1955 52.2106 74.1286 52.4125C74.0618 52.6145 73.9503 52.794 73.7721 52.9062C73.5938 53.0184 73.4378 53.1082 73.215 53.1306C72.9921 53.1531 72.7693 53.1306 72.5242 53.0409L72.3904 52.996C72.1453 52.9062 71.9448 52.794 71.7888 52.6369C71.6328 52.4799 71.5214 52.3003 71.4768 52.0984C71.4322 51.8964 71.4545 51.6944 71.5214 51.4925C71.5882 51.2905 71.6996 51.111 71.8556 50.9988C72.0116 50.8642 72.1899 50.7968 72.4127 50.7744C72.6356 50.752 72.8584 50.7968 73.1035 50.8642L73.2595 50.9315ZM72.9698 51.3354C72.6801 51.2456 72.4573 51.2008 72.2567 51.2681C72.0785 51.313 71.9448 51.4476 71.8779 51.6496C71.8111 51.8515 71.8333 52.0086 71.9448 52.1881C72.0562 52.3452 72.2567 52.4799 72.5242 52.5696L72.6801 52.6145C72.9698 52.7043 73.1927 52.7267 73.3932 52.6818C73.5938 52.6369 73.7052 52.5023 73.7721 52.3003C73.8389 52.0984 73.8166 51.9189 73.7052 51.7618C73.5938 51.6047 73.3932 51.47 73.1035 51.3803L72.9698 51.3354Z" fill="white"/>
<path id="Vector_38" d="M73.371 49.4051C73.3487 49.45 73.3264 49.5173 73.3041 49.5847C73.2373 49.7866 73.2818 49.9437 73.4155 50.0559L74.7303 50.4374L74.5966 50.8638L72.6802 50.3027L72.7916 49.8764L73.0144 49.9213C72.8807 49.7642 72.8362 49.6071 72.8807 49.4051C72.903 49.3378 72.9253 49.2929 72.9476 49.248L73.371 49.4051Z" fill="white"/>
<path id="Vector_39" d="M73.9949 49.3605C73.6829 49.2932 73.4601 49.1586 73.3264 48.979C73.1704 48.7995 73.1258 48.5751 73.1927 48.3507C73.2372 48.1263 73.371 47.9692 73.5492 47.8794L73.3487 47.8121L73.4378 47.4082L75.332 47.857C75.5771 47.9243 75.7776 48.0365 75.8891 48.2385C76.0005 48.4405 76.0228 48.6649 75.9559 48.9341C75.9113 49.0688 75.8668 49.2034 75.7776 49.3381C75.6885 49.4727 75.5771 49.54 75.4657 49.5849L75.2428 49.3156C75.4434 49.2259 75.5548 49.0688 75.5994 48.8668C75.6439 48.7097 75.6217 48.5975 75.5548 48.4853C75.4879 48.3731 75.3988 48.3058 75.2428 48.2834L75.1091 48.2609C75.2205 48.418 75.2428 48.5975 75.1983 48.8219C75.1537 49.0463 75.02 49.2259 74.7971 49.3156C74.5743 49.4278 74.3069 49.4503 73.9949 49.3605ZM74.1286 48.9341C74.3292 48.979 74.4852 48.979 74.6189 48.9341C74.7526 48.8893 74.8417 48.7771 74.864 48.6424C74.9086 48.4629 74.864 48.3058 74.7303 48.1936L73.8612 47.9917C73.6829 48.0365 73.5938 48.1487 73.5492 48.3283C73.5047 48.4629 73.5492 48.5975 73.6384 48.7097C73.7498 48.7995 73.9058 48.8893 74.1286 48.9341Z" fill="white"/>
<path id="Vector_40" d="M75.6884 46.1286C75.6438 46.151 75.577 46.1511 75.4878 46.1511C75.6215 46.3081 75.6661 46.5101 75.6215 46.7121C75.5769 46.914 75.5101 47.0711 75.3764 47.1609C75.2427 47.2731 75.0867 47.2955 74.9307 47.2731C74.7302 47.2282 74.5742 47.1384 74.485 46.9589C74.3959 46.7794 74.3736 46.555 74.4405 46.2633L74.485 45.994L74.3513 45.9715C74.2399 45.9491 74.1731 45.9715 74.0839 46.0164C74.0171 46.0613 73.9725 46.1511 73.9502 46.2633C73.9279 46.3755 73.9502 46.4428 73.9725 46.5325C74.0171 46.5999 74.0616 46.6447 74.1508 46.6672L74.0839 47.116C73.9725 47.0935 73.8834 47.0487 73.7942 46.9589C73.7051 46.8691 73.6605 46.7569 73.6159 46.6223C73.5714 46.4877 73.5714 46.353 73.6159 46.1959C73.6605 45.9715 73.7497 45.792 73.8834 45.6798C74.0171 45.5676 74.1953 45.5227 74.4182 45.5452L75.3095 45.7022C75.4878 45.7247 75.6438 45.7247 75.7552 45.7022H75.7775L75.6884 46.1286ZM75.2873 46.555C75.3095 46.4652 75.2873 46.3755 75.265 46.2857C75.2427 46.1959 75.1981 46.1286 75.1313 46.0837L74.7524 46.0164L74.7079 46.2633C74.6856 46.4203 74.6856 46.555 74.7302 46.6447C74.7747 46.7345 74.8416 46.8018 74.953 46.8018C75.0421 46.8243 75.109 46.8018 75.1758 46.7569C75.2427 46.7345 75.265 46.6447 75.2873 46.555Z" fill="white"/>
<path id="Vector_41" d="M73.8841 44.5359L74.1069 44.5584C73.951 44.4013 73.8841 44.1769 73.9064 43.9525C73.951 43.5261 74.2184 43.3466 74.6863 43.3915L76.0011 43.5261L75.9565 43.9749L74.664 43.8403C74.5303 43.8178 74.4412 43.8403 74.3744 43.8852C74.3075 43.93 74.2629 44.0198 74.2629 44.1545C74.2407 44.334 74.3075 44.4911 74.4635 44.5808L75.8897 44.7379L75.8451 45.1867L73.8618 44.9623L73.8841 44.5359Z" fill="white"/>
<path id="Vector_42" d="M73.5269 42.8081C73.46 42.8081 73.3932 42.7857 73.3486 42.7408C73.304 42.6959 73.2817 42.6286 73.2817 42.5388C73.2817 42.4491 73.304 42.4042 73.3709 42.3593C73.4154 42.3144 73.4823 42.292 73.5492 42.292C73.616 42.292 73.6829 42.3144 73.7051 42.3593C73.7274 42.4042 73.772 42.4715 73.7497 42.5613C73.7497 42.651 73.7274 42.6959 73.6606 42.7408C73.6606 42.8081 73.5937 42.8081 73.5269 42.8081ZM76.0673 42.494L76.045 42.9428L74.0394 42.8081L74.0617 42.3593L76.0673 42.494Z" fill="white"/>
<path id="Vector_43" d="M75.755 41.4385L75.7773 40.3613H76.1338L76.0892 41.9995H75.7996L74.4848 40.9448L74.4625 41.9546H74.106L74.1282 40.3838H74.4179L75.755 41.4385Z" fill="white"/>
<path id="Vector_44" d="M76.09 38.7227C76.0455 38.7452 76.0009 38.7676 75.9118 38.7901C76.0678 38.9247 76.1569 39.1042 76.1569 39.3062C76.1569 39.5081 76.1123 39.6652 76.0009 39.7999C75.8895 39.9345 75.7558 40.0018 75.5775 40.0018C75.3547 40.0018 75.1987 39.9345 75.0873 39.7774C74.9758 39.6204 74.909 39.3959 74.8867 39.1042V38.8349H74.753C74.6416 38.8349 74.5747 38.8798 74.5079 38.9247C74.441 38.992 74.4187 39.0818 74.4187 39.194C74.4187 39.3062 74.441 39.3735 74.5079 39.4408C74.5747 39.5082 74.6193 39.5306 74.7084 39.5306L74.7307 39.9794C74.6193 39.9794 74.5079 39.957 74.4187 39.8896C74.3296 39.8223 74.2405 39.7326 74.1736 39.5979C74.1068 39.4633 74.0845 39.3286 74.0845 39.1715C74.0845 38.9247 74.129 38.7452 74.2405 38.6105C74.3519 38.4759 74.5079 38.3861 74.7307 38.3861L75.6444 38.3637C75.8226 38.3637 75.9563 38.3188 76.0678 38.2739H76.09V38.7227ZM75.8004 39.2164C75.8004 39.1267 75.7781 39.0369 75.7335 38.9696C75.6889 38.9023 75.6221 38.8349 75.5552 38.7901L75.1764 38.8125V39.0593C75.1764 39.2164 75.221 39.3511 75.2878 39.4408C75.3547 39.5306 75.4215 39.553 75.5329 39.553C75.6221 39.553 75.6889 39.5081 75.7335 39.4633C75.7781 39.4184 75.8004 39.3286 75.8004 39.2164Z" fill="white"/>
<path id="Vector_45" d="M73.5044 37.4223L73.9946 37.3775L73.9724 37.0184L74.3066 36.996L74.3289 37.355L75.4431 37.2653C75.51 37.2653 75.5768 37.2428 75.5991 37.1979C75.6214 37.1755 75.6437 37.1082 75.6437 37.0408C75.6437 36.996 75.6214 36.9286 75.6214 36.8838L75.9779 36.8613C76.0225 36.9511 76.0448 37.0633 76.0448 37.1531C76.0671 37.4897 75.8888 37.6916 75.51 37.7141L74.3735 37.8038L74.3958 38.1404L74.0615 38.1629L74.0392 37.8263L73.549 37.8711L73.5044 37.4223Z" fill="white"/>
<path id="Vector_46" d="M73.4163 36.7493C73.3495 36.7493 73.2826 36.7493 73.2381 36.7044C73.1935 36.6595 73.1489 36.6147 73.1489 36.5249C73.1489 36.4351 73.1489 36.3678 73.1935 36.3229C73.2381 36.2781 73.2826 36.2332 73.3495 36.2332C73.4163 36.2332 73.4832 36.2332 73.5278 36.2781C73.5723 36.3229 73.6169 36.3678 73.6169 36.4576C73.6169 36.5473 73.6169 36.6147 73.5723 36.6595C73.5278 36.7044 73.4832 36.7493 73.4163 36.7493ZM75.8676 35.9863L75.9122 36.4351L73.9289 36.6595L73.8843 36.2107L75.8676 35.9863Z" fill="white"/>
<path id="Vector_47" d="M74.7979 35.6488C74.5973 35.6712 74.4191 35.6712 74.2631 35.6263C74.1071 35.5815 73.9511 35.4917 73.862 35.3571C73.7505 35.2224 73.6837 35.0878 73.6614 34.8858C73.6168 34.6165 73.6614 34.3921 73.8174 34.1902C73.9734 33.9882 74.1739 33.876 74.4636 33.8087L74.575 33.7862C74.7756 33.7638 74.9539 33.7638 75.1099 33.8087C75.2659 33.8535 75.4218 33.9433 75.511 34.0779C75.6224 34.2126 75.6893 34.3697 75.7115 34.5492C75.7561 34.8409 75.7115 35.0653 75.5333 35.2673C75.3773 35.4693 75.1322 35.6039 74.7979 35.6488ZM74.7756 35.2C74.9762 35.1775 75.1322 35.0878 75.2436 34.998C75.355 34.8858 75.3773 34.7736 75.355 34.6165C75.3327 34.4594 75.2436 34.3472 75.1322 34.3024C74.9984 34.235 74.8202 34.235 74.5973 34.2575C74.3968 34.2799 74.2408 34.3697 74.1517 34.4594C74.0402 34.5716 74.0179 34.6838 74.0402 34.8409C74.0625 34.998 74.1517 35.0878 74.2631 35.1551C74.3522 35.2224 74.5305 35.2449 74.7756 35.2Z" fill="white"/>
<path id="Vector_48" d="M73.3709 33.2026L73.5937 33.1353C73.3932 33.0231 73.2594 32.866 73.1926 32.6191C73.1035 32.2152 73.2817 31.9459 73.7497 31.8337L75.0422 31.542L75.1536 31.9908L73.8834 32.2825C73.7497 32.305 73.6828 32.3498 73.616 32.4172C73.5491 32.4845 73.5491 32.5743 73.5937 32.7089C73.6383 32.8884 73.7497 33.0006 73.928 33.0455L75.3096 32.7313L75.421 33.1801L73.46 33.6289L73.3709 33.2026Z" fill="white"/>
<path id="Vector_49" d="M74.0615 30.0613C73.9947 30.0838 73.9278 30.1286 73.9055 30.2184C73.8832 30.2857 73.8832 30.4204 73.8832 30.5775C73.9055 30.7345 73.8832 30.8692 73.8832 30.9814C73.8387 31.2282 73.7272 31.3853 73.5267 31.4302C73.3707 31.4751 73.1924 31.4526 73.0587 31.3404C72.9027 31.2282 72.7913 31.0711 72.7245 30.8467C72.6576 30.6223 72.6576 30.4204 72.7245 30.2408C72.7913 30.0613 72.925 29.9491 73.1033 29.9042L73.237 30.3306C73.1479 30.353 73.1033 30.3979 73.0587 30.4877C73.0141 30.5774 73.0141 30.6672 73.0587 30.757C73.081 30.8467 73.1256 30.9141 73.1924 30.9814C73.2593 31.0263 73.3261 31.0487 73.393 31.0263C73.4598 31.0038 73.5044 30.9589 73.5267 30.8916C73.549 30.8243 73.549 30.6897 73.549 30.5101C73.5267 30.3306 73.549 30.1735 73.5713 30.0613C73.5935 29.9491 73.6381 29.8594 73.6827 29.792C73.7495 29.7247 73.8164 29.6798 73.9278 29.635C74.1061 29.5901 74.2621 29.6125 74.4181 29.7247C74.574 29.8369 74.6855 30.0164 74.7523 30.2408C74.7969 30.3979 74.8192 30.555 74.7969 30.6897C74.7746 30.8243 74.73 30.9589 74.6409 31.0487C74.5518 31.1385 74.4626 31.2058 74.3512 31.2507L74.2175 30.8243C74.3066 30.7794 74.3958 30.7345 74.4181 30.6448C74.4403 30.555 74.4626 30.4428 74.4181 30.3306C74.3958 30.2184 74.3289 30.1286 74.2843 30.0838C74.1952 30.0613 74.1284 30.0389 74.0615 30.0613Z" fill="white"/>
</g>
<g id="Group_2">
<g id="Group_3">
<path id="Vector_50" d="M26.4171 31.8116H20.9352L19.6873 35.2225H18.6177L23.1859 23.0598H24.1664L28.7347 35.2225H27.665L26.4171 31.8116ZM21.2472 30.9364H26.1051L23.6762 24.3165L21.2472 30.9364Z" fill="white"/>
<path id="Vector_51" d="M31.5861 35.2223H30.561V23.0596H31.5861V35.2223Z" fill="white"/>
<path id="Vector_52" d="M43.2416 31.4297C43.1078 32.7088 42.6399 33.6962 41.8822 34.3694C41.1246 35.0426 40.0772 35.3792 38.807 35.3792C37.9156 35.3792 37.1134 35.1548 36.4226 34.706C35.7318 34.2572 35.197 33.6064 34.8182 32.7986C34.4393 31.9683 34.2611 31.0258 34.2388 29.9711V28.4003C34.2388 27.3231 34.417 26.3582 34.7959 25.5279C35.1747 24.6976 35.7095 24.0468 36.4226 23.598C37.1357 23.1492 37.9379 22.9248 38.8516 22.9248C40.1441 22.9248 41.1691 23.2839 41.9268 23.9795C42.6845 24.6752 43.1078 25.6625 43.2416 26.8968H42.2165C41.9714 24.8322 40.8572 23.8 38.8739 23.8C37.7819 23.8 36.9129 24.2039 36.2443 25.0342C35.5981 25.8645 35.2638 27.009 35.2638 28.4451V29.9262C35.2638 31.34 35.5758 32.462 36.2221 33.2923C36.846 34.1226 37.7151 34.5489 38.7847 34.5489C39.8544 34.5489 40.6566 34.3021 41.1914 33.786C41.7262 33.2698 42.0605 32.5069 42.1942 31.4746H43.2416V31.4297Z" fill="white"/>
<path id="Vector_53" d="M46.5842 30.2629V35.2223H45.5591V23.0596H49.6816C50.9296 23.0596 51.9323 23.3737 52.6677 24.0245C53.4031 24.6753 53.7596 25.5505 53.7596 26.6949C53.7596 27.8394 53.4031 28.7146 52.7123 29.3429C52.0215 29.9712 50.9964 30.2854 49.6816 30.2854H46.5842V30.2629ZM46.5842 29.4102H49.6816C50.6621 29.4102 51.4198 29.1634 51.9546 28.6921C52.4672 28.2209 52.7346 27.5476 52.7346 26.7174C52.7346 25.8646 52.4672 25.2138 51.9546 24.6977C51.4421 24.204 50.7067 23.9347 49.7485 23.9347H46.5842V29.4102Z" fill="white"/>
<path id="Vector_54" d="M61.2472 31.8113H55.7653L54.5174 35.2223H53.4478L58.016 23.0596H58.9965L63.5647 35.2223H62.4951L61.2472 31.8113ZM56.0773 30.9361H60.9352L58.5062 24.3162L56.0773 30.9361Z" fill="white"/>
<path id="Vector_55" d="M33.3256 52.008C33.3256 51.3348 33.0805 50.7963 32.6125 50.4148C32.1445 50.0108 31.2754 49.6518 30.0275 49.2927C28.7796 48.9337 27.866 48.5522 27.2866 48.1258C26.4621 47.5424 26.061 46.757 26.061 45.792C26.061 44.872 26.4398 44.109 27.1974 43.5256C27.9551 42.9421 28.9356 42.6504 30.1167 42.6504C30.9189 42.6504 31.632 42.8075 32.2782 43.1216C32.9022 43.4358 33.3924 43.8622 33.749 44.4232C34.1055 44.9842 34.2615 45.6125 34.2615 46.2857H33.2364C33.2364 45.4554 32.9468 44.7822 32.3897 44.2885C31.8325 43.7949 31.0749 43.5256 30.1167 43.5256C29.203 43.5256 28.4676 43.7275 27.9105 44.1539C27.3534 44.5803 27.086 45.1188 27.086 45.792C27.086 46.4204 27.3312 46.9141 27.8214 47.318C28.3117 47.6995 29.0916 48.0585 30.1835 48.3503C31.2754 48.642 32.1 48.9561 32.6571 49.2703C33.2142 49.5845 33.6376 49.966 33.9273 50.4148C34.2169 50.8636 34.3507 51.3797 34.3507 51.9856C34.3507 52.9505 33.9718 53.7135 33.2142 54.297C32.4565 54.8804 31.4537 55.1721 30.2058 55.1721C29.359 55.1721 28.5791 55.015 27.866 54.7233C27.1529 54.4092 26.6181 53.9828 26.2392 53.4442C25.8604 52.8832 25.6821 52.2549 25.6821 51.5368H26.7072C26.7072 52.3895 27.0192 53.0627 27.6654 53.5789C28.3117 54.0726 29.1585 54.3194 30.2058 54.3194C31.1417 54.3194 31.8994 54.1174 32.4788 53.6911C33.0359 53.2423 33.3256 52.6812 33.3256 52.008Z" fill="white"/>
<path id="Vector_56" d="M45.3145 49.562C45.3145 50.6841 45.114 51.6714 44.7352 52.5017C44.3563 53.3545 43.7992 54.0052 43.0861 54.454C42.373 54.9028 41.5485 55.1497 40.6126 55.1497C39.2087 55.1497 38.0722 54.6336 37.2031 53.6237C36.334 52.6139 35.9106 51.2451 35.9106 49.5172V48.2605C35.9106 47.1609 36.1112 46.1735 36.49 45.3208C36.8911 44.4681 37.426 43.8173 38.1391 43.346C38.8521 42.8972 39.6767 42.6504 40.6126 42.6504C41.5485 42.6504 42.373 42.8748 43.0638 43.3236C43.7769 43.7724 44.334 44.4232 44.7129 45.231C45.0917 46.0613 45.2923 47.0038 45.3145 48.1034V49.562ZM44.2895 48.2381C44.2895 46.7794 43.9552 45.635 43.309 44.8047C42.6404 43.9744 41.7491 43.5704 40.6126 43.5704C39.4984 43.5704 38.5847 43.9968 37.9385 44.8271C37.27 45.6574 36.9357 46.8243 36.9357 48.3278V49.6069C36.9357 51.0431 37.27 52.1876 37.9385 53.0403C38.607 53.893 39.4984 54.297 40.6349 54.297C41.7937 54.297 42.685 53.8706 43.3313 53.0403C43.9775 52.21 44.3118 51.0431 44.3118 49.562V48.2381H44.2895Z" fill="white"/>
<path id="Vector_57" d="M56.2552 51.1997C56.1215 52.4788 55.6536 53.4662 54.8959 54.1394C54.1382 54.8126 53.0909 55.1492 51.8207 55.1492C50.9293 55.1492 50.1271 54.9248 49.4363 54.476C48.7455 54.0272 48.2107 53.3765 47.8318 52.5686C47.453 51.7383 47.2747 50.7958 47.2524 49.7411V48.1703C47.2524 47.0931 47.4307 46.1282 47.8095 45.2979C48.1884 44.4676 48.7232 43.8168 49.4363 43.368C50.1494 42.9192 50.9516 42.6948 51.8653 42.6948C53.1577 42.6948 54.1828 43.0539 54.9405 43.7495C55.6981 44.4452 56.1215 45.4326 56.2552 46.6668H55.2302C54.985 44.6023 53.8708 43.57 51.8875 43.57C50.7956 43.57 49.9265 43.9739 49.258 44.8042C48.6118 45.6345 48.2775 46.779 48.2775 48.2152V49.6962C48.2775 51.11 48.5895 52.232 49.2357 53.0623C49.8597 53.8926 50.7288 54.3189 51.7984 54.3189C52.868 54.3189 53.6703 54.0721 54.2051 53.556C54.7399 53.0398 55.0742 52.2769 55.2079 51.2446H56.2552V51.1997Z" fill="white"/>
</g>
<g id="Group_4">
<path id="Vector_58" d="M64.3001 39.2842H18.2389C18.172 39.2842 18.1274 39.2393 18.1274 39.172C18.1274 39.1047 18.172 39.0598 18.2389 39.0598H64.3001C64.367 39.0598 64.4116 39.1047 64.4116 39.172C64.4116 39.2393 64.367 39.2842 64.3001 39.2842Z" fill="white"/>
</g>
</g>
<g id="Group_5">
<path id="Vector_59" d="M25.8166 62.0381C25.7943 61.9932 25.772 61.9035 25.7497 61.7913C25.5715 61.9932 25.3486 62.083 25.0812 62.083C24.8584 62.083 24.6578 62.0157 24.5241 61.881C24.3681 61.7464 24.3013 61.5893 24.3013 61.3873C24.3013 61.1405 24.3904 60.961 24.5687 60.8263C24.747 60.6917 25.0144 60.6244 25.3486 60.6244H25.7275V60.4448C25.7275 60.3102 25.6829 60.198 25.5937 60.1082C25.5046 60.0185 25.3932 59.9736 25.2149 59.9736C25.0812 59.9736 24.9475 60.0185 24.8584 60.0858C24.7692 60.1531 24.7247 60.2429 24.7247 60.3551H24.3236C24.3236 60.2429 24.3681 60.1307 24.4573 60.0185C24.5464 59.9063 24.6578 59.8165 24.7915 59.7492C24.9252 59.6819 25.0812 59.6594 25.2595 59.6594C25.5269 59.6594 25.7275 59.7267 25.8834 59.8614C26.0394 59.996 26.1063 60.1756 26.1286 60.4224V61.4995C26.1286 61.7239 26.1509 61.881 26.2177 62.0157V62.0605H25.8166V62.0381ZM25.1481 61.7239C25.2818 61.7239 25.3932 61.7015 25.5046 61.6342C25.616 61.5669 25.7052 61.4771 25.7497 61.3873V60.9161H25.4378C24.9475 60.9161 24.7024 61.0507 24.7024 61.3425C24.7024 61.4771 24.747 61.5669 24.8361 61.6342C24.9029 61.7015 25.0144 61.7239 25.1481 61.7239Z" fill="white"/>
<path id="Vector_60" d="M26.6626 59.076C26.6626 59.0086 26.6849 58.9638 26.7295 58.9189C26.774 58.874 26.8186 58.8516 26.9077 58.8516C26.9746 58.8516 27.0414 58.874 27.086 58.9189C27.1306 58.9638 27.1528 59.0086 27.1528 59.076C27.1528 59.1433 27.1306 59.1882 27.086 59.233C27.0414 59.2779 26.9969 59.3004 26.9077 59.3004C26.8409 59.3004 26.774 59.2779 26.7295 59.233C26.6849 59.1882 26.6626 59.1433 26.6626 59.076ZM27.086 62.0381H26.6849V59.6819H27.086V62.0381Z" fill="white"/>
<path id="Vector_61" d="M28.5568 61.7461C28.6905 61.7461 28.8242 61.7013 28.9356 61.6115C29.0471 61.5217 29.0916 61.4095 29.1139 61.2973H29.4927C29.4927 61.432 29.4482 61.5666 29.359 61.6788C29.2699 61.791 29.1585 61.9032 29.0248 61.9705C28.8911 62.0379 28.7351 62.0827 28.5791 62.0827C28.2671 62.0827 27.9997 61.9705 27.8214 61.7686C27.6432 61.5442 27.5317 61.2524 27.5317 60.8934V60.8261C27.5317 60.6017 27.5763 60.3997 27.6654 60.2202C27.7546 60.0407 27.866 59.906 28.022 59.8163C28.178 59.7265 28.3563 59.6592 28.5791 59.6592C28.8465 59.6592 29.0471 59.7489 29.2253 59.906C29.4036 60.0631 29.4927 60.2651 29.4927 60.5119H29.1139C29.0916 60.3548 29.0471 60.2426 28.9356 60.1304C28.8242 60.0407 28.7128 59.9733 28.5568 59.9733C28.3563 59.9733 28.2003 60.0407 28.0888 60.1977C27.9774 60.3548 27.9329 60.5568 27.9329 60.8261V60.8934C27.9329 61.1627 27.9774 61.3646 28.0888 61.5217C28.178 61.6788 28.3563 61.7461 28.5568 61.7461Z" fill="white"/>
<path id="Vector_62" d="M31.7885 60.8944C31.7885 61.2534 31.6993 61.5451 31.5433 61.7471C31.3873 61.9715 31.1645 62.0837 30.8748 62.0837C30.5851 62.0837 30.3623 61.9939 30.2063 61.8144V62.9364H29.8052V59.6826H30.1617L30.184 59.9519C30.34 59.7499 30.5628 59.6377 30.8525 59.6377C31.1422 59.6377 31.3651 59.7499 31.5211 59.9519C31.677 60.1538 31.7662 60.468 31.7662 60.8495V60.8944H31.7885ZM31.3873 60.8495C31.3873 60.5802 31.3205 60.3782 31.2091 60.2211C31.0977 60.0641 30.9417 59.9967 30.7411 59.9967C30.496 59.9967 30.3177 60.1089 30.2063 60.3109V61.4329C30.3177 61.6573 30.5183 61.7471 30.7634 61.7471C30.964 61.7471 31.0977 61.6798 31.2091 61.5227C31.3205 61.3656 31.3873 61.1412 31.3873 60.8495Z" fill="white"/>
<path id="Vector_63" d="M33.6154 62.0383C33.5931 61.9935 33.5708 61.9037 33.5486 61.7915C33.3703 61.9935 33.1475 62.0832 32.88 62.0832C32.6572 62.0832 32.4566 62.0159 32.3229 61.8813C32.167 61.7466 32.1001 61.5895 32.1001 61.3876C32.1001 61.1407 32.1892 60.9612 32.3675 60.8266C32.5458 60.6919 32.8132 60.6246 33.1475 60.6246H33.5263V60.4451C33.5263 60.3104 33.4817 60.1982 33.3926 60.1085C33.3034 60.0187 33.192 59.9738 33.0137 59.9738C32.88 59.9738 32.7463 60.0187 32.6572 60.086C32.5681 60.1534 32.5235 60.2431 32.5235 60.3553H32.1224C32.1224 60.2431 32.1669 60.1309 32.2561 60.0187C32.3452 59.9065 32.4566 59.8167 32.5903 59.7494C32.7241 59.6821 32.88 59.6597 33.0583 59.6597C33.3257 59.6597 33.5263 59.727 33.6823 59.8616C33.8383 59.9963 33.9051 60.1758 33.9274 60.4226V61.4998C33.9274 61.7242 33.9497 61.8813 34.0165 62.0159V62.0608H33.6154V62.0383ZM32.9469 61.7242C33.0806 61.7242 33.192 61.7017 33.3034 61.6344C33.4149 61.5671 33.504 61.4773 33.5486 61.3876V60.9163H33.2366C32.7463 60.9163 32.5012 61.051 32.5012 61.3427C32.5012 61.4773 32.5458 61.5671 32.6349 61.6344C32.7241 61.7017 32.8355 61.7242 32.9469 61.7242Z" fill="white"/>
<path id="Vector_64" d="M34.4849 61.8362C34.4849 61.7689 34.5071 61.7016 34.5517 61.6567C34.5963 61.6118 34.6631 61.5894 34.73 61.5894C34.7968 61.5894 34.8637 61.6118 34.9083 61.6567C34.9528 61.7016 34.9751 61.7689 34.9751 61.8362C34.9751 61.9035 34.9528 61.9484 34.9083 61.9933C34.8637 62.0382 34.7968 62.0606 34.73 62.0606C34.6631 62.0606 34.5963 62.0382 34.5517 61.9933C34.5071 61.9484 34.4849 61.9035 34.4849 61.8362Z" fill="white"/>
<path id="Vector_65" d="M35.4204 60.8495C35.4204 60.6251 35.465 60.4231 35.5541 60.2211C35.6433 60.0192 35.777 59.907 35.9329 59.7948C36.0889 59.705 36.2672 59.6377 36.49 59.6377C36.802 59.6377 37.0694 59.7499 37.27 59.9743C37.4706 60.1987 37.5597 60.4904 37.5597 60.8495V60.8719C37.5597 61.0963 37.5151 61.2983 37.426 61.4778C37.3368 61.6573 37.2254 61.792 37.0472 61.9042C36.8912 62.0164 36.6906 62.0613 36.49 62.0613C36.1781 62.0613 35.9107 61.9491 35.7324 61.7246C35.5318 61.5002 35.4427 61.2085 35.4427 60.8495H35.4204ZM35.8215 60.8944C35.8215 61.1636 35.8884 61.3656 35.9998 61.5227C36.1112 61.6798 36.2895 61.7695 36.49 61.7695C36.6906 61.7695 36.8466 61.6798 36.9803 61.5227C37.114 61.3656 37.1586 61.1412 37.1586 60.8495C37.1586 60.6026 37.0917 60.3782 36.9803 60.2211C36.8689 60.0641 36.6906 59.9743 36.49 59.9743C36.2895 59.9743 36.1335 60.0641 36.0221 60.2211C35.9107 60.3782 35.8215 60.6026 35.8215 60.8944Z" fill="white"/>
<path id="Vector_66" d="M39.053 60.0641C38.9861 60.0641 38.9193 60.0416 38.8524 60.0416C38.585 60.0416 38.4068 60.1538 38.3176 60.3782V62.0388H37.9165V59.6826H38.2953V59.9519C38.429 59.7499 38.6073 59.6377 38.8524 59.6377C38.9193 59.6377 38.9861 59.6377 39.0307 59.6601V60.0641H39.053Z" fill="white"/>
<path id="Vector_67" d="M39.1646 60.849C39.1646 60.49 39.2537 60.1982 39.4097 59.9738C39.588 59.7494 39.8108 59.6597 40.0782 59.6597C40.3679 59.6597 40.5907 59.7719 40.7467 59.9738L40.769 59.7045H41.1256V61.9935C41.1256 62.3076 41.0364 62.532 40.8581 62.7116C40.6799 62.8911 40.4347 62.9808 40.1451 62.9808C39.9668 62.9808 39.8108 62.936 39.6548 62.8686C39.4988 62.8013 39.3651 62.6891 39.276 62.5769L39.4765 62.3301C39.6548 62.532 39.8554 62.6442 40.1005 62.6442C40.301 62.6442 40.4347 62.5994 40.5462 62.4872C40.6576 62.3749 40.7022 62.2179 40.7022 62.0159V61.8139C40.5462 61.9935 40.3233 62.0832 40.0559 62.0832C39.7885 62.0832 39.5657 61.971 39.3874 61.7466C39.2537 61.5222 39.1646 61.2305 39.1646 60.849ZM39.5657 60.8939C39.5657 61.1632 39.6102 61.3651 39.7217 61.5222C39.8331 61.6793 39.9891 61.7466 40.1673 61.7466C40.4125 61.7466 40.613 61.6344 40.7244 61.41V60.3329C40.613 60.1085 40.4125 59.9963 40.1673 59.9963C39.9668 59.9963 39.8331 60.0636 39.7217 60.2207C39.6325 60.3778 39.5657 60.6022 39.5657 60.8939Z" fill="white"/>
<path id="Vector_68" d="M41.7039 62.3074H41.3696L42.6844 58.874H43.0187L41.7039 62.3074Z" fill="white"/>
<path id="Vector_69" d="M44.6923 61.4105C44.6923 61.2983 44.6477 61.2085 44.5809 61.1636C44.4917 61.0963 44.358 61.0514 44.1575 61.0066C43.9569 60.9617 43.8009 60.9168 43.6672 60.8495C43.5558 60.7822 43.4667 60.7148 43.3998 60.6251C43.333 60.5353 43.3107 60.4456 43.3107 60.3333C43.3107 60.1314 43.3998 59.9743 43.5558 59.8397C43.7118 59.705 43.9346 59.6377 44.1798 59.6377C44.4472 59.6377 44.6477 59.705 44.826 59.8397C44.982 59.9743 45.0711 60.1538 45.0711 60.3558H44.67C44.67 60.2436 44.6254 60.1538 44.5363 60.0641C44.4472 59.9743 44.3357 59.9519 44.1798 59.9519C44.0238 59.9519 43.9124 59.9743 43.8455 60.0416C43.7564 60.1089 43.7118 60.1987 43.7118 60.2885C43.7118 60.3782 43.7564 60.468 43.8232 60.5129C43.8901 60.5578 44.0461 60.6026 44.2466 60.6475C44.4472 60.6924 44.6032 60.7373 44.7369 60.8046C44.8706 60.8719 44.9597 60.9392 45.0043 61.029C45.0488 61.1188 45.0934 61.231 45.0934 61.3432C45.0934 61.5451 45.0043 61.7246 44.8483 61.8369C44.6923 61.9715 44.4695 62.0164 44.202 62.0164C44.0238 62.0164 43.8455 61.9939 43.7118 61.9266C43.5781 61.8593 43.4667 61.7695 43.3775 61.6573C43.2884 61.5451 43.2661 61.4105 43.2661 61.2758H43.6672C43.6672 61.4105 43.7341 61.5227 43.8232 61.59C43.9124 61.6573 44.0461 61.7022 44.2243 61.7022C44.3803 61.7022 44.4917 61.6798 44.5809 61.6124C44.67 61.5451 44.6923 61.5227 44.6923 61.4105Z" fill="white"/>
<path id="Vector_70" d="M45.4048 60.8495C45.4048 60.6251 45.4494 60.4231 45.5385 60.2211C45.6276 60.0192 45.7613 59.907 45.9173 59.7948C46.0733 59.705 46.2516 59.6377 46.4744 59.6377C46.7864 59.6377 47.0538 59.7499 47.2544 59.9743C47.4549 60.1987 47.5441 60.4904 47.5441 60.8495V60.8719C47.5441 61.0963 47.4995 61.2983 47.4104 61.4778C47.3212 61.6573 47.2098 61.792 47.0315 61.9042C46.8755 62.0164 46.675 62.0613 46.4744 62.0613C46.1624 62.0613 45.895 61.9491 45.7168 61.7246C45.5162 61.5002 45.4271 61.2085 45.4271 60.8495H45.4048ZM45.8059 60.8944C45.8059 61.1636 45.8728 61.3656 45.9842 61.5227C46.0956 61.6798 46.2739 61.7695 46.4744 61.7695C46.675 61.7695 46.831 61.6798 46.9647 61.5227C47.0984 61.3656 47.1429 61.1412 47.1429 60.8495C47.1429 60.6026 47.0761 60.3782 46.9647 60.2211C46.8533 60.0641 46.675 59.9743 46.4744 59.9743C46.2739 59.9743 46.1179 60.0641 46.0065 60.2211C45.895 60.3782 45.8059 60.6026 45.8059 60.8944Z" fill="white"/>
<path id="Vector_71" d="M48.8361 61.7466C48.9698 61.7466 49.1035 61.7017 49.2149 61.612C49.3264 61.5222 49.3709 61.41 49.3932 61.2978H49.772C49.772 61.4325 49.7275 61.5671 49.6383 61.6793C49.5492 61.7915 49.4378 61.9037 49.3041 61.971C49.1704 62.0383 49.0144 62.0832 48.8584 62.0832C48.5464 62.0832 48.279 61.971 48.1007 61.7691C47.9225 61.5447 47.811 61.2529 47.811 60.8939V60.8266C47.811 60.6022 47.8556 60.4002 47.9447 60.2207C48.0339 60.0412 48.1453 59.9065 48.3013 59.8167C48.4573 59.727 48.6355 59.6597 48.8584 59.6597C49.1258 59.6597 49.3264 59.7494 49.5046 59.9065C49.6829 60.0636 49.772 60.2656 49.772 60.5124H49.3932C49.3709 60.3553 49.3264 60.2431 49.2149 60.1309C49.1035 60.0411 48.9921 59.9738 48.8361 59.9738C48.6355 59.9738 48.4796 60.0412 48.3681 60.1982C48.2567 60.3553 48.2122 60.5573 48.2122 60.8266V60.8939C48.2122 61.1632 48.2567 61.3651 48.3681 61.5222C48.4796 61.6793 48.6355 61.7466 48.8361 61.7466Z" fill="white"/>
<path id="Vector_72" d="M51.7555 60.9834H52.2012V61.32H51.7555V62.0606H51.3544V61.32H49.9282V61.0732L51.3321 58.874H51.7555V60.9834ZM50.3739 60.9834H51.3544V59.435L51.3098 59.5248L50.3739 60.9834Z" fill="white"/>
<path id="Vector_73" d="M53.8271 61.4105C53.8271 61.2983 53.7825 61.2085 53.7156 61.1636C53.6265 61.0963 53.4928 61.0514 53.2922 61.0066C53.0917 60.9617 52.9357 60.9168 52.802 60.8495C52.6906 60.7822 52.6014 60.7148 52.5346 60.6251C52.4677 60.5353 52.4454 60.4456 52.4454 60.3333C52.4454 60.1314 52.5346 59.9743 52.6906 59.8397C52.8466 59.705 53.0694 59.6377 53.3145 59.6377C53.5819 59.6377 53.7825 59.705 53.9608 59.8397C54.1168 59.9743 54.2059 60.1538 54.2059 60.3558H53.8048C53.8048 60.2436 53.7602 60.1538 53.6711 60.0641C53.5819 59.9743 53.4705 59.9519 53.3145 59.9519C53.1585 59.9519 53.0471 59.9743 52.9803 60.0416C52.8911 60.1089 52.8466 60.1987 52.8466 60.2885C52.8466 60.3782 52.8911 60.468 52.958 60.5129C53.0248 60.5578 53.1808 60.6026 53.3814 60.6475C53.5819 60.6924 53.7379 60.7373 53.8716 60.8046C54.0053 60.8719 54.0945 60.9392 54.139 61.029C54.1836 61.1188 54.2282 61.231 54.2282 61.3432C54.2282 61.5451 54.139 61.7246 53.983 61.8369C53.8271 61.9715 53.6042 62.0164 53.3368 62.0164C53.1585 62.0164 52.9803 61.9939 52.8466 61.9266C52.7129 61.8593 52.6014 61.7695 52.5123 61.6573C52.4232 61.5451 52.4009 61.4105 52.4009 61.2758H52.802C52.802 61.4105 52.8688 61.5227 52.958 61.59C53.0471 61.6798 53.1808 61.7022 53.3591 61.7022C53.5151 61.7022 53.6265 61.6798 53.7156 61.6124C53.8048 61.5451 53.8271 61.5227 53.8271 61.4105Z" fill="white"/>
<path id="Vector_74" d="M54.5181 60.8495C54.5181 60.6251 54.5626 60.4231 54.6518 60.2211C54.7409 60.0416 54.8746 59.907 55.0306 59.7948C55.1866 59.705 55.3649 59.6377 55.5877 59.6377C55.8997 59.6377 56.1671 59.7499 56.3676 59.9743C56.5682 60.1987 56.6573 60.4904 56.6573 60.8495V60.8719C56.6573 61.0963 56.6128 61.2983 56.5236 61.4778C56.4345 61.6573 56.3231 61.792 56.1448 61.9042C55.9888 62.0164 55.7883 62.0613 55.5877 62.0613C55.2757 62.0613 55.0083 61.9491 54.83 61.7246C54.6295 61.5002 54.5403 61.2085 54.5403 60.8495H54.5181ZM54.9192 60.8944C54.9192 61.1636 54.986 61.3656 55.0975 61.5227C55.2089 61.6798 55.3871 61.7695 55.5877 61.7695C55.7883 61.7695 55.9443 61.6798 56.078 61.5227C56.1894 61.3656 56.2562 61.1412 56.2562 60.8495C56.2562 60.6026 56.1894 60.3782 56.078 60.2211C55.9665 60.0641 55.7883 59.9743 55.5877 59.9743C55.3871 59.9743 55.2312 60.0641 55.1197 60.2211C55.0083 60.3782 54.9192 60.6026 54.9192 60.8944Z" fill="white"/>
</g>
<g id="Group_6">
<path id="Vector_75" d="M73.3942 71.2842V71.5534H72.8816V72.9223H72.5697V71.5534H72.0571V71.2842H73.3942ZM75.1546 72.9223L75.0878 71.9574C75.0878 71.8227 75.0878 71.6656 75.0655 71.5086H75.0432C74.9986 71.6432 74.9541 71.8452 74.9095 72.0023L74.6198 72.8999H74.2855L73.9959 71.9574C73.9736 71.8227 73.929 71.6432 73.8844 71.4861H73.8621C73.8621 71.6432 73.8621 71.8003 73.8399 71.9349L73.773 72.8999H73.461L73.5725 71.2617H74.0627L74.3524 72.0696C74.397 72.2042 74.4193 72.3164 74.4638 72.4735C74.5084 72.3164 74.5307 72.1818 74.5752 72.0696L74.8649 71.2617H75.3329L75.4666 72.8999H75.1546V72.9223Z" fill="#231F20"/>
</g>
</g>
<defs>
<linearGradient id="paint0_linear_741_124654" x1="79.3401" y1="40.4303" x2="1.57307" y2="40.4303" gradientUnits="userSpaceOnUse">
<stop stop-color="#2161AD"/>
<stop offset="0.1797" stop-color="#206AB3"/>
<stop offset="0.4727" stop-color="#1C82C5"/>
<stop offset="0.8404" stop-color="#17AAE1"/>
<stop offset="1" stop-color="#14BDEF"/>
</linearGradient>
<linearGradient id="paint1_linear_741_124654" x1="10.2832" y1="40.4305" x2="70.6295" y2="40.4305" gradientUnits="userSpaceOnUse">
<stop stop-color="#2161AD"/>
<stop offset="0.1797" stop-color="#206AB3"/>
<stop offset="0.4727" stop-color="#1C82C5"/>
<stop offset="0.8404" stop-color="#17AAE1"/>
<stop offset="1" stop-color="#14BDEF"/>
</linearGradient>
</defs>
</svg>
