<svg width="115" height="48" viewBox="0 0 115 48" fill="none" xmlns="http://www.w3.org/2000/svg">
<path d="M0.45752 7.09082L15.2199 7.09082L15.2199 21.8532H0.45752L0.45752 7.09082Z" fill="black"/>
<path d="M30.811 7.09082V7.09082C30.811 15.2439 24.2017 21.8532 16.0486 21.8532V21.8532L16.0486 7.09082L30.811 7.09082Z" fill="black"/>
<path d="M15.2197 22.6819L15.2197 37.4443L0.457338 37.4443L0.457339 22.6819L15.2197 22.6819Z" fill="black"/>
<path d="M16.0488 22.6819V22.6819C24.2019 22.6819 30.8112 29.2912 30.8112 37.4443V37.4443H16.0488L16.0488 22.6819Z" fill="black"/>
<path d="M59.1351 37.5H52.4151L44.3511 28.512V37.5H38.9751V7.26H44.3511V24.606L51.7431 16.668H58.4631L49.0551 26.37L59.1351 37.5ZM69.8753 16.332C76.2593 16.332 80.6273 21.162 80.6273 27.084C80.6273 33.006 76.2593 37.836 69.8753 37.836C63.3653 37.836 59.1233 33.006 59.1233 27.084C59.1233 21.162 63.0713 16.332 69.8753 16.332ZM69.8753 32.796C72.9833 32.796 75.2513 30.234 75.2513 27.084C75.2513 23.934 72.9833 21.372 69.8753 21.372C66.7673 21.372 64.4993 23.934 64.4993 27.084C64.4993 30.234 66.7673 32.796 69.8753 32.796ZM84.0103 10.956C84.0103 9.066 85.3963 7.596 87.3703 7.596C89.3863 7.596 90.7303 9.066 90.7303 10.956C90.7303 12.846 89.3863 14.316 87.3703 14.316C85.3963 14.316 84.0103 12.846 84.0103 10.956ZM79.3063 41.868C81.7843 42.708 84.6823 41.952 84.6823 38.004V16.668C85.3963 17.046 86.4043 17.298 87.3703 17.298C88.3363 17.298 89.3443 17.046 90.0583 16.668V37.5C90.0583 44.934 86.3623 47.244 82.1623 47.244C81.2803 47.244 80.5243 47.118 79.9783 46.908L79.3063 41.868ZM104.205 16.332C110.589 16.332 114.957 21.162 114.957 27.084C114.957 33.006 110.589 37.836 104.205 37.836C97.6954 37.836 93.4534 33.006 93.4534 27.084C93.4534 21.162 97.4014 16.332 104.205 16.332ZM104.205 32.796C107.313 32.796 109.581 30.234 109.581 27.084C109.581 23.934 107.313 21.372 104.205 21.372C101.097 21.372 98.8294 23.934 98.8294 27.084C98.8294 30.234 101.097 32.796 104.205 32.796Z" fill="black"/>
</svg>
