<svg width="84" height="32" viewBox="0 0 84 32" fill="none" xmlns="http://www.w3.org/2000/svg">
<path d="M56.4746 32V0H66.2534L77.9336 27.5455C78.0241 27.7727 78.2052 28 78.5221 27.9091C78.9749 27.7727 78.9296 27.4091 78.7938 27.0455C78.341 25.8182 77.8431 24.7273 77.8431 23.2727V0H84.0001V32H74.2213L62.5411 4.45455C62.4505 4.22727 62.2694 4 61.9525 4.09091C61.4998 4.22727 61.5451 4.59091 61.6809 4.95455C62.1336 6.18182 62.6316 7.27273 62.6316 8.72727V32H56.4746Z" fill="black"/>
<path d="M0 32V25.8182L16.2527 7.36364C16.9318 6.63636 17.7919 6.04545 18.5163 5.77273C18.7427 5.68182 19.0596 5.5 18.8785 5.04545C18.7427 4.68182 18.3805 4.72727 18.1088 4.86364C17.3845 5.22727 16.4338 5.45455 15.6189 5.45455H0V0H25.3524V6.18182L9.0997 24.6364C8.46589 25.3636 7.56044 25.9091 6.83609 26.2273C6.60973 26.3182 6.29282 26.5 6.47391 26.9545C6.60973 27.3182 6.97191 27.2727 7.24354 27.1364C7.96789 26.8182 8.91861 26.5455 9.73351 26.5455H25.3524V32H0Z" fill="black"/>
<path fill-rule="evenodd" clip-rule="evenodd" d="M37.0303 0C35.5266 0 34.3077 1.21892 34.3077 2.72254C34.3077 4.22616 35.5266 5.44508 37.0303 5.44508H45.0905C46.5942 5.44508 47.8131 4.22616 47.8131 2.72254C47.8131 1.21892 46.5941 0 45.0905 0H37.0303ZM31.714 15.9995C31.714 14.4959 32.9329 13.277 34.4366 13.277H47.6843C49.1879 13.277 50.4068 14.4959 50.4068 15.9995C50.4068 17.5032 49.1879 18.7221 47.6842 18.7221H34.4365C32.9329 18.7221 31.714 17.5032 31.714 15.9995ZM28.167 29.2775C28.167 27.7738 29.3859 26.5549 30.8895 26.5549H51.2313C52.7349 26.5549 53.9538 27.7738 53.9538 29.2775C53.9538 30.7811 52.7349 32 51.2313 32H30.8895C29.3859 32 28.167 30.7811 28.167 29.2775Z" fill="url(#paint0_linear_741_155965)"/>
<defs>
<linearGradient id="paint0_linear_741_155965" x1="41.0604" y1="42.8901" x2="41.0604" y2="-1.91248e-07" gradientUnits="userSpaceOnUse">
<stop/>
<stop offset="0.93018" stop-color="#4C007B"/>
</linearGradient>
</defs>
</svg>
