<svg width="130" height="56" viewBox="0 0 130 56" fill="none" xmlns="http://www.w3.org/2000/svg">
<path d="M0.45752 10.616H14.4489V24.6074H0.45752L0.45752 10.616Z" fill="black"/>
<path d="M29.2256 10.616V10.616C29.2256 18.3432 22.9614 24.6074 15.2342 24.6074V24.6074L15.2342 10.616L29.2256 10.616Z" fill="black"/>
<path d="M14.4492 25.3926L14.4492 39.384L0.457811 39.384L0.457813 25.3926L14.4492 25.3926Z" fill="black"/>
<path d="M15.2344 25.3926V25.3926C22.9616 25.3926 29.2258 31.6567 29.2258 39.384V39.384H15.2344L15.2344 25.3926Z" fill="black"/>
<path d="M63.4363 44H55.4363L45.8363 33.3V44H39.4363V8H45.8363V28.65L54.6363 19.2H62.6363L51.4363 30.75L63.4363 44ZM76.2223 18.8C83.8223 18.8 89.0223 24.55 89.0223 31.6C89.0223 38.65 83.8223 44.4 76.2223 44.4C68.4723 44.4 63.4223 38.65 63.4223 31.6C63.4223 24.55 68.1223 18.8 76.2223 18.8ZM76.2223 38.4C79.9223 38.4 82.6223 35.35 82.6223 31.6C82.6223 27.85 79.9223 24.8 76.2223 24.8C72.5223 24.8 69.8223 27.85 69.8223 31.6C69.8223 35.35 72.5223 38.4 76.2223 38.4ZM93.0496 12.4C93.0496 10.15 94.6996 8.4 97.0496 8.4C99.4496 8.4 101.05 10.15 101.05 12.4C101.05 14.65 99.4496 16.4 97.0496 16.4C94.6996 16.4 93.0496 14.65 93.0496 12.4ZM87.4496 49.2C90.3996 50.2 93.8496 49.3 93.8496 44.6V19.2C94.6996 19.65 95.8996 19.95 97.0496 19.95C98.1996 19.95 99.3996 19.65 100.25 19.2V44C100.25 52.85 95.8496 55.6 90.8496 55.6C89.7996 55.6 88.8996 55.45 88.2496 55.2L87.4496 49.2ZM117.091 18.8C124.691 18.8 129.891 24.55 129.891 31.6C129.891 38.65 124.691 44.4 117.091 44.4C109.341 44.4 104.291 38.65 104.291 31.6C104.291 24.55 108.991 18.8 117.091 18.8ZM117.091 38.4C120.791 38.4 123.491 35.35 123.491 31.6C123.491 27.85 120.791 24.8 117.091 24.8C113.391 24.8 110.691 27.85 110.691 31.6C110.691 35.35 113.391 38.4 117.091 38.4Z" fill="black"/>
</svg>
