<svg width="81" height="81" viewBox="0 0 81 81" fill="none" xmlns="http://www.w3.org/2000/svg">
<g clip-path="url(#clip0_741_124736)">
<path d="M40.35 79.3921C61.7725 79.3921 79.1389 62.0498 79.1389 40.657C79.1389 19.2642 61.7725 1.92188 40.35 1.92188C18.9274 1.92188 1.56104 19.2642 1.56104 40.657C1.56104 62.0498 18.9274 79.3921 40.35 79.3921Z" fill="#F7F8FA"/>
<path d="M40.3496 1.92193C48.0213 1.92193 55.5208 4.1937 61.8995 8.44994C68.2784 12.7063 73.25 18.7559 76.1859 25.8338C79.1217 32.9116 79.8899 40.7 78.3932 48.2139C76.8965 55.7278 73.2022 62.6297 67.7775 68.0469C62.3528 73.4641 55.4413 77.1533 47.917 78.6479C40.3926 80.1425 32.5934 79.3754 25.5057 76.4436C18.418 73.5118 12.36 68.5471 8.09778 62.1772C3.83561 55.8072 1.56068 48.3182 1.56068 40.657C1.56068 30.3839 5.64735 20.5314 12.9217 13.2672C20.196 6.00294 30.0621 1.92193 40.3496 1.92193ZM40.3496 0.826172C32.4609 0.826172 24.7493 3.16221 18.19 7.53887C11.6308 11.9155 6.51844 18.1363 3.49955 25.4145C0.480661 32.6926 -0.309219 40.7012 1.2298 48.4277C2.76882 56.1541 6.56761 63.2512 12.1458 68.8218C17.724 74.3922 24.831 78.1857 32.5682 79.7226C40.3054 81.2595 48.3251 80.4707 55.6134 77.456C62.9016 74.4413 69.131 69.336 73.5138 62.7859C77.8965 56.2357 80.2358 48.5349 80.2358 40.657C80.2242 30.0968 76.0181 19.9724 68.5405 12.5051C61.063 5.03795 50.9245 0.837772 40.3496 0.826172Z" fill="#1C171E"/>
<path d="M14.0751 65.1421L15.4082 64.1176C15.7484 63.8601 16.0886 63.6081 16.4342 63.3725C16.1215 63.515 15.7265 63.6793 15.2381 63.8765L13.5922 64.5231L12.9942 63.7396L14.0421 62.3205C14.3549 61.8987 14.6182 61.559 14.8376 61.296C14.5195 61.5645 14.1902 61.8439 13.8501 62.0904L12.5169 63.115L12.0396 62.4904L14.7828 60.3975L15.5948 61.4549L14.6182 62.737C14.3494 63.0931 14.0696 63.4327 13.8007 63.7451C14.1573 63.5642 14.5524 63.3889 14.9803 63.1972L16.4616 62.6164L17.2736 63.6738L14.5304 65.7668L14.0751 65.1421Z" fill="#1C171E"/>
<path d="M19.4198 65.9795C19.5045 66.2562 19.5045 66.552 19.4198 66.8288C19.3065 67.1431 19.1182 67.4253 18.8711 67.6505C18.6472 67.8942 18.369 68.0818 18.0591 68.1984C17.7858 68.2953 17.4897 68.3087 17.2088 68.2368C16.9109 68.1556 16.6402 67.9968 16.4242 67.7765C16.1984 67.5666 16.0336 67.2997 15.9469 67.004C15.8621 66.7273 15.8621 66.4316 15.9469 66.1549C16.0629 65.8419 16.2509 65.5604 16.4955 65.333C16.7194 65.0893 16.9976 64.9017 17.3075 64.7851C17.5809 64.6882 17.8769 64.6749 18.1579 64.7467C18.457 64.8277 18.7283 64.9887 18.9424 65.2125C19.1669 65.4213 19.3317 65.686 19.4198 65.9795ZM17.8177 65.5193C17.5532 65.5975 17.3134 65.7425 17.1212 65.9402C16.929 66.1379 16.791 66.3815 16.7204 66.6479C16.703 66.7595 16.714 66.8737 16.7524 66.98C16.7908 67.0862 16.8552 67.1812 16.9399 67.2561C17.0159 67.3385 17.1117 67.4004 17.2183 67.4358C17.3248 67.4713 17.4385 67.4792 17.5489 67.4588C17.8128 67.381 18.0522 67.2369 18.2444 67.0402C18.4364 66.8436 18.5748 66.601 18.6462 66.3356C18.6642 66.2245 18.6541 66.1106 18.6167 66.0043C18.5794 65.8981 18.5159 65.8029 18.4322 65.7275C18.3549 65.6448 18.2584 65.5826 18.1512 65.5462C18.0439 65.5099 17.9294 65.5006 17.8177 65.5193Z" fill="#1C171E"/>
<path d="M20.0116 70.736L20.3573 69.2951C20.478 68.7855 20.6097 68.3089 20.7468 67.8651C20.456 68.287 20.1982 68.6814 19.902 69.0375L19.1174 70.0566L18.481 69.569L20.5603 66.8296L21.5204 67.5582L21.1803 69.0047C21.0485 69.5526 20.9224 70.0018 20.7907 70.4347C21.0321 70.0785 21.3394 69.6895 21.6411 69.2622L22.4092 68.2486L23.0456 68.7362L20.9608 71.4756L20.0116 70.736Z" fill="#1C171E"/>
<path d="M21.9751 72.0948L23.7966 69.1855L24.5043 69.6239L22.6828 72.5386L21.9751 72.0948Z" fill="#1C171E"/>
<path d="M26.2764 71.4143L25.0146 73.8305L24.2739 73.4469L25.5358 71.0253L24.6031 70.5432L24.9323 69.9131L27.5383 71.2664L27.2091 71.8964L26.2764 71.4143Z" fill="#1C171E"/>
<path d="M30.0342 72.413C30.2117 72.6403 30.3185 72.9146 30.3414 73.2019C30.3653 73.5309 30.3127 73.8608 30.1878 74.1662C30.0692 74.4763 29.8816 74.7554 29.6392 74.9825C29.4274 75.1783 29.1618 75.3062 28.8766 75.3496C28.5713 75.3842 28.262 75.3445 27.9754 75.2338C27.6888 75.1231 27.4333 74.9448 27.2307 74.7141C27.0501 74.4881 26.9412 74.2134 26.9179 73.9252C26.9002 73.5964 26.9527 73.2676 27.0718 72.9606C27.191 72.6536 27.3742 72.3755 27.6092 72.1446C27.8204 71.9471 28.0861 71.8173 28.3718 71.772C28.6774 71.7404 28.9863 71.782 29.2725 71.8935C29.5588 72.005 29.8143 72.1831 30.0178 72.413H30.0342ZM28.3883 72.6157C28.1617 72.7794 27.9942 73.0119 27.9109 73.2787C27.7953 73.5305 27.7627 73.8125 27.8177 74.084C27.8498 74.193 27.9066 74.293 27.9837 74.3765C28.0608 74.4599 28.156 74.5246 28.2621 74.5654C28.3682 74.6061 28.4823 74.622 28.5955 74.6117C28.7087 74.6014 28.818 74.5652 28.915 74.5059C29.1415 74.3444 29.3091 74.1137 29.3923 73.8484C29.5076 73.5945 29.5403 73.3109 29.4856 73.0376C29.4525 72.9293 29.3952 72.83 29.318 72.7471C29.2408 72.6643 29.1457 72.6001 29.0399 72.5595C28.9342 72.5188 28.8205 72.5027 28.7076 72.5125C28.5947 72.5222 28.4855 72.5575 28.3883 72.6157Z" fill="#1C171E"/>
<path d="M33.7486 74.3514C33.7071 74.5379 33.6027 74.7044 33.4529 74.823C33.303 74.9418 33.1169 75.0055 32.9256 75.0034C33.0294 75.0698 33.1114 75.165 33.1615 75.2773C33.2207 75.4545 33.2558 75.6387 33.2658 75.8252L33.3591 76.795L32.4867 76.5704L32.4319 75.754C32.4286 75.6078 32.389 75.4647 32.3167 75.3376C32.2334 75.2365 32.1166 75.1684 31.9875 75.1458L31.6857 75.0691L31.373 76.2799L30.561 76.0717L31.4224 72.7461L32.7775 73.0968C33.584 73.294 33.9297 73.6939 33.7486 74.3514ZM31.8394 74.4446L32.2838 74.5596C32.6294 74.6473 32.8324 74.5596 32.9202 74.2473C33.0079 73.935 32.8489 73.7707 32.4758 73.6994L32.0643 73.5953L31.8394 74.4446Z" fill="#1C171E"/>
<path d="M35.4728 74.3574L35.3796 74.9984L36.8499 75.2121L36.7512 75.886L35.2753 75.6723L35.1766 76.3571L36.7951 76.5927L36.6743 77.2995L34.2329 76.9379L34.7322 73.541L37.1352 73.8917L37.031 74.5875L35.4728 74.3574Z" fill="#1C171E"/>
<path d="M40.4604 74.4992C40.6186 74.6717 40.7388 74.8754 40.8135 75.0971C40.8881 75.3189 40.9155 75.5538 40.8938 75.7868C40.898 76.0229 40.8511 76.2573 40.7565 76.4738C40.6618 76.6903 40.5215 76.8839 40.3451 77.0413C39.9581 77.3491 39.4656 77.4926 38.9736 77.4413L37.772 77.403L37.8872 73.9678L39.1052 74.0116C39.6035 73.9907 40.0901 74.1657 40.4604 74.4992ZM38.6389 76.7181H39.0065C39.1391 76.7327 39.2734 76.7197 39.4008 76.6801C39.5282 76.6406 39.6461 76.5752 39.7471 76.488C39.9152 76.2752 40.0112 76.0145 40.0211 75.7436C40.031 75.4728 39.9542 75.2058 39.802 74.9814C39.7054 74.8882 39.5911 74.8153 39.4656 74.7674C39.3403 74.7194 39.2065 74.6971 39.0723 74.7019H38.7047L38.6389 76.7181Z" fill="#1C171E"/>
<path d="M45.1785 73.9243C45.288 73.985 45.3808 74.0718 45.4488 74.1769C45.5168 74.282 45.5577 74.4023 45.5681 74.527C45.5946 74.6995 45.5658 74.8759 45.4858 75.031C45.3874 75.1835 45.2462 75.3035 45.0798 75.3762C45.2742 75.3744 45.4618 75.4474 45.6037 75.58C45.7457 75.7126 45.8311 75.8946 45.8424 76.0885C45.8648 76.2216 45.854 76.3583 45.811 76.4863C45.7679 76.6144 45.6939 76.7299 45.5955 76.8226C45.3501 77.0395 45.0393 77.1686 44.7122 77.1897L43.2967 77.3595L42.8853 73.9517L44.2184 73.7873C44.5449 73.7298 44.8813 73.7778 45.1785 73.9243ZM43.8673 75.2392L44.3007 75.1899C44.4418 75.1817 44.5773 75.1321 44.6903 75.0475C44.7286 75.0094 44.7571 74.9625 44.7733 74.911C44.7896 74.8594 44.7931 74.8047 44.7835 74.7516C44.7802 74.6988 44.7645 74.6476 44.7378 74.6019C44.7112 74.5563 44.6743 74.5175 44.6299 74.4886C44.5071 74.436 44.3711 74.4226 44.2403 74.4502L43.7795 74.5051L43.8673 75.2392ZM44.0318 76.6254L44.4873 76.5705C44.6373 76.5702 44.7833 76.5222 44.9042 76.4336C44.9438 76.3952 44.9731 76.3474 44.9894 76.2948C45.0057 76.2422 45.0085 76.1862 44.9975 76.1322C44.995 76.0751 44.9788 76.0193 44.9501 75.9697C44.9214 75.9201 44.8813 75.8781 44.8329 75.8474C44.6951 75.786 44.5412 75.7706 44.394 75.8035L43.9551 75.8529L44.0318 76.6254Z" fill="#1C171E"/>
<path d="M48.2768 76.5597L47.4593 76.7404L47.174 75.4748L45.561 73.6449L46.4663 73.4422L46.8942 73.9901C47.0905 74.234 47.2737 74.4882 47.4429 74.7516C47.4792 74.4418 47.5342 74.1344 47.6075 73.8312L47.7665 73.1573L48.6718 72.9546L47.986 75.2995L48.2768 76.5597Z" fill="#1C171E"/>
<path d="M52.277 75.3378L50.0825 72.5162L50.8944 72.1984L51.7284 73.2942C52.0082 73.6612 52.277 74.0392 52.5239 74.4338C52.4526 74.0338 52.3923 73.5735 52.3429 73.0586L52.2112 71.6834L53.0177 71.3711L53.303 74.9432L52.277 75.3378Z" fill="#1C171E"/>
<path d="M55.1734 73.3107L55.3106 74.0613L54.5315 74.4668L53.9829 70.8781L54.954 70.374L57.5765 72.8834L56.7974 73.2888L56.2487 72.7409L55.1734 73.3107ZM55.6123 72.0505C55.2832 71.7109 54.9869 71.3931 54.729 71.1028C54.8277 71.5027 54.9156 71.9191 55.0033 72.3683L55.0472 72.6039L55.7934 72.2204L55.6123 72.0505Z" fill="#1C171E"/>
<path d="M59.8486 71.3983L58.5867 70.6148C58.1423 70.3354 57.7308 70.0669 57.3522 69.7875C57.6595 70.1984 57.9448 70.5929 58.1971 70.9655L58.9159 72.0284L58.252 72.4776L56.3208 69.6341L57.3193 68.9602L58.5812 69.7437C59.0311 70.0285 59.4426 70.3025 59.8156 70.5655C59.5578 70.2258 59.2671 69.8368 58.9707 69.3875L58.252 68.3302L58.9159 67.8809L60.8471 70.7189L59.8486 71.3983Z" fill="#1C171E"/>
<path d="M61.1858 66.889L62.9635 68.9544L62.3325 69.5023L60.5494 67.4369L59.7539 68.1217L59.2876 67.5738L61.5205 65.6562L61.9814 66.2041L61.1858 66.889Z" fill="#1C171E"/>
<path d="M64.1051 66.9111L64.4781 67.5796L63.8417 68.2151L62.1958 64.9936L62.9585 64.2046L66.2503 65.7332L65.6413 66.3688L64.9665 66.0181L64.1051 66.9111ZM64.1051 65.5798C63.6826 65.3607 63.2986 65.1579 62.9639 64.9661C63.1834 65.3113 63.4083 65.6839 63.6278 66.0619L63.7485 66.2755L64.33 65.6729L64.1051 65.5798Z" fill="#1C171E"/>
<mask id="mask0_741_124736" style="mask-type:alpha" maskUnits="userSpaceOnUse" x="10" y="10" width="61" height="61">
<path d="M40.5156 70.9543C57.1809 70.9543 70.6908 57.4631 70.6908 40.8209C70.6908 24.1787 57.1809 10.6875 40.5156 10.6875C23.8503 10.6875 10.3403 24.1787 10.3403 40.8209C10.3403 57.4631 23.8503 70.9543 40.5156 70.9543Z" fill="#C4C4C4"/>
</mask>
<g mask="url(#mask0_741_124736)">
<path d="M52.0362 82.4161C51.9448 82.3487 51.8767 82.2547 51.8413 82.1465C51.806 82.0383 51.8051 81.9218 51.8387 81.8136C51.9206 81.5515 51.9206 81.2704 51.8387 81.0081C51.7582 80.7205 51.6536 80.4401 51.5261 80.1699C51.4758 80.0889 51.4426 79.9986 51.4284 79.9044C51.4142 79.8102 51.4195 79.7141 51.4437 79.6221C51.4673 79.3508 51.4059 79.079 51.2681 78.8441C51.1201 78.5208 50.8347 77.9893 50.6427 77.6661C50.4507 77.3428 50.3794 77.1182 50.4836 77.2168L51.153 77.7045C51.4108 77.9017 51.5864 77.7757 51.5425 77.4305C51.4955 77.0747 51.382 76.7309 51.2078 76.4169C51.038 76.1629 50.8351 75.9326 50.6043 75.7321C50.4068 75.5677 50.3629 75.4307 50.5056 75.4198C50.6482 75.4088 50.6811 75.2116 50.5824 74.9869C50.4836 74.7623 50.5495 74.6308 50.7196 74.6911C50.7555 74.7086 50.7956 74.7158 50.8354 74.7121C50.8752 74.7085 50.9133 74.694 50.9455 74.6704C50.9776 74.6466 51.0027 74.6146 51.0181 74.5777C51.0333 74.5409 51.0382 74.5005 51.0322 74.461C51.0276 74.2388 50.9811 74.0195 50.8951 73.8145C50.8145 73.6381 50.7501 73.4547 50.7031 73.2667C50.6701 73.1187 50.5604 72.7735 50.4671 72.505C50.3739 72.2366 50.3794 72.0832 50.4671 72.1708C50.6193 72.3185 50.7454 72.4908 50.8402 72.6804C50.939 72.8721 50.9829 72.7955 50.939 72.505C50.8898 72.2013 50.7837 71.9095 50.6262 71.6449C50.4762 71.4156 50.3632 71.1642 50.2916 70.8998C50.2315 70.6042 50.2057 70.3027 50.2148 70.0013C50.2261 69.7267 50.2132 69.4517 50.1764 69.1794C50.0961 68.9151 49.9552 68.6731 49.7649 68.4726C49.5674 68.2699 49.518 68.1439 49.6442 68.1988C49.8429 68.3067 50.0272 68.4393 50.1928 68.5932C50.3739 68.7521 50.533 68.7795 50.544 68.648C50.5415 68.429 50.5083 68.2113 50.4452 68.0015C50.3771 67.7694 50.2571 67.5558 50.0941 67.3769C49.9624 67.2618 49.6551 66.9441 49.4083 66.6756C49.1614 66.4072 49.0352 66.2209 49.134 66.2647C49.3124 66.3217 49.4962 66.3602 49.6826 66.3798C49.7298 66.3861 49.7779 66.3822 49.8234 66.3681C49.869 66.3542 49.9109 66.3305 49.9464 66.2987C49.9819 66.267 50.0101 66.2278 50.0289 66.1842C50.0477 66.1404 50.0569 66.0931 50.0556 66.0456C50.0302 65.7757 49.9274 65.5188 49.7594 65.306C49.5488 65.03 49.3651 64.7347 49.2107 64.4239C49.0791 64.1444 49.1778 64.0896 49.4247 64.3088C49.6716 64.528 49.7978 64.5553 49.6991 64.3855C49.6061 64.2472 49.5706 64.0782 49.6003 63.9143C49.6551 63.7372 49.6756 63.5512 49.6606 63.3664C49.6355 63.1119 49.5406 62.8693 49.3863 62.6651C49.2436 62.4899 49.2272 62.3748 49.3479 62.4077C49.4686 62.4405 49.4302 62.2652 49.2711 62.0187C49.112 61.7721 49.134 61.6296 49.326 61.7064C49.518 61.7831 49.6277 61.7064 49.5619 61.6078C49.4912 61.4342 49.4703 61.2445 49.5016 61.0599C49.5054 60.7838 49.4312 60.5123 49.2876 60.2764C49.1395 60.0079 49.1285 59.8162 49.2876 59.849C49.4466 59.8819 49.4247 59.6957 49.2876 59.4381C49.1504 59.1806 49.1614 58.9834 49.326 59.0053C49.4906 59.0273 49.4686 58.8683 49.2876 58.6547C49.1066 58.441 49.0736 58.315 49.2272 58.3807C49.3808 58.4465 49.3863 58.3314 49.2272 58.1287C49.0681 57.926 49.1449 57.789 49.3479 57.8328C49.5509 57.8767 49.5454 57.7781 49.3479 57.6191C49.2442 57.5432 49.1575 57.4465 49.0933 57.3351C49.0291 57.2238 48.9887 57.1004 48.9748 56.9727C48.9917 56.7575 48.9917 56.5414 48.9748 56.3262C48.9529 55.9174 48.9529 55.5077 48.9748 55.0989C48.9906 54.9053 49.0507 54.7179 49.1504 54.5511C49.2609 54.4491 49.3946 54.3758 49.54 54.3374C49.6991 54.2937 49.8384 54.1971 49.935 54.0634C50.0118 53.9429 49.9734 53.8772 49.8581 53.9045C49.683 53.9226 49.5073 53.8758 49.3644 53.7731C49.262 53.6705 49.1947 53.5381 49.1724 53.395C49.1724 53.395 49.3315 53.0937 49.4851 53.1594C49.6387 53.2252 49.6606 53.0827 49.54 52.8472C49.4192 52.6116 49.4521 52.4855 49.6003 52.5732C49.7484 52.6609 49.7978 52.6061 49.6991 52.4526C49.6003 52.2993 49.6277 52.2061 49.7594 52.239C49.8911 52.2719 49.9295 52.239 49.8581 52.102C49.728 51.9526 49.5671 51.833 49.3863 51.7514C49.2964 51.7106 49.2165 51.6508 49.1521 51.576C49.0876 51.5013 49.0402 51.4134 49.0132 51.3185C49.0132 51.1706 48.9584 50.8967 48.9365 50.7104C48.9145 50.5242 48.9365 50.3652 49.0352 50.3433C49.0844 50.3134 49.1269 50.2736 49.16 50.2265C49.193 50.1793 49.2159 50.1258 49.2272 50.0694C49.2601 49.9379 49.3424 49.8338 49.4028 49.8338C49.4631 49.8338 49.529 49.7297 49.54 49.5982C49.5435 49.5358 49.5636 49.4754 49.5984 49.4234C49.6331 49.3714 49.6811 49.3296 49.7375 49.3024C49.8362 49.2695 49.8636 49.1928 49.7978 49.127C49.7826 49.11 49.7712 49.0897 49.7648 49.0678C49.7584 49.0458 49.757 49.0227 49.7606 49.0001C49.7643 48.9775 49.7731 48.956 49.7861 48.9372C49.7991 48.9184 49.8163 48.9027 49.8362 48.8914C49.8786 48.8615 49.9084 48.8169 49.9195 48.7662C49.9306 48.7155 49.9225 48.6625 49.8966 48.6175C49.8417 48.5367 49.813 48.4411 49.8142 48.3436C49.8556 48.2295 49.9168 48.1238 49.9953 48.0313C50.0776 47.9272 50.0886 47.8121 49.9953 47.7792C49.9021 47.7463 49.9295 47.604 49.9953 47.467C50.0611 47.33 50.0776 47.2204 49.9953 47.2314C49.9469 47.2305 49.9003 47.2123 49.8641 47.1802C49.8279 47.148 49.8043 47.104 49.7978 47.0561C49.7845 46.924 49.8196 46.7917 49.8966 46.6835C49.9734 46.5849 49.9898 46.4698 49.935 46.426C49.8624 46.302 49.8353 46.1568 49.8581 46.0151C49.8581 45.8343 49.8033 45.7356 49.721 45.8014C49.6387 45.8671 49.5783 45.8014 49.6003 45.626C49.6175 45.4054 49.6175 45.1838 49.6003 44.9631C49.6003 44.7549 49.5345 44.6399 49.4796 44.7057C49.4247 44.7714 49.3479 44.744 49.3041 44.6454C49.2731 44.468 49.2694 44.287 49.2931 44.1085C49.2931 43.9222 49.2327 43.8619 49.1778 43.9715C49.123 44.081 49.0187 44.0482 48.9419 43.9113C48.8421 43.734 48.7302 43.5638 48.6072 43.4017C48.4597 43.2191 48.2902 43.0553 48.1025 42.9141C47.927 42.7826 47.7843 42.7662 47.7843 42.8757C47.7843 42.9853 47.6636 43.0182 47.51 42.9524C47.3421 42.8766 47.1791 42.7906 47.0217 42.6949C46.8646 42.6127 46.6886 42.573 46.5115 42.5799C46.3523 42.5799 46.292 42.7607 46.3743 42.9524C46.4566 43.1442 46.4786 43.314 46.4127 43.325C46.2596 43.3194 46.108 43.2918 45.9628 43.2428C45.7817 43.1935 45.6995 43.2428 45.7872 43.325C45.8255 43.3754 45.8462 43.437 45.8462 43.5003C45.8462 43.5636 45.8255 43.6252 45.7872 43.6757C45.7104 43.7743 45.7872 43.9113 45.9628 43.9879C46.1384 44.0646 46.2316 44.1961 46.1768 44.2837C46.1172 44.4333 46.1172 44.6 46.1768 44.7495C46.2474 44.9576 46.2808 45.1763 46.2756 45.3959C46.2756 45.5823 46.1932 45.7466 46.1164 45.7685C46.0396 45.7905 46.0067 45.9822 46.0396 46.2013C46.0726 46.4205 46.0396 46.5904 45.9409 46.5904C45.8421 46.5904 45.7379 46.7657 45.683 46.9848C45.6281 47.204 45.5349 47.2916 45.4691 47.1985C45.4325 47.1467 45.386 47.1027 45.3323 47.0688C45.2786 47.0349 45.2189 47.012 45.1563 47.0013C45.1026 46.9967 45.0509 46.9782 45.0066 46.9474C44.9623 46.9166 44.9269 46.8747 44.9039 46.826C44.8866 46.7829 44.8561 46.7463 44.8166 46.7217C44.7771 46.6971 44.7309 46.6857 44.6845 46.689C44.6021 46.689 44.4925 46.5849 44.4486 46.4369C44.4046 46.289 44.295 46.1685 44.1962 46.1794C44.0974 46.1904 43.9657 46.0261 43.8999 45.8069C43.8341 45.5878 43.686 45.5055 43.5707 45.6151C43.4556 45.7247 43.3184 45.6919 43.2745 45.5549C43.2306 45.4179 43.1373 45.3795 43.0605 45.4782C42.9837 45.5768 42.7971 45.5274 42.649 45.3795C42.6204 45.3436 42.5847 45.314 42.5441 45.2924C42.5036 45.2709 42.4591 45.2579 42.4132 45.2542C42.3674 45.2506 42.3214 45.2566 42.2779 45.2715C42.2345 45.2864 42.1946 45.3101 42.1607 45.3412C42.0401 45.4672 41.9083 45.4837 41.8645 45.3795C41.8206 45.2754 41.7163 45.2973 41.6286 45.4343C41.6089 45.466 41.5814 45.4922 41.5487 45.5104C41.5161 45.5285 41.4794 45.538 41.442 45.538C41.4046 45.538 41.3679 45.5285 41.3352 45.5104C41.3026 45.4922 41.2751 45.466 41.2555 45.4343C41.1402 45.3028 41.0196 45.2042 40.9921 45.2152C40.9595 45.2207 40.9261 45.2207 40.8934 45.2152C40.8934 45.2152 40.7507 45.3028 40.6301 45.4343C40.6103 45.466 40.5829 45.4922 40.5502 45.5104C40.5176 45.5285 40.4808 45.538 40.4435 45.538C40.4061 45.538 40.3694 45.5285 40.3367 45.5104C40.3041 45.4922 40.2766 45.466 40.257 45.4343C40.1746 45.2973 40.0649 45.27 40.0265 45.3795C39.9881 45.4891 39.851 45.4672 39.7302 45.3412C39.6964 45.3101 39.6565 45.2864 39.6131 45.2715C39.5696 45.2566 39.5236 45.2506 39.4777 45.2542C39.432 45.2579 39.3874 45.2709 39.3468 45.2924C39.3062 45.314 39.2706 45.3436 39.242 45.3795C39.0883 45.5274 38.9073 45.5713 38.8305 45.4782C38.7536 45.385 38.6549 45.4124 38.6165 45.5549C38.5781 45.6973 38.441 45.7192 38.3202 45.6151C38.1996 45.511 38.0514 45.6151 37.9856 45.8069C37.9197 45.9986 37.7881 46.1904 37.6948 46.1794C37.6016 46.1685 37.4808 46.2835 37.4369 46.4369C37.3931 46.5904 37.2888 46.7 37.201 46.689C37.1554 46.686 37.11 46.6976 37.0715 46.7223C37.033 46.7469 37.0034 46.7833 36.9871 46.826C36.9628 46.8737 36.9271 46.9148 36.8831 46.9455C36.839 46.976 36.788 46.9952 36.7346 47.0013C36.6719 47.0114 36.6119 47.0341 36.5581 47.068C36.5044 47.1019 36.4581 47.1463 36.422 47.1985C36.3561 47.2916 36.2573 47.1985 36.2025 46.9848C36.1476 46.7711 36.0379 46.5904 35.9501 46.5904C35.8623 46.5904 35.8185 46.415 35.8514 46.2013C35.8843 45.9877 35.8514 45.7905 35.7746 45.7685C35.6977 45.7466 35.6264 45.5823 35.6155 45.3959C35.6101 45.1763 35.6436 44.9576 35.7142 44.7495C35.7706 44.5994 35.7706 44.4339 35.7142 44.2837C35.6593 44.1961 35.7526 44.0646 35.9281 43.9879C36.1037 43.9113 36.1806 43.7743 36.1037 43.6757C36.0636 43.626 36.0418 43.5641 36.0418 43.5003C36.0418 43.4365 36.0636 43.3747 36.1037 43.325C36.1861 43.2264 36.1037 43.1935 35.9226 43.2428C35.7777 43.2926 35.6261 43.3203 35.4728 43.325C35.407 43.325 35.4289 43.1442 35.5112 42.9524C35.5935 42.7607 35.5112 42.5908 35.3741 42.5799C35.1986 42.5738 35.0246 42.6134 34.8693 42.6949C34.7106 42.7917 34.5457 42.8778 34.3755 42.9524C34.2274 43.0182 34.1012 42.9524 34.1012 42.8757C34.1012 42.7991 33.9641 42.7826 33.7885 42.9141C33.6004 43.0567 33.4292 43.2203 33.2782 43.4017C33.157 43.5638 33.047 43.7341 32.9491 43.9113C32.8722 44.0482 32.768 44.0756 32.7131 43.9715C32.6582 43.8674 32.6034 43.9222 32.5924 44.1085C32.5841 44.2803 32.5509 44.4502 32.4936 44.6125C32.4553 44.7111 32.373 44.7385 32.3181 44.6728C32.2632 44.607 32.2139 44.722 32.2029 44.9303C32.1859 45.151 32.1859 45.3726 32.2029 45.5932C32.2029 45.7521 32.1755 45.8342 32.0876 45.7685C31.9999 45.7028 31.9396 45.8014 31.9506 45.9822C31.9734 46.1239 31.9462 46.2691 31.8737 46.3931C31.8188 46.4369 31.8353 46.552 31.9121 46.6506C31.9891 46.7588 32.0242 46.8911 32.0109 47.0232C32.0043 47.0711 31.9808 47.1151 31.9446 47.1473C31.9084 47.1795 31.8618 47.1976 31.8134 47.1985C31.7256 47.1985 31.7256 47.2916 31.8134 47.4341C31.9011 47.5765 31.9066 47.7135 31.8134 47.7463C31.7201 47.7792 31.7421 47.8943 31.8134 47.9984C31.8906 48.0909 31.9501 48.1967 31.9889 48.3107C31.9926 48.4078 31.9657 48.5035 31.9121 48.5846C31.8861 48.6296 31.878 48.6826 31.8891 48.7333C31.9003 48.784 31.9301 48.8286 31.9725 48.8586C31.9916 48.8705 32.0081 48.8865 32.0206 48.9053C32.0331 48.9241 32.0414 48.9454 32.0451 48.9677C32.0486 48.99 32.0475 49.0128 32.0416 49.0346C32.0357 49.0564 32.0252 49.0767 32.0109 49.0941C31.9451 49.1599 31.9725 49.2366 32.0712 49.2695C32.1258 49.2984 32.1721 49.3406 32.2058 49.3925C32.2394 49.4442 32.2591 49.5037 32.2632 49.5653C32.2632 49.6968 32.3346 49.8009 32.4004 49.8009C32.4662 49.8009 32.5486 49.905 32.576 50.0365C32.5872 50.0937 32.6107 50.1477 32.6448 50.1949C32.6789 50.2423 32.7228 50.2817 32.7735 50.3105C32.8503 50.3105 32.8941 50.4967 32.8722 50.6775C32.8503 50.8584 32.8174 51.1377 32.7954 51.2857C32.7675 51.38 32.7197 51.4674 32.6554 51.5421C32.5911 51.6167 32.5116 51.6768 32.4223 51.7185C32.2407 51.7986 32.0795 51.9184 31.9506 52.0692C31.8737 52.1787 31.9176 52.239 32.0493 52.2062C32.181 52.1733 32.2029 52.2719 32.1096 52.4198C32.0164 52.5677 32.0547 52.6225 32.2084 52.5404C32.362 52.4581 32.384 52.5787 32.2632 52.8142C32.1426 53.0498 32.17 53.1923 32.3236 53.1265C32.4772 53.0608 32.6144 53.1649 32.6363 53.3621C32.6582 53.5594 32.5924 53.6306 32.4388 53.7402C32.2983 53.8435 32.1241 53.8905 31.9506 53.8717C31.8353 53.8717 31.7969 53.91 31.8737 54.0305C31.9692 54.1628 32.1064 54.2593 32.2632 54.3045C32.4107 54.3417 32.5466 54.4152 32.6582 54.5182C32.7557 54.686 32.8156 54.8729 32.8338 55.066C32.8558 55.4749 32.8558 55.8845 32.8338 56.2933C32.8168 56.5084 32.8168 56.7246 32.8338 56.9398C32.8213 57.0679 32.7816 57.1918 32.7172 57.3033C32.6529 57.4147 32.5654 57.5113 32.4607 57.5863C32.2468 57.7452 32.2413 57.8438 32.4607 57.8C32.6802 57.7561 32.7186 57.8876 32.576 58.0958C32.4333 58.304 32.4443 58.4136 32.576 58.3479C32.7076 58.2821 32.7021 58.4081 32.5156 58.6218C32.3291 58.8354 32.3181 58.9944 32.4772 58.9724C32.6363 58.9505 32.6582 59.1478 32.5156 59.4052C32.373 59.6628 32.3785 59.849 32.5156 59.8162C32.6528 59.7833 32.6473 59.975 32.5156 60.2435C32.3708 60.4792 32.2948 60.7505 32.2961 61.027C32.3291 61.2111 32.3101 61.4009 32.2413 61.5749C32.1755 61.7009 32.2797 61.7447 32.4717 61.6735C32.6637 61.6023 32.6966 61.7392 32.5321 61.9857C32.3675 62.2323 32.3346 62.4076 32.4553 62.3748C32.576 62.3419 32.5541 62.4569 32.4169 62.6323C32.2626 62.8364 32.1677 63.079 32.1426 63.3335C32.1292 63.5179 32.1477 63.7034 32.1974 63.8814C32.2269 64.0446 32.1936 64.2129 32.1041 64.3526C32.0054 64.5225 32.1041 64.4896 32.3785 64.2759C32.6528 64.0623 32.7186 64.1115 32.5924 64.391C32.4379 64.7017 32.2542 64.9971 32.0438 65.2731C31.8796 65.4876 31.7789 65.7439 31.753 66.0127C31.7518 66.0602 31.7609 66.1075 31.7798 66.1513C31.7986 66.195 31.8268 66.2341 31.8623 66.2658C31.8977 66.2976 31.9397 66.3213 31.9852 66.3353C32.0308 66.3493 32.0789 66.3533 32.1261 66.3469C32.3124 66.3274 32.4962 66.2888 32.6747 66.2318C32.768 66.188 32.6473 66.3743 32.4004 66.6428C32.1535 66.9112 31.8517 67.229 31.7146 67.344C31.5498 67.5225 31.4279 67.7361 31.358 67.9686C31.299 68.1791 31.2676 68.3965 31.2647 68.6151C31.2647 68.7466 31.4293 68.7192 31.6158 68.5604C31.7813 68.4062 31.9656 68.2738 32.1645 68.1659C32.2961 68.1111 32.2413 68.2371 32.0493 68.4398C31.8589 68.6402 31.7181 68.8822 31.6378 69.1465C31.601 69.4188 31.5881 69.6939 31.5994 69.9684C31.6057 70.2697 31.58 70.571 31.5226 70.8669C31.4485 71.1305 31.3357 71.3815 31.1879 71.612C31.0281 71.8755 30.9218 72.1678 30.8751 72.4722C30.8313 72.7626 30.8751 72.8392 30.974 72.6475C31.067 72.4583 31.1912 72.286 31.3416 72.138C31.4512 72.0503 31.4622 72.2037 31.3416 72.4722C31.2497 72.7218 31.171 72.976 31.1056 73.2338C31.0566 73.422 30.9905 73.6053 30.9081 73.7816C30.8247 73.9874 30.7783 74.2063 30.771 74.4281C30.7662 74.4678 30.7722 74.5081 30.7883 74.5447C30.8044 74.5813 30.83 74.613 30.8624 74.6365C30.8948 74.66 30.933 74.6744 30.9728 74.6782C31.0126 74.6819 31.0528 74.6751 31.0891 74.6582C31.2592 74.598 31.3196 74.7295 31.2263 74.9541C31.1331 75.1787 31.1605 75.376 31.3031 75.387C31.4458 75.3979 31.3964 75.5348 31.2044 75.6992C31.024 75.925 30.8711 76.1715 30.749 76.4333C30.5768 76.7477 30.4651 77.0915 30.4198 77.4469C30.3759 77.7921 30.5515 77.9181 30.8093 77.7209L31.4732 77.2333C31.5829 77.1566 31.5116 77.3593 31.3196 77.6825C31.1276 78.0058 30.8422 78.5372 30.6941 78.8605C30.5581 79.0962 30.4951 79.3669 30.5131 79.6385C30.5385 79.7302 30.5447 79.8261 30.5316 79.9203C30.5183 80.0146 30.4859 80.1052 30.4363 80.1864C30.3063 80.4555 30.2016 80.7361 30.1236 81.0246C30.0388 81.2864 30.0388 81.5681 30.1236 81.8303C30.1572 81.9384 30.1564 82.0549 30.121 82.1631C30.0856 82.2705 30.0175 82.3653 29.9261 82.4328C29.734 82.6083 30.7545 82.7506 32.1919 82.7506H49.7375C51.1804 82.734 52.2009 82.5917 52.0362 82.4161Z" fill="#C6C2DF"/>
<path d="M44.235 52.3539C44.235 52.3539 43.7194 50.2884 45.5628 49.3515C43.4505 49.8227 43.1762 52.9182 43.1762 52.9182C42.7093 51.1289 42.8031 49.2396 43.445 47.5052C41.5906 49.0941 41.7991 52.4908 41.7991 52.4908L40.9816 46.3491L40.1477 52.4908C40.1477 52.4908 40.3671 49.0941 38.5018 47.5052C39.1436 49.2396 39.2375 51.1289 38.7706 52.9182C38.7706 52.9182 38.4963 49.8227 36.384 49.3515C38.2275 50.2884 37.7117 52.3539 37.7117 52.3539C36.683 51.4551 35.3464 50.9879 33.981 51.0499C36.5815 51.6691 36.4828 52.3594 37.58 53.5921C38.6445 53.4387 39.7746 52.9182 40.9652 52.9182C42.1557 52.9182 43.286 53.4661 44.3503 53.5921C45.4475 52.3594 45.3433 51.6691 47.9494 51.0499C46.5895 50.9922 45.2595 51.4591 44.235 52.3539Z" fill="white"/>
<path d="M47.3181 43.8729C47.3181 43.7085 47.4223 43.6264 47.5211 43.6921C47.6972 43.798 47.8805 43.8914 48.0697 43.9715C48.2841 44.0662 48.4547 44.2385 48.547 44.4537C48.6019 44.629 48.7007 44.7166 48.7665 44.6509C48.8323 44.5851 48.9695 44.8043 49.0682 45.133C49.1889 45.5834 49.2697 46.0436 49.3096 46.5082C49.3418 46.9581 49.3086 47.4102 49.2108 47.8505C49.1231 48.1574 48.9969 48.6175 48.9311 48.8696C48.8815 49.0849 48.8192 49.2971 48.7445 49.5051C48.6837 49.6246 48.5953 49.7278 48.4867 49.8065C48.4309 49.8362 48.3687 49.8517 48.3056 49.8517C48.2424 49.8517 48.1802 49.8362 48.1246 49.8065C48.0258 49.7516 48.0422 49.6421 48.163 49.5654C48.305 49.4595 48.3996 49.302 48.4263 49.1271C48.4263 48.9627 48.355 48.9079 48.2233 49.0065C48.0616 49.1138 47.8679 49.1621 47.6747 49.1435C47.5101 49.1435 47.5101 49.0449 47.6747 48.9682C47.8757 48.8616 48.0604 48.727 48.2233 48.5682C48.366 48.4258 48.3111 48.3874 48.1026 48.4861C47.8344 48.6022 47.5522 48.6833 47.2632 48.7271C47.0108 48.76 46.8462 48.6943 46.9011 48.5847C47.0169 48.4325 47.1784 48.3212 47.3619 48.2669C47.5815 48.1817 47.772 48.0353 47.9106 47.845C48.0203 47.6807 47.9435 47.6204 47.735 47.7081C47.5395 47.7899 47.3377 47.8559 47.1315 47.9053C47.0108 47.9053 46.9943 47.8122 47.0931 47.6478C47.1918 47.4835 47.0931 47.3575 46.934 47.3684C46.7749 47.3793 46.7804 47.2917 47.0108 47.1656C47.2588 47.0611 47.4773 46.8974 47.6472 46.689C47.735 46.5356 47.6472 46.4205 47.4058 46.4315C47.1644 46.4425 46.9998 46.3494 46.9888 46.2288C46.9779 46.1083 47.137 45.9111 47.3455 45.7905C47.554 45.67 47.7076 45.4891 47.6857 45.3905C47.6637 45.2919 47.5211 45.2372 47.3674 45.27C47.2138 45.3029 47.1754 45.1878 47.2852 45.0125C47.3949 44.84 47.4378 44.6336 47.4058 44.4318C47.3482 44.251 47.3187 44.0625 47.3181 43.8729Z" fill="#5230D7"/>
<path d="M34.6445 43.8729C34.6445 43.7085 34.5404 43.6264 34.4415 43.6921C34.2654 43.798 34.0821 43.8914 33.8929 43.9715C33.677 44.0659 33.5047 44.2381 33.4101 44.4537C33.3553 44.629 33.2565 44.7166 33.1907 44.6509C33.1249 44.5851 32.9932 44.8043 32.8944 45.133C32.7737 45.5834 32.6929 46.0436 32.653 46.5082C32.6208 46.9581 32.6541 47.4102 32.7518 47.8505C32.8395 48.1574 32.9657 48.6175 33.0315 48.8696C33.0865 49.0852 33.1543 49.2975 33.2345 49.5051C33.2954 49.6246 33.3837 49.7278 33.4924 49.8065C33.5481 49.8362 33.6103 49.8517 33.6734 49.8517C33.7366 49.8517 33.7988 49.8362 33.8545 49.8065C33.9533 49.7516 33.9314 49.6421 33.8106 49.5654C33.6719 49.4574 33.5798 49.3006 33.5528 49.1271C33.5528 48.9627 33.6186 48.9079 33.7503 49.0065C33.9127 49.1122 34.1059 49.1604 34.2989 49.1435C34.4635 49.1435 34.4635 49.0449 34.2989 48.9682C34.0979 48.8616 33.9132 48.727 33.7503 48.5682C33.6076 48.4258 33.6625 48.3874 33.8709 48.4861C34.1392 48.6022 34.4214 48.6833 34.7104 48.7271C34.9628 48.76 35.1274 48.6943 35.067 48.5847C34.9534 48.4326 34.7937 48.3211 34.6116 48.2669C34.392 48.1817 34.2016 48.0353 34.063 47.845C33.9478 47.6807 34.0301 47.6204 34.2386 47.7081C34.4338 47.7907 34.6357 47.8567 34.8421 47.9053C34.9628 47.9053 34.9792 47.8122 34.8804 47.6478C34.7817 47.4835 34.8804 47.3575 35.0396 47.3684C35.1987 47.3793 35.1932 47.2917 34.9628 47.1656C34.7324 47.0475 34.5331 46.8766 34.3812 46.6671C34.2934 46.5137 34.3812 46.3986 34.6226 46.4096C34.864 46.4205 35.0286 46.3274 35.0396 46.2069C35.0505 46.0863 34.8914 45.8891 34.6829 45.7686C34.4744 45.648 34.3209 45.4673 34.3428 45.3686C34.3648 45.27 34.5074 45.2152 34.661 45.2481C34.8146 45.2809 34.853 45.1659 34.7379 44.9906C34.6295 44.8177 34.5885 44.6109 34.6226 44.4098C34.6559 44.2329 34.6633 44.052 34.6445 43.8729Z" fill="#5230D7"/>
<path d="M44.355 58.5835C44.2498 57.8888 44.0958 57.2023 43.8941 56.529C43.6844 55.8632 43.403 55.2221 43.0547 54.6169C42.7805 54.1731 42.4128 53.6088 42.2318 53.3623C42.0619 53.1238 41.8522 52.9161 41.6118 52.7486C41.4842 52.6687 41.3455 52.6078 41.2004 52.5679C41.1549 52.5749 41.1086 52.5749 41.0632 52.5679C41.0469 52.5646 41.0301 52.5646 41.0138 52.5679H40.9205C40.906 52.5647 40.8911 52.5647 40.8766 52.5679C40.8312 52.5749 40.785 52.5749 40.7395 52.5679C40.5943 52.6078 40.4556 52.6687 40.328 52.7486C40.0937 52.9178 39.8896 53.1253 39.7245 53.3623C39.549 53.6088 39.1759 54.1731 38.907 54.6169C38.5588 55.2221 38.2774 55.8632 38.0676 56.529C37.866 57.2023 37.712 57.8888 37.6067 58.5835C37.5467 59.1381 37.6085 59.699 37.7878 60.2272C38.0166 60.7019 38.3352 61.1279 38.726 61.4818C39.1118 61.7996 39.5356 62.0683 39.9879 62.2817C40.2427 62.4002 40.512 62.485 40.7889 62.5338H41.151C41.4278 62.485 41.6971 62.4002 41.952 62.2817C42.4042 62.0683 42.828 61.7996 43.2139 61.4818C43.6046 61.1279 43.9232 60.7019 44.152 60.2272C44.3388 59.7006 44.408 59.1397 44.355 58.5835Z" fill="white"/>
<path d="M38.9287 56.7807C38.9287 56.6382 38.8244 56.6382 38.7476 56.7807C38.7145 56.8626 38.7083 56.953 38.73 57.0387C38.7517 57.1244 38.8002 57.2009 38.8683 57.2574C38.9985 57.3764 39.149 57.471 39.3127 57.5367C39.4358 57.5815 39.5402 57.6665 39.609 57.7778C39.6518 57.8365 39.7058 57.8861 39.768 57.9237C39.8302 57.9613 39.8992 57.9862 39.9711 57.997C40.1442 58.0423 40.2945 58.1495 40.3936 58.2983C40.5065 58.4641 40.6568 58.6011 40.8325 58.6983C41.0385 58.7701 41.2628 58.7701 41.4689 58.6983C41.6719 58.6325 41.7926 58.4901 41.7487 58.3805C41.7195 58.3246 41.6719 58.2804 41.614 58.2555C41.556 58.2305 41.4912 58.2263 41.4305 58.2435C41.2545 58.2713 41.0742 58.2505 40.9092 58.1832C40.7576 58.1175 40.6169 58.0288 40.4923 57.9203C40.3977 57.8053 40.3352 57.6673 40.3112 57.5203C40.2883 57.4459 40.2427 57.3805 40.1807 57.3334C40.1187 57.2862 40.0435 57.2596 39.9656 57.2574C39.8126 57.2389 39.6578 57.2389 39.5047 57.2574C39.3828 57.2698 39.2608 57.2345 39.1646 57.1587C39.0478 57.0609 38.9652 56.9285 38.9287 56.7807Z" fill="#5230D7"/>
<path d="M41.9898 57.9209C41.8691 57.9647 41.7868 57.888 41.8087 57.7565C41.8326 57.6225 41.8956 57.4986 41.9898 57.4004C42.157 57.3057 42.3462 57.2566 42.5385 57.2579C42.6439 57.251 42.746 57.2184 42.8359 57.163C42.9257 57.1076 43.0007 57.0311 43.0541 56.9402C43.1365 56.7758 43.2242 56.7758 43.2571 56.9402C43.3009 57.1202 43.3009 57.308 43.2571 57.4881C43.2211 57.5573 43.1706 57.6181 43.1091 57.6662C43.0476 57.7144 42.9765 57.749 42.9005 57.7674C42.747 57.8003 42.5385 57.8332 42.4397 57.8442C42.2875 57.8541 42.1367 57.8798 41.9898 57.9209Z" fill="#5230D7"/>
<path d="M42.5775 55.7614C42.5023 55.6865 42.412 55.6283 42.3128 55.5906C42.2135 55.5528 42.1074 55.5363 42.0014 55.5422C41.7504 55.5449 41.5025 55.5971 41.2717 55.6956C41.1809 55.7389 41.0816 55.7614 40.9809 55.7614C40.8803 55.7614 40.7809 55.7389 40.6902 55.6956C40.4611 55.5978 40.2151 55.5457 39.9659 55.5422C39.8591 55.5366 39.7523 55.5531 39.6522 55.5908C39.5521 55.6286 39.4608 55.6866 39.3844 55.7614C39.3076 55.8819 39.4173 55.9805 39.6258 55.9805C39.8821 55.9925 40.1336 56.0538 40.3664 56.1613C40.5388 56.2433 40.7023 56.3424 40.8548 56.4571L40.9864 56.5667L41.1181 56.4571C41.2714 56.3408 41.4369 56.2416 41.6118 56.1613C41.8448 56.0538 42.0963 55.9925 42.3525 55.9805C42.55 55.9805 42.6543 55.8819 42.5775 55.7614Z" fill="#C6C2DF"/>
<path d="M43.3683 60.2217C43.1228 60.577 42.7904 60.8637 42.4028 61.0545C42.1257 61.1169 41.8399 61.1317 41.5578 61.0983C41.3713 61.0655 41.1079 60.8956 41.086 60.7203C41.0949 60.2554 41.1519 59.7927 41.2561 59.3396C41.3219 59.241 41.289 59.1753 41.1793 59.1863C41.0481 59.2026 40.9154 59.2026 40.7843 59.1863C40.6745 59.1863 40.6416 59.241 40.7074 59.3396C40.8193 59.7919 40.8836 60.2547 40.8995 60.7203C40.8995 60.8956 40.5923 61.0655 40.4057 61.0983C40.1445 61.1249 39.8806 61.1045 39.6266 61.038C39.3852 60.9723 38.9628 60.4244 38.7872 60.2107C38.6117 59.997 38.5129 60.0628 38.5458 60.2107C38.7278 60.7343 39.0892 61.1767 39.5662 61.4599C39.8127 61.5337 40.0667 61.5796 40.3234 61.5969C40.5053 61.62 40.6886 61.631 40.872 61.6298C40.9506 61.6243 41.0294 61.6243 41.1079 61.6298C41.2913 61.6313 41.4747 61.6203 41.6566 61.5969C41.914 61.5711 42.1689 61.5253 42.4192 61.4599C42.6375 61.3942 42.8407 61.2862 43.0173 61.1421C43.2789 60.8772 43.4875 60.5648 43.6317 60.2217C43.6646 60.0354 43.5055 59.997 43.3683 60.2217Z" fill="#5230D7"/>
<path d="M36.8169 57.2197C35.9576 58.1303 35.4846 59.3376 35.4968 60.5888C35.5091 61.8399 36.0057 63.0377 36.8827 63.9313C36.941 63.897 36.9908 63.8501 37.0284 63.794C37.0661 63.7378 37.0905 63.674 37.1 63.6072C37.1095 63.5403 37.1037 63.4721 37.0832 63.4078C37.0627 63.3435 37.0279 63.2846 36.9815 63.2355C36.2298 62.4356 34.9296 60.4084 36.8169 57.2197Z" fill="#5230D7"/>
<path d="M45.1454 57.2197C46.0047 58.1303 46.4778 59.3376 46.4655 60.5888C46.4532 61.8399 45.9566 63.0377 45.0796 63.9313C45.0214 63.897 44.9715 63.8501 44.9339 63.794C44.8964 63.7378 44.8719 63.674 44.8624 63.6072C44.8529 63.5403 44.8586 63.4721 44.8791 63.4078C44.8996 63.3435 44.9344 63.2846 44.9809 63.2355C45.727 62.4356 47.0328 60.4084 45.1454 57.2197Z" fill="#5230D7"/>
<path d="M32.789 52.1518C33.6407 52.1393 34.4916 52.2109 35.3292 52.3654C35.8758 52.4657 36.4034 52.6505 36.8929 52.9133C37.1568 53.0811 37.3951 53.2859 37.6006 53.5215C37.7271 53.7286 37.7865 53.9697 37.7706 54.2117C37.6833 54.5615 37.492 54.8766 37.222 55.1157C36.9013 55.4153 36.5643 55.697 36.2125 55.9595C35.9382 56.1567 35.5541 56.4088 35.3511 56.5074C35.1046 56.6362 34.828 56.6967 34.5501 56.6827C34.237 56.6256 33.9429 56.492 33.6943 56.2937C33.4529 56.0965 33.3157 56.0526 33.387 56.1951C33.4584 56.3375 33.579 56.5731 33.6614 56.743C33.8139 56.9775 33.9986 57.1895 34.2099 57.373C34.4294 57.5703 34.3855 57.658 34.1167 57.5703C33.8292 57.4715 33.5748 57.2951 33.3815 57.0607C33.2189 56.8157 33.074 56.5594 32.9481 56.2937C32.8324 56.0025 32.7496 55.6993 32.7012 55.3897C32.6678 55.1351 32.6678 54.8772 32.7012 54.6227C32.7412 54.5217 32.758 54.4132 32.7506 54.3049C32.7506 54.1954 32.6902 53.9433 32.2019 54.5733C32.1577 54.6498 32.0877 54.7081 32.0044 54.7378C31.8783 54.7925 31.5655 54.7378 31.8837 54.5733C32.2019 54.409 32.1196 54.2008 31.8289 54.3213C31.5381 54.4418 31.2089 54.4035 31.3296 54.2611C31.4503 54.1186 31.6149 54.1844 31.9386 54.0639C32.2623 53.9433 32.3062 53.7297 32.0154 53.7297C31.787 53.7539 31.5567 53.706 31.357 53.5927C31.176 53.4612 31.2364 53.3626 31.4887 53.3735C31.883 53.3504 32.2689 53.2498 32.6244 53.0777C32.9974 52.9078 31.9221 52.8695 32.2074 52.7161C32.633 52.6312 33.0712 52.6312 33.4968 52.7161C33.9192 52.7161 34.0069 52.6339 33.6833 52.4805C33.5129 52.3894 33.3267 52.3318 33.1346 52.3106C32.8768 52.2668 32.4324 52.2175 32.789 52.1518Z" fill="white"/>
<path d="M49.1714 52.1518C48.3196 52.1392 47.4687 52.2107 46.6311 52.3655C46.0831 52.4668 45.5539 52.6516 45.062 52.9133C44.7973 53.0888 44.5589 53.3009 44.3543 53.5435C44.2378 53.7461 44.1844 53.9788 44.2006 54.2119C44.2895 54.5609 44.4805 54.8756 44.7493 55.1159C45.0729 55.4142 45.4118 55.6958 45.7643 55.9596C46.0331 56.1568 46.4226 56.4088 46.6256 56.5074C46.8719 56.6367 47.1487 56.6973 47.4266 56.6828C47.7398 56.6258 48.0338 56.4921 48.2825 56.2938C48.5184 56.0966 48.6611 56.0527 48.5898 56.1952C48.5184 56.3376 48.3978 56.5732 48.3154 56.743C48.1612 56.9763 47.9767 57.1882 47.7668 57.3731C47.5474 57.5704 47.5913 57.658 47.8601 57.5704C48.1475 57.4716 48.402 57.2952 48.5953 57.0608C48.7579 56.8158 48.9027 56.5594 49.0287 56.2938C49.1526 56.0041 49.241 55.7006 49.292 55.3898C49.3309 55.1356 49.3309 54.8769 49.292 54.6228C49.2569 54.5207 49.242 54.4128 49.2481 54.305C49.2481 54.1954 49.303 53.9434 49.8242 54.5734C49.8678 54.6483 49.9354 54.7063 50.0162 54.7378C50.1479 54.7926 50.4551 54.7378 50.1424 54.5734C49.8297 54.4091 49.9065 54.2009 50.1918 54.3214C50.4771 54.442 50.8173 54.4036 50.6965 54.2611C50.5759 54.1187 50.4113 54.1845 50.0875 54.0639C49.7639 53.9434 49.7144 53.7297 50.0108 53.7297C50.2391 53.754 50.4694 53.7061 50.6691 53.5927C50.8502 53.4612 50.7898 53.3626 50.5374 53.3736C50.1414 53.3499 49.7539 53.2494 49.3963 53.0778C49.0287 52.9079 50.104 52.8696 49.8187 52.7161C49.3914 52.6306 48.9513 52.6306 48.5239 52.7161C48.1014 52.7161 48.0192 52.634 48.3429 52.4805C48.5132 52.3895 48.6994 52.3318 48.8915 52.3107C49.0835 52.2669 49.5279 52.2176 49.1714 52.1518Z" fill="white"/>
<path d="M42.8624 63.684C42.8624 63.684 42.5662 65.0975 43.6305 65.7385C42.4071 65.4098 42.2479 63.3005 42.2479 63.3005C41.979 64.5243 42.0339 65.7969 42.4071 66.9932C41.3098 65.8974 41.4634 63.5963 41.4634 63.5963L40.9806 67.7821L40.5143 63.5963C40.5143 63.5963 40.6404 65.9084 39.5706 66.9932C39.9435 65.7967 39.9964 64.5237 39.7242 63.3005C39.7242 63.3005 39.5651 65.4098 38.3417 65.7385C39.4115 65.0975 39.1153 63.684 39.1153 63.684C38.839 63.9775 38.5034 64.2089 38.1307 64.3629C37.758 64.5169 37.3567 64.5899 36.9536 64.577C38.4624 64.1551 38.402 63.684 39.0384 62.8457C39.6773 63.0535 40.3324 63.2075 40.9971 63.3059C41.6617 63.2075 42.3169 63.0535 42.9557 62.8457C43.5921 63.684 43.5044 64.1551 45.0405 64.577C44.6347 64.5922 44.2303 64.5204 43.8545 64.3663C43.4788 64.2123 43.1405 63.9796 42.8624 63.684Z" fill="#5230D7"/>
<path d="M33.8386 54.5187C33.8386 54.6228 33.6685 54.1187 33.7344 53.8338C33.7603 53.7085 33.811 53.5897 33.8835 53.4844C33.9561 53.379 34.049 53.2891 34.1568 53.2201C35.3638 52.2998 37.0318 53.768 37.114 53.9215C37.1963 54.0749 37.2731 54.6502 37.2073 54.6337C37.1414 54.6173 36.8288 53.9817 36.6587 54.1954C36.6021 54.4329 36.5269 54.6656 36.4337 54.8912C36.3788 55.0172 35.8851 55.7624 35.3858 55.8281C33.9319 56.0143 33.9319 54.4091 33.9319 54.4091C33.9098 54.4202 33.8903 54.4357 33.8743 54.4545C33.8583 54.4733 33.8461 54.4951 33.8386 54.5187Z" fill="#5230D7"/>
<path d="M34.7145 53.8646C34.9508 53.7623 35.0946 53.5692 35.0356 53.4331C34.9766 53.297 34.7372 53.2697 34.5008 53.3719C34.2645 53.4741 34.1207 53.6673 34.1797 53.8033C34.2387 53.9394 34.4782 53.9668 34.7145 53.8646Z" fill="white"/>
<path d="M34.1567 54.6982C34.2204 54.8576 34.3161 55.0022 34.4378 55.1232C34.5597 55.2441 34.705 55.3388 34.8649 55.4014C35.0248 55.4641 35.1959 55.4933 35.3676 55.4873C35.5392 55.4813 35.7078 55.4403 35.863 55.3666C35.5349 55.3899 35.206 55.3354 34.9029 55.2078C34.6206 55.0931 34.3662 54.9194 34.1567 54.6982Z" fill="white"/>
<path d="M48.1518 54.5184C48.1518 54.6225 48.3218 54.1185 48.256 53.8335C48.2301 53.7083 48.1794 53.5895 48.1068 53.4841C48.0343 53.3788 47.9413 53.2889 47.8335 53.2199C46.6265 52.2995 44.9587 53.7678 44.8708 53.9213C44.7831 54.0746 44.7173 54.6499 44.7831 54.6334C44.8489 54.617 45.1617 53.9815 45.3318 54.1951C45.3883 54.4326 45.4635 54.6653 45.5567 54.891C45.6115 55.017 46.1053 55.7621 46.6046 55.8279C48.0201 56.0032 48.031 54.3978 48.031 54.3978C48.0593 54.4069 48.085 54.4226 48.106 54.4435C48.127 54.4645 48.1427 54.4901 48.1518 54.5184Z" fill="#5230D7"/>
<path d="M47.8501 53.8055C47.9091 53.6694 47.7653 53.4763 47.529 53.374C47.2926 53.2718 47.0532 53.2993 46.9942 53.4353C46.9351 53.5713 47.0789 53.7645 47.3152 53.8668C47.5516 53.9689 47.7911 53.9416 47.8501 53.8055Z" fill="white"/>
<path d="M47.8783 54.6982C47.8204 54.8574 47.7287 55.002 47.6093 55.1222C47.4899 55.2423 47.3458 55.335 47.187 55.394C47.0283 55.4723 46.8537 55.513 46.6768 55.513C46.4998 55.513 46.3252 55.4723 46.1665 55.394C46.4833 55.4128 46.8003 55.3628 47.0958 55.2474C47.3913 55.1321 47.6583 54.954 47.8783 54.7256V54.6982Z" fill="white"/>
</g>
<path d="M28.7098 10.3758C28.5379 9.71724 28.2149 9.10759 27.7661 8.59521H30.8056C30.405 9.05 30.2569 9.65266 30.619 10.5457L31.9468 14.211L33.1812 10.8416C33.5598 9.82251 33.4061 8.97877 32.83 8.59521H34.6515C34.1714 9.10734 33.8181 9.72465 33.6201 10.3978L31.6669 15.7451H30.6849L28.7098 10.3758Z" fill="#1C171E"/>
<path d="M36.2956 15.1033C36.1461 15.3319 35.943 15.5207 35.7041 15.6534C35.4651 15.786 35.1973 15.8587 34.924 15.8649C34.7858 15.883 34.6454 15.8712 34.5123 15.8302C34.379 15.7894 34.2563 15.7203 34.1521 15.6278C34.048 15.5352 33.9651 15.4215 33.9089 15.2941C33.8528 15.1667 33.8248 15.0288 33.8268 14.8897C33.8268 13.8323 35.1599 13.3775 36.2682 13.142V12.5447C36.2682 11.9694 36.0323 11.7065 35.33 11.7065C34.8946 11.7119 34.4643 11.8012 34.0627 11.9694L34.0188 11.8928C34.2924 11.548 34.6412 11.2701 35.0386 11.0802C35.436 10.8903 35.8715 10.7935 36.3121 10.797C37.3709 10.797 37.8373 11.301 37.8373 12.0735V14.5719C37.8296 14.6298 37.8351 14.6887 37.8534 14.7443C37.8717 14.7998 37.9023 14.8505 37.9428 14.8926C37.9834 14.9347 38.033 14.9672 38.0878 14.9876C38.1428 15.0079 38.2015 15.0156 38.2598 15.0102C38.3915 15.0062 38.5199 14.9685 38.6328 14.9006V14.939C38.5346 15.2057 38.3555 15.435 38.1204 15.5951C37.8853 15.7552 37.6061 15.838 37.3216 15.832C37.0908 15.8579 36.8584 15.7979 36.6691 15.6635C36.4798 15.5291 36.3468 15.3296 36.2956 15.1033ZM36.2627 14.9171V13.3501C35.5714 13.5364 35.1654 13.9254 35.1654 14.3802C35.1593 14.4664 35.1723 14.5528 35.2033 14.6336C35.2342 14.7142 35.2825 14.7872 35.3448 14.8472C35.4069 14.9073 35.4816 14.9529 35.5634 14.9812C35.6453 15.0093 35.7323 15.0192 35.8183 15.0102C35.972 15.0184 36.1253 14.9862 36.2627 14.9171Z" fill="#1C171E"/>
<path d="M38.929 15.7113C39.1106 15.1641 39.1924 14.5889 39.1705 14.0129V12.8787C39.22 12.316 39.0445 11.7566 38.6821 11.3228L40.6957 10.7749V11.7501H40.7395C40.9067 11.4632 41.1472 11.2258 41.4364 11.0621C41.7255 10.8985 42.0531 10.8145 42.3855 10.8188C42.5732 10.8001 42.7627 10.8214 42.9415 10.8813C43.1203 10.9413 43.2844 11.0384 43.4228 11.1663C43.5613 11.2942 43.671 11.45 43.7446 11.6233C43.8184 11.7966 43.8544 11.9837 43.8504 12.172V13.9745C43.8271 14.552 43.907 15.1289 44.0863 15.6784V15.7058H42.0344C42.2105 15.1612 42.2903 14.5903 42.2703 14.0183V12.2597C42.2832 12.1673 42.2757 12.0732 42.2481 11.9841C42.2206 11.8949 42.1738 11.8129 42.111 11.7439C42.0481 11.6748 41.9708 11.6205 41.8845 11.5846C41.7983 11.5487 41.7052 11.5324 41.6119 11.5364C41.441 11.5434 41.2742 11.5901 41.1246 11.6729C40.9751 11.7556 40.847 11.8721 40.7505 12.0131V13.9745C40.7292 14.5501 40.8091 15.1249 40.9865 15.6729L38.929 15.7113Z" fill="#1C171E"/>
<path d="M44.9652 14.5228V11.1807H44.4165V11.0876L46.4245 9.83301H46.5508V10.9616H47.7138V11.1698H46.5508V14.4571C46.5508 15.0433 46.8579 15.2296 47.2475 15.2296C47.4432 15.2343 47.6353 15.1768 47.7961 15.0652L47.8291 15.0981C47.6653 15.3464 47.4394 15.5478 47.1738 15.6823C46.9083 15.8169 46.6122 15.8799 46.3148 15.8651C46.1325 15.8882 45.9474 15.8694 45.7735 15.8101C45.5997 15.7509 45.4416 15.6528 45.3114 15.5234C45.1813 15.394 45.0824 15.2365 45.0224 15.0631C44.9624 14.8897 44.9428 14.7049 44.9652 14.5228Z" fill="#1C171E"/>
<path d="M50.589 15.1041C50.4406 15.3326 50.2386 15.5215 50.0005 15.6542C49.7624 15.7869 49.4954 15.8595 49.2228 15.8657C49.0847 15.8838 48.9443 15.872 48.811 15.831C48.6778 15.7902 48.5551 15.7211 48.4509 15.6286C48.3468 15.5361 48.2639 15.4223 48.2078 15.2949C48.1517 15.1675 48.1236 15.0296 48.1256 14.8905C48.1256 13.8331 49.4588 13.3784 50.5615 13.1428V12.5455C50.5615 11.9703 50.3256 11.7073 49.6288 11.7073C49.1934 11.7128 48.7631 11.802 48.3615 11.9703L48.3176 11.9045C48.5904 11.5588 48.939 11.2803 49.3367 11.0903C49.7343 10.9003 50.1702 10.804 50.6109 10.8088C51.6698 10.8088 52.1307 11.3073 52.1307 12.0798V14.5837C52.123 14.6416 52.1285 14.7005 52.1468 14.756C52.165 14.8116 52.1956 14.8623 52.2362 14.9044C52.2768 14.9465 52.3263 14.979 52.3812 14.9994C52.4361 15.0197 52.4948 15.0274 52.5531 15.022C52.6875 15.0192 52.8185 14.9794 52.9317 14.9069V14.9453C52.8343 15.213 52.6556 15.4436 52.4204 15.6047C52.1853 15.7658 51.9055 15.8494 51.6204 15.8438C51.3882 15.8647 51.1563 15.8014 50.9668 15.6657C50.7775 15.5299 50.6433 15.3306 50.589 15.1041ZM50.5561 14.9179V13.3509C49.8648 13.5372 49.4917 13.9262 49.4917 14.381C49.4856 14.4672 49.4985 14.5536 49.5295 14.6344C49.5604 14.715 49.6088 14.788 49.671 14.848C49.7333 14.9081 49.8078 14.9538 49.8897 14.982C49.9715 15.0101 50.0585 15.02 50.1446 15.011C50.2873 15.0145 50.4288 14.9825 50.5561 14.9179Z" fill="#1C171E"/>
<path d="M55.1245 13.8375L54.938 14.3581C60.7543 17.6176 65.315 22.7224 67.8973 28.8633C70.4796 35.0043 70.9357 41.8303 69.1935 48.2594C67.4512 54.6886 63.6102 60.3533 58.2791 64.3557C52.948 68.3582 46.4317 70.4694 39.7631 70.355C33.0944 70.2405 26.6547 67.907 21.4644 63.7239C16.2742 59.5409 12.6303 53.7479 11.1103 47.2627C9.59024 40.7775 10.281 33.9713 13.0731 27.9225C15.8651 21.8738 20.5987 16.9285 26.5238 13.8704L26.3318 13.3555C20.2514 16.4801 15.3992 21.5552 12.5548 27.7651C9.71032 33.9752 9.03865 40.9597 10.6477 47.5967C12.2567 54.2339 16.0531 60.1382 21.4268 64.3614C26.8007 68.5845 33.44 70.8813 40.2782 70.8828C47.0313 70.8858 53.5942 68.6497 58.9372 64.5255C64.2802 60.4012 68.1007 54.6222 69.7994 48.0953C71.4981 41.5685 70.9787 34.6631 68.3227 28.4629C65.6667 22.2627 61.0245 17.1185 55.1245 13.8375Z" fill="#63676D"/>
<path d="M32.3095 36.9511V40.3561H31.2654V36.9511H29.9497V36.0652H33.625V36.9511H32.3095ZM36.2018 40.3561H35.1577V38.735L33.6851 36.0652H34.8439L35.218 36.8426C35.391 37.2002 35.544 37.5598 35.6767 37.9214H35.6888C35.8095 37.5758 35.9604 37.2163 36.1414 36.8426L36.5155 36.0652H37.6743L36.2018 38.735V40.3561ZM39.6768 36.0652C40.212 36.0652 40.6183 36.1918 40.8959 36.4448C41.1735 36.698 41.3123 37.0476 41.3123 37.4935C41.3123 37.9355 41.1735 38.283 40.8959 38.5361C40.6183 38.7892 40.212 38.9158 39.6768 38.9158H39.0009V40.3561H37.9568V36.0652H39.6768ZM39.0009 38.0781H39.532C40.0067 38.0781 40.2441 37.8832 40.2441 37.4935C40.2441 37.0997 40.0067 36.9029 39.532 36.9029H39.0009V38.0781ZM42.9496 36.9391V37.7527H44.8084V38.6145H42.9496V39.4823H44.9895V40.3561H41.9055V36.0652H44.9411V36.9391H42.9496ZM47.1214 40.3561V36.0652H48.1655V40.3561H47.1214ZM49.084 40.3561V36.0652H50.128V40.3561H49.084Z" fill="#1C171E"/>
<path d="M22.3634 21.5996C23.746 21.5996 24.806 21.9064 25.5433 22.5201C26.2807 23.1234 26.6494 24.0081 26.6494 25.174H23.8842C23.8842 24.6831 23.7409 24.3098 23.4541 24.0541C23.1776 23.7882 22.7781 23.6553 22.2559 23.6553C21.8155 23.6553 21.4621 23.7524 21.1959 23.9467C20.9399 24.1308 20.8118 24.3763 20.8118 24.6831C20.8118 24.9183 20.8784 25.1126 21.0116 25.266C21.1549 25.4092 21.3751 25.5371 21.6721 25.6496C21.9691 25.762 22.4095 25.8899 22.9932 26.033C23.8637 26.2478 24.5653 26.4728 25.0978 26.708C25.6406 26.933 26.081 27.2706 26.419 27.7205C26.7671 28.1705 26.9412 28.7688 26.9412 29.5154C26.9412 30.2211 26.7569 30.8398 26.3882 31.3716C26.0196 31.8931 25.4972 32.2972 24.8213 32.5835C24.1556 32.8699 23.3721 33.013 22.471 33.013C21.0371 33.013 19.9157 32.6806 19.1066 32.0159C18.2976 31.3511 17.8931 30.4154 17.8931 29.2085H20.7196C20.7196 30.3336 21.3239 30.896 22.5324 30.896C23.0342 30.896 23.4285 30.7938 23.7152 30.5892C24.002 30.3847 24.1454 30.1035 24.1454 29.7455C24.1454 29.4796 24.0737 29.27 23.9303 29.1165C23.7971 28.9631 23.5975 28.8404 23.3312 28.7483C23.0649 28.6461 22.6399 28.5182 22.0561 28.3648C21.1651 28.1399 20.4534 27.9148 19.9209 27.6898C19.3883 27.4649 18.9479 27.1324 18.5997 26.6927C18.2516 26.2529 18.0774 25.6649 18.0774 24.9285C18.0774 24.2637 18.2516 23.6808 18.5997 23.1797C18.9479 22.6785 19.4446 22.2899 20.0898 22.0138C20.7453 21.7377 21.5031 21.5996 22.3634 21.5996ZM33.3078 21.5996C34.3832 21.5996 35.3151 21.8297 36.1037 22.2899C36.9026 22.7502 37.517 23.4098 37.9471 24.2689C38.3773 25.128 38.5923 26.1405 38.5923 27.3063C38.5923 28.4722 38.3773 29.4847 37.9471 30.3438C37.517 31.2029 36.9026 31.8625 36.1037 32.3227C35.3151 32.7829 34.3832 33.013 33.3078 33.013C32.2222 33.013 31.2801 32.7829 30.4812 32.3227C29.6926 31.8625 29.0833 31.2029 28.6531 30.3438C28.2231 29.4847 28.008 28.4722 28.008 27.3063C28.008 26.1405 28.2231 25.128 28.6531 24.2689C29.0833 23.4098 29.6926 22.7502 30.4812 22.2899C31.2801 21.8297 32.2222 21.5996 33.3078 21.5996ZM33.3078 23.9007C32.509 23.9007 31.8894 24.2024 31.4491 24.8058C31.0086 25.399 30.7885 26.2325 30.7885 27.3063C30.7885 28.3802 31.0086 29.2188 31.4491 29.8222C31.8894 30.4154 32.509 30.712 33.3078 30.712C34.0964 30.712 34.7109 30.4154 35.1512 29.8222C35.5917 29.2188 35.8118 28.3802 35.8118 27.3063C35.8118 26.2325 35.5917 25.399 35.1512 24.8058C34.7109 24.2024 34.0964 23.9007 33.3078 23.9007ZM45.05 21.5996C45.982 21.5996 46.8012 21.7735 47.5079 22.1212C48.2146 22.4587 48.7676 22.9445 49.167 23.5785C49.5664 24.2024 49.7815 24.9336 49.8122 25.7722H47.0624C47.001 25.1791 46.791 24.7189 46.4326 24.3916C46.0844 24.0644 45.6235 23.9007 45.05 23.9007C44.3229 23.9007 43.7494 24.2075 43.3295 24.8211C42.9198 25.4245 42.715 26.2529 42.715 27.3063C42.715 28.3597 42.9198 29.1932 43.3295 29.8069C43.7494 30.4102 44.3126 30.712 45.0193 30.712C45.5928 30.712 46.0587 30.5432 46.4172 30.2057C46.7859 29.8682 47.0061 29.3926 47.0778 28.7791H49.8583C49.7559 30.129 49.2746 31.1721 48.4142 31.9085C47.554 32.6449 46.4223 33.013 45.0193 33.013C43.9746 33.013 43.0683 32.7829 42.3002 32.3227C41.5424 31.8625 40.9586 31.2079 40.549 30.3591C40.1393 29.5001 39.9345 28.4825 39.9345 27.3063C39.9345 26.1302 40.1393 25.1177 40.549 24.2689C40.9688 23.4098 41.5628 22.7502 42.3309 22.2899C43.0991 21.8297 44.0054 21.5996 45.05 21.5996ZM58.6962 22.1825C59.4746 22.1825 60.1556 22.3104 60.7393 22.5661C61.3231 22.8217 61.7737 23.1848 62.0912 23.6553C62.4086 24.1154 62.5674 24.6473 62.5674 25.2507C62.5674 25.8336 62.4547 26.3348 62.2295 26.754C62.0144 27.1734 61.7174 27.5313 61.3385 27.8279C60.9596 28.1245 60.4731 28.4262 59.8791 28.733C59.2646 29.05 58.7986 29.316 58.4811 29.5307C58.1739 29.7455 57.964 29.9398 57.8513 30.1137C57.7386 30.2773 57.6721 30.4614 57.6516 30.6659H62.8286V32.7676H54.5638C54.5536 32.6756 54.5485 32.517 54.5485 32.292C54.5485 31.5557 54.6356 30.9267 54.8096 30.4051C54.9837 29.8733 55.2859 29.3824 55.716 28.9324C56.1461 28.4825 56.7504 28.0427 57.5287 27.6132C58.1125 27.2859 58.558 27.02 58.8652 26.8154C59.1724 26.6007 59.4131 26.3706 59.5872 26.1251C59.7716 25.8797 59.8637 25.5984 59.8637 25.2813C59.8637 24.9541 59.7613 24.6984 59.5565 24.5143C59.3517 24.32 59.0649 24.2229 58.6962 24.2229C58.2456 24.2229 57.9025 24.3558 57.667 24.6217C57.4314 24.8774 57.3137 25.2558 57.3137 25.7569H54.6867C54.697 24.6115 55.0554 23.732 55.7621 23.1183C56.4687 22.4944 57.4467 22.1825 58.6962 22.1825Z" fill="#1C171E"/>
</g>
<defs>
<clipPath id="clip0_741_124736">
<rect width="80" height="80" fill="white" transform="translate(0.45752 0.37207)"/>
</clipPath>
</defs>
</svg>
