<svg width="45" height="44" viewBox="0 0 45 44" fill="none" xmlns="http://www.w3.org/2000/svg">
<rect x="0.357422" width="44" height="44" rx="22" fill="#333333"/>
<path d="M34.3523 13.875L33.4183 11.8106L31.3574 10.875L33.4183 9.93941L34.3523 7.875L35.2864 9.93941L37.3574 10.875L35.2864 11.8106L34.3523 13.875Z" fill="#E3A916"/>
<path d="M36.8549 16.875L36.3879 15.8428L35.3574 15.375L36.3879 14.9072L36.8549 13.875L37.3219 14.9072L38.3574 15.375L37.3219 15.8428L36.8549 16.875Z" fill="#F9D2CB"/>
<ellipse cx="24.5535" cy="15.8851" rx="5.83333" ry="5.88505" fill="#D7988D"/>
<path d="M24.5553 22.7532C19.4927 22.7532 15.3887 26.8936 15.3887 32.0011H33.722C33.722 26.8936 29.6179 22.7532 24.5553 22.7532Z" fill="#D7988D"/>
<ellipse cx="16.4393" cy="19.5476" rx="4.50764" ry="4.54761" fill="#F9D2CB"/>
<path d="M16.4409 24.8549C12.5288 24.8549 9.35742 28.0543 9.35742 32.0011H23.5243C23.5243 28.0543 20.3529 24.8549 16.4409 24.8549Z" fill="#F9D2CB"/>
<path d="M11.9889 36.7891L10.9322 34.4535L8.60059 33.395L10.9322 32.3365L11.9889 30.001L13.0456 32.3365L15.3887 33.395L13.0456 34.4535L11.9889 36.7891Z" fill="#D7988D"/>
<path d="M29.2202 28.6912L35.3062 18.179V26.4278H38.2235L32.3387 36.7891V28.6912H29.2202Z" fill="#F9D2CB"/>
</svg>
