<svg width="45" height="44" viewBox="0 0 45 44" fill="none" xmlns="http://www.w3.org/2000/svg">
<g clip-path="url(#clip0_741_126432)">
<rect x="0.357422" width="44" height="44" rx="22" fill="#333333"/>
<path fill-rule="evenodd" clip-rule="evenodd" d="M31.8147 22.1834C31.8147 27.5077 27.4985 31.8239 22.1743 31.8239C21.0053 31.8239 19.8849 31.6158 18.8481 31.2347L9.89453 32.7194L14.1456 27.5219C13.1273 25.9935 12.5338 24.1578 12.5338 22.1834C12.5338 16.8592 16.85 12.543 22.1743 12.543C27.4985 12.543 31.8147 16.8592 31.8147 22.1834ZM20.2404 26.7993C20.1576 26.7993 20.0779 26.7844 20.0013 26.7547C19.9242 26.7253 19.8561 26.6811 19.797 26.622L16.835 23.66C16.7286 23.5536 16.6782 23.4263 16.6839 23.2783C16.69 23.1307 16.7404 23.0037 16.835 22.8973C16.9414 22.7909 17.0686 22.7377 17.2167 22.7377C17.3642 22.7377 17.4853 22.7909 17.5799 22.8973L20.2404 25.5578L26.3772 19.421C26.4718 19.3146 26.596 19.2614 26.7497 19.2614C26.9034 19.2614 27.0275 19.3146 27.1221 19.421C27.2286 19.5274 27.2818 19.6544 27.2818 19.802C27.2818 19.95 27.2286 20.0772 27.1221 20.1837L20.6838 26.622C20.6247 26.6811 20.5568 26.7253 20.4802 26.7547C20.4031 26.7844 20.3232 26.7993 20.2404 26.7993Z" fill="#D7988D"/>
<path fill-rule="evenodd" clip-rule="evenodd" d="M11.5966 18.1154C12.0705 16.5352 12.7892 15.1332 13.741 13.9754C15.5725 11.7476 18.3423 10.3291 22.1746 10.3291C26.0069 10.3291 28.7767 11.7476 30.6082 13.9754C31.8881 15.5323 32.7463 17.5305 33.1549 19.8101C33.1611 20.0792 33.1657 20.3557 33.1657 20.6378C33.1657 21.1192 33.1525 21.5843 33.14 22.0238C33.1022 23.3518 33.0711 24.4452 33.4319 25.0428C32.6595 28.3386 30.5901 31.0253 27.8874 32.6142L28.6284 33.8747C31.6388 32.105 33.9437 29.129 34.829 25.4878C36.3996 25.1517 38.2417 23.1083 38.2417 20.6378C38.2417 17.9325 36.0328 15.7394 34.3903 15.7394C34.2739 15.7394 34.1679 15.7504 34.0713 15.7718C33.5781 14.6447 32.9524 13.6033 32.1895 12.6754C29.9374 9.93585 26.5673 8.28198 22.1746 8.28198C17.7819 8.28198 14.4118 9.93585 12.1597 12.6754C11.4041 13.5944 10.7831 14.6248 10.2921 15.7395C8.65312 15.768 6.47314 17.95 6.47314 20.6376C6.47314 23.3429 8.682 25.536 10.3245 25.536C11.6748 25.536 11.6326 24.054 11.5749 22.0236C11.5624 21.5841 11.5491 21.119 11.5491 20.6376C11.5491 20.1562 11.5624 19.6911 11.5749 19.2516C11.5863 18.8488 11.5972 18.4677 11.5966 18.1154Z" fill="#F9D2CB"/>
<rect x="22.9854" y="33.1152" width="6.14132" height="2.95971" rx="1.47985" transform="rotate(-12.6294 22.9854 33.1152)" fill="#E3A916"/>
</g>
<defs>
<clipPath id="clip0_741_126432">
<rect width="44" height="44" fill="white" transform="translate(0.357422)"/>
</clipPath>
</defs>
</svg>
