<svg width="45" height="44" viewBox="0 0 45 44" fill="none" xmlns="http://www.w3.org/2000/svg">
<rect x="0.357422" width="44" height="44" rx="22" fill="#333333"/>
<ellipse cx="17.3093" cy="17.2154" rx="7.25693" ry="7.17719" transform="rotate(12.8871 17.3093 17.2154)" fill="#F9D2CB"/>
<rect x="17.8066" y="7.51367" width="3.34935" height="18.8202" transform="rotate(12.8871 17.8066 7.51367)" fill="#F9D2CB"/>
<rect x="7.85742" y="16.6902" width="3.50885" height="18.8202" transform="rotate(-77.1129 7.85742 16.6902)" fill="#F9D2CB"/>
<rect x="10.8906" y="10.0001" width="3.42185" height="18.8202" transform="rotate(-32.1129 10.8906 10.0001)" fill="#F9D2CB"/>
<rect x="24.4033" y="10.6096" width="3.42185" height="18.8202" transform="rotate(57.8871 24.4033 10.6096)" fill="#F9D2CB"/>
<ellipse cx="17.3089" cy="17.2152" rx="3.90758" ry="3.82783" transform="rotate(12.8871 17.3089 17.2152)" fill="#D7988D"/>
<ellipse cx="30.1908" cy="17.2588" rx="2.08056" ry="2.05769" transform="rotate(12.8871 30.1908 17.2588)" fill="#E3A916"/>
<rect x="30.3335" y="14.4775" width="0.960257" height="5.39573" transform="rotate(12.8871 30.3335 14.4775)" fill="#E3A916"/>
<rect x="27.481" y="17.1086" width="1.00598" height="5.39573" transform="rotate(-77.1129 27.481 17.1086)" fill="#E3A916"/>
<rect x="28.3506" y="15.1908" width="0.981042" height="5.39573" transform="rotate(-32.1129 28.3506 15.1908)" fill="#E3A916"/>
<rect x="32.2246" y="15.365" width="0.981042" height="5.39573" transform="rotate(57.8871 32.2246 15.365)" fill="#E3A916"/>
<ellipse cx="30.1903" cy="17.2579" rx="1.1199" ry="1.09705" transform="rotate(12.8871 30.1903 17.2579)" fill="#333333"/>
<ellipse cx="29.3529" cy="29.2024" rx="5.62821" ry="5.56636" transform="rotate(12.8871 29.3529 29.2024)" fill="#D7988D"/>
<rect x="29.7402" y="21.6781" width="2.59763" height="14.5962" transform="rotate(12.8871 29.7402 21.6781)" fill="#D7988D"/>
<rect x="22.022" y="28.7949" width="2.72133" height="14.5962" transform="rotate(-77.1129 22.022 28.7949)" fill="#D7988D"/>
<rect x="24.3735" y="23.6063" width="2.65386" height="14.5962" transform="rotate(-32.1129 24.3735 23.6063)" fill="#D7988D"/>
<rect x="34.856" y="24.0792" width="2.65386" height="14.5962" transform="rotate(57.8871 34.856 24.0792)" fill="#D7988D"/>
<ellipse cx="29.3493" cy="29.2022" rx="3.03057" ry="2.96872" transform="rotate(12.8871 29.3493 29.2022)" fill="#F9D2CB"/>
</svg>
