<svg width="375" height="470" viewBox="0 0 375 470" fill="none" xmlns="http://www.w3.org/2000/svg">
<g clip-path="url(#clip0_9882_2951)">
<rect width="375" height="536" transform="translate(0 -1)" fill="black"/>
<line opacity="0.2" y1="30.3804" x2="375" y2="30.3804" stroke="#D7988D" stroke-width="1.23922"/>
<line opacity="0.2" y1="62.3804" x2="375" y2="62.3804" stroke="#D7988D" stroke-width="1.23922"/>
<line opacity="0.2" y1="94.3804" x2="375" y2="94.3804" stroke="#D7988D" stroke-width="1.23922"/>
<line opacity="0.2" y1="126.38" x2="375" y2="126.38" stroke="#D7988D" stroke-width="1.23922"/>
<line opacity="0.2" y1="158.38" x2="375" y2="158.38" stroke="#D7988D" stroke-width="1.23922"/>
<line opacity="0.2" y1="190.38" x2="375" y2="190.38" stroke="#D7988D" stroke-width="1.23922"/>
<line opacity="0.2" y1="222.38" x2="375" y2="222.38" stroke="#D7988D" stroke-width="1.23922"/>
<line opacity="0.2" y1="254.38" x2="375" y2="254.38" stroke="#D7988D" stroke-width="1.23922"/>
<line opacity="0.2" y1="286.38" x2="375" y2="286.38" stroke="#D7988D" stroke-width="1.23922"/>
<line opacity="0.2" y1="318.38" x2="375" y2="318.38" stroke="#D7988D" stroke-width="1.23922"/>
<line opacity="0.2" y1="350.38" x2="375" y2="350.38" stroke="#D7988D" stroke-width="1.23922"/>
<line opacity="0.2" y1="382.38" x2="375" y2="382.38" stroke="#D7988D" stroke-width="1.23922"/>
<line opacity="0.2" y1="414.38" x2="375" y2="414.38" stroke="#D7988D" stroke-width="1.23922"/>
<line opacity="0.2" y1="446.38" x2="375" y2="446.38" stroke="#D7988D" stroke-width="1.23922"/>
<rect x="87.5" y="439.766" width="13" height="13" fill="#6FA23C"/>
<rect x="301" y="23" width="13" height="13" fill="#DB7415"/>
<path d="M334 382.742L347.5 374.948L347.5 390.536L334 382.742Z" fill="#CFD9DB"/>
<path d="M34 95L47.5 87.2058L47.5 102.794L34 95Z" fill="#F9D2CB"/>
</g>
<defs>
<clipPath id="clip0_9882_2951">
<rect width="375" height="470" fill="white"/>
</clipPath>
</defs>
</svg>
