<svg width="185" height="184" viewBox="0 0 185 184" fill="none" xmlns="http://www.w3.org/2000/svg">
<g clip-path="url(#clip0_833_8564)">
<rect width="184" height="184" transform="translate(0.320312)" fill="white"/>
<path d="M55.9512 57.0657H136.517V137.48H55.9512V57.0657Z" fill="#F9D2CB"/>
<path d="M125.07 59.25L125.07 133.665L60.3203 133.665L125.07 59.25Z" fill="#FFE5E0"/>
<path d="M154.199 8.50002L154.199 57.668L154.199 82.1721L154.32 94.2267L154.199 106.547C154.199 137.467 121.003 162.5 80.9141 162.5L48.3203 162.5" stroke="#D7988D" stroke-width="61.2746"/>
<path d="M30.4159 184V134.832V110.328L30.3203 98.2733L30.4159 85.9533C30.4159 55.0328 56.6452 30 88.3203 30C88.3203 30 182.977 30 185.32 30" stroke="#B27E76" stroke-width="61.2746"/>
<path d="M90.3437 92.3102H94.2974L99.2426 115.916H85.3984L90.3437 92.3102Z" fill="#D7988D"/>
<circle cx="91.0472" cy="84.9444" r="8.25328" transform="rotate(-90 91.0472 84.9444)" fill="#D7988D"/>
<path d="M85.253 90.7812C85.253 90.7812 87.5717 88.3336 90.7065 85.0246C93.8412 81.7155 96.6051 78.798 96.6051 78.798C99.9141 81.9328 100.055 87.1565 96.9207 90.4656C93.7859 93.7747 88.5621 93.916 85.253 90.7812Z" fill="#333333"/>
<path d="M60.9453 131.665L60.9453 184L0.320313 184L60.9453 131.665Z" fill="#DBACA3"/>
<path d="M34.3203 157.96C34.3203 143.578 45.281 131.92 60.626 131.92C60.626 145.593 60.626 143.694 60.626 158.075C60.626 172.457 60.626 173.822 60.626 184C45.281 184 34.3203 172.678 34.3203 157.96Z" fill="#333333"/>
<path d="M126.24 22.2359C136.413 12.07 152.407 11.582 163.254 22.4363C153.582 32.1016 154.926 30.759 144.753 40.9249C134.58 51.0907 133.614 52.0557 126.415 59.25C115.568 48.3958 115.829 32.6397 126.24 22.2359Z" fill="#F9D2CB"/>
<path d="M184.32 0L184.32 60.6646L123.695 60.6646L184.32 0Z" fill="#DBACA3"/>
<path d="M175.744 45.9883C165.611 56.1936 149.619 56.7437 138.73 45.9317C148.364 36.2288 147.026 37.5766 157.159 27.3713C167.292 17.1661 168.254 16.1973 175.425 8.9751C186.314 19.7871 186.115 35.544 175.744 45.9883Z" fill="#333333"/>
</g>
<defs>
<clipPath id="clip0_833_8564">
<rect width="184" height="184" fill="white" transform="translate(0.320312)"/>
</clipPath>
</defs>
</svg>
