<svg width="185" height="184" viewBox="0 0 185 184" fill="none" xmlns="http://www.w3.org/2000/svg">
<g clip-path="url(#clip0_828_8498)">
<rect width="184" height="184" transform="translate(0.320312)" fill="white"/>
<path d="M42.3203 1H183.32V142H42.3203V1Z" fill="#B27E76"/>
<path d="M0.320312 43H141.32V184H0.320312V43Z" fill="#DBACA3"/>
<path d="M42.3203 43H141.32V142H42.3203V43Z" fill="#F9D2CB"/>
<path d="M92.32 128.763C81.966 128.763 73.3337 127.301 66.4229 124.378C59.512 121.455 56.0566 117.802 56.0566 113.421V71.1685C56.0566 67.0499 59.5955 63.5316 66.6731 60.6136C73.7508 57.6956 82.2997 56.2366 92.32 56.2366C102.34 56.2366 110.889 57.6956 117.967 60.6136C125.044 63.5316 128.583 67.0499 128.583 71.1685V113.421C128.583 117.802 125.128 121.455 118.217 124.378C111.306 127.301 102.674 128.763 92.32 128.763Z" fill="#B27E76"/>
<ellipse cx="92.3201" cy="69.0354" rx="36.2634" ry="12.7989" fill="#333333"/>
<path d="M128.583 114.136C128.583 122.215 112.348 128.763 92.3201 128.763C72.2924 128.763 56.0567 122.215 56.0567 114.136C56.0567 109.274 56.0566 109.261 56.0567 94.6337C64.5892 101.947 84.3469 104.384 92.32 104.384C102.311 104.384 115.785 101.947 128.583 94.6332C128.583 97.0706 128.583 110.088 128.583 114.136Z" fill="#DBACA3"/>
<rect x="0.320312" y="135" width="49" height="49" rx="24.5" fill="#F9D2CB"/>
<rect x="141.32" y="1" width="42" height="42" fill="#333333"/>
<path d="M42.3203 43L42.3203 0.999999L84.3203 1L42.3203 43Z" fill="#D7988D"/>
<path d="M0.320311 85L0.320315 43L42.3203 43L0.320311 85Z" fill="#F9D2CB"/>
<path d="M183.32 100V142H141.32L183.32 100Z" fill="#DBACA3"/>
<path d="M141.32 142V184H99.3203L141.32 142Z" fill="#F9D2CB"/>
</g>
<defs>
<clipPath id="clip0_828_8498">
<rect width="184" height="184" fill="white" transform="translate(0.320312)"/>
</clipPath>
</defs>
</svg>
