<svg width="185" height="184" viewBox="0 0 185 184" fill="none" xmlns="http://www.w3.org/2000/svg">
<g clip-path="url(#clip0_833_8584)">
<rect width="184" height="184" transform="translate(0.320312)" fill="white"/>
<rect x="184.32" width="80" height="80" transform="rotate(90 184.32 0)" fill="#FFE5E0"/>
<rect x="104.32" y="80" width="80" height="80" transform="rotate(90 104.32 80)" fill="#333333"/>
<path d="M104.32 120L104.32 160L64.3203 160L104.32 120Z" fill="#DBACA3"/>
<rect x="184.32" y="79.9999" width="80" height="80" transform="rotate(90 184.32 79.9999)" fill="#F9D2CB"/>
<ellipse cx="25.0544" cy="126" rx="17.0159" ry="17.0159" transform="rotate(-180 25.0544 126)" fill="#D7988D"/>
<ellipse cx="58.8491" cy="118.596" rx="16.7788" ry="16.7788" transform="rotate(-180 58.8491 118.596)" fill="#D7988D"/>
<ellipse cx="42.0703" cy="108.25" rx="17.75" ry="17.75" transform="rotate(-180 42.0703 108.25)" fill="#D7988D"/>
<path d="M104.32 79.9999L184.32 79.9999L184.32 160L104.32 79.9999Z" fill="#D7988D"/>
<path d="M24.3201 143.75C14.9434 143.75 7.34205 135.803 7.34205 126C7.34205 116.197 14.9434 108.25 24.3201 108.25C24.3201 108.25 24.3203 116.197 24.3203 126C24.3203 135.803 24.3201 143.75 24.3201 143.75Z" fill="#F9D2CB"/>
<circle cx="170.581" cy="24.1249" r="16.6249" fill="#D7988D"/>
<circle cx="139.119" cy="62.34" r="10.5119" fill="#D7988D"/>
<circle cx="150.456" cy="29.1562" r="13.7812" fill="#D7988D"/>
<circle cx="126.394" cy="65.5214" r="8.71382" fill="#D7988D"/>
<rect x="126.394" y="25.6567" width="72.4058" height="20.3436" rx="10.1718" fill="#D7988D"/>
<path d="M24.3203 123.656H75.2794C80.8971 123.656 85.4512 128.211 85.4512 133.828C85.4512 139.446 80.8971 144 75.2794 144H24.3203V123.656Z" fill="#D7988D"/>
<rect x="111.18" y="63.3086" width="45.7821" height="12.8633" rx="6.43163" fill="#D7988D"/>
<path d="M142.662 141.193C135.907 141.193 130.275 140.239 125.766 138.332C121.257 136.424 119.003 134.042 119.003 131.183V103.617C119.003 100.93 121.312 98.6349 125.929 96.7311C130.547 94.8274 136.124 93.8755 142.662 93.8755C149.199 93.8755 154.776 94.8274 159.394 96.7311C164.011 98.6349 166.32 100.93 166.32 103.617V131.183C166.32 134.042 164.066 136.424 159.557 138.332C155.048 140.239 149.417 141.193 142.662 141.193Z" fill="#B27E76"/>
<ellipse cx="142.662" cy="102.226" rx="23.6587" ry="8.35012" fill="#F9D2CB"/>
<path d="M166.32 131.65C166.32 136.92 155.728 141.193 142.662 141.193C129.595 141.193 119.003 136.92 119.003 131.65C119.003 128.478 119.003 128.469 119.003 118.926C124.57 123.697 137.46 125.288 142.662 125.288C149.18 125.288 157.97 123.697 166.32 118.926C166.32 120.516 166.32 129.009 166.32 131.65Z" fill="#DBACA3"/>
<rect x="104.32" width="80" height="80" transform="rotate(90 104.32 0)" fill="#DBACA3"/>
<path d="M24.3203 80L24.3203 -2.22545e-06L104.32 4.76837e-06L24.3203 80Z" fill="#D7988D"/>
<ellipse cx="64.9477" cy="39.2845" rx="23" ry="23" transform="rotate(44.7876 64.9477 39.2845)" fill="#F9D2CB"/>
<path d="M81.2715 55.4876C72.3228 64.5029 57.7601 64.5569 48.7448 55.6082C52.6643 51.6595 55.8679 48.4321 64.8166 39.4168C73.7653 30.4015 75.4009 28.7537 81.1509 22.9609C90.1662 31.9096 90.2202 46.4723 81.2715 55.4876Z" fill="#D7988D"/>
</g>
<defs>
<clipPath id="clip0_833_8584">
<rect width="184" height="184" fill="white" transform="translate(0.320312)"/>
</clipPath>
</defs>
</svg>
