<svg width="162" height="707" viewBox="0 0 162 707" fill="none" xmlns="http://www.w3.org/2000/svg">
<rect width="162" height="162" rx="12.9939" fill="#F9D2CB"/>
<rect x="124" y="12" width="24.0001" height="12.8001" rx="6.40003" fill="black"/>
<g filter="url(#filter0_d_9882_2551)">
<rect x="137.6" y="14.4004" width="8.00004" height="8.00004" rx="4.00002" fill="#F9D2CB"/>
</g>
<path d="M62.7356 89.5629C62.7345 90.8715 62.3454 92.1505 61.6176 93.238C60.8897 94.3256 59.8558 95.1729 58.6464 95.6729C57.4371 96.173 56.1067 96.3032 54.8233 96.0472C53.5399 95.7912 52.3613 95.1605 51.4363 94.2348C50.5114 93.309 49.8816 92.1298 49.6268 90.8463C49.3719 89.5627 49.5032 88.2324 50.0043 87.0234C50.5053 85.8145 51.3536 84.7813 52.4417 84.0544C53.5299 83.3274 54.8092 82.9395 56.1178 82.9395H62.7356V89.5629Z" fill="black"/>
<path d="M66.0713 89.5631C66.0713 87.808 66.7685 86.1247 68.0096 84.8836C69.2507 83.6425 70.9339 82.9453 72.6891 82.9453C74.4443 82.9453 76.1275 83.6425 77.3686 84.8836C78.6097 86.1247 79.3069 87.808 79.3069 89.5631V106.134C79.3069 107.89 78.6097 109.573 77.3686 110.814C76.1275 112.055 74.4443 112.752 72.6891 112.752C70.9339 112.752 69.2507 112.055 68.0096 110.814C66.7685 109.573 66.0713 107.89 66.0713 106.134V89.5631Z" fill="black"/>
<path d="M72.6893 62.9876C71.3807 62.9865 70.1018 62.5974 69.0142 61.8695C67.9267 61.1417 67.0793 60.1077 66.5793 58.8984C66.0793 57.6891 65.949 56.3586 66.205 55.0753C66.461 53.7919 67.0917 52.6132 68.0175 51.6883C68.9432 50.7633 70.1224 50.1336 71.406 49.8787C72.6895 49.6238 74.0199 49.7552 75.2288 50.2562C76.4377 50.7573 77.4709 51.6055 78.1979 52.6937C78.9248 53.7819 79.3128 55.0611 79.3128 56.3698V62.9876H72.6893Z" fill="black"/>
<path d="M72.6891 66.3223C74.4442 66.3223 76.1275 67.0195 77.3686 68.2606C78.6096 69.5017 79.3069 71.1849 79.3069 72.9401C79.3069 74.6952 78.6096 76.3785 77.3686 77.6196C76.1275 78.8607 74.4442 79.5579 72.6891 79.5579H56.1178C54.3627 79.5579 52.6794 78.8607 51.4383 77.6196C50.1972 76.3785 49.5 74.6952 49.5 72.9401C49.5 71.1849 50.1972 69.5017 51.4383 68.2606C52.6794 67.0195 54.3627 66.3223 56.1178 66.3223H72.6891Z" fill="black"/>
<path d="M99.2646 72.9403C99.2658 71.6317 99.6548 70.3527 100.383 69.2652C101.111 68.1776 102.144 67.3303 103.354 66.8303C104.563 66.3302 105.894 66.2 107.177 66.456C108.46 66.712 109.639 67.3427 110.564 68.2684C111.489 69.1942 112.119 70.3734 112.374 71.6569C112.628 72.9405 112.497 74.2708 111.996 75.4798C111.495 76.6887 110.647 77.7219 109.559 78.4488C108.47 79.1758 107.191 79.5638 105.882 79.5638H99.2646V72.9403Z" fill="black"/>
<path d="M95.929 72.941C95.929 74.6962 95.2317 76.3794 93.9907 77.6205C92.7496 78.8616 91.0663 79.5588 89.3112 79.5588C87.556 79.5588 85.8727 78.8616 84.6317 77.6205C83.3906 76.3794 82.6934 74.6962 82.6934 72.941V56.3698C82.6934 54.6146 83.3906 52.9313 84.6317 51.6903C85.8727 50.4492 87.556 49.752 89.3112 49.752C91.0663 49.752 92.7496 50.4492 93.9907 51.6903C95.2317 52.9313 95.929 54.6146 95.929 56.3698V72.941Z" fill="black"/>
<path d="M89.3109 99.5156C90.6196 99.5167 91.8985 99.9058 92.9861 100.634C94.0736 101.362 94.921 102.395 95.421 103.605C95.921 104.814 96.0513 106.145 95.7953 107.428C95.5393 108.711 94.9086 109.89 93.9828 110.815C93.0571 111.74 91.8779 112.37 90.5943 112.624C89.3107 112.879 87.9804 112.748 86.7715 112.247C85.5626 111.746 84.5293 110.898 83.8024 109.81C83.0755 108.721 82.6875 107.442 82.6875 106.133V99.5156H89.3109Z" fill="black"/>
<path d="M89.3112 96.1809C87.556 96.1809 85.8727 95.4837 84.6317 94.2426C83.3906 93.0015 82.6934 91.3183 82.6934 89.5631C82.6934 87.808 83.3906 86.1247 84.6317 84.8836C85.8727 83.6425 87.556 82.9453 89.3112 82.9453H105.882C107.638 82.9453 109.321 83.6425 110.562 84.8836C111.803 86.1247 112.5 87.808 112.5 89.5631C112.5 91.3183 111.803 93.0015 110.562 94.2426C109.321 95.4837 107.638 96.1809 105.882 96.1809H89.3112Z" fill="black"/>
<rect x="0.5" y="181.99" width="161" height="161" rx="12.4939" fill="black"/>
<rect x="0.5" y="181.99" width="161" height="161" rx="12.4939" stroke="#F9D2CB"/>
<rect x="124" y="193.49" width="24.0001" height="12.8001" rx="6.40003" fill="#F9D2CB"/>
<g filter="url(#filter1_d_9882_2551)">
<rect x="126.4" y="195.891" width="8.00004" height="8.00004" rx="4.00002" fill="black"/>
</g>
<g clip-path="url(#clip0_9882_2551)">
<path d="M113.81 226.742H79.2305C79.2305 230.882 80.8751 234.853 83.8025 237.78C86.73 240.708 90.7004 242.352 94.8405 242.352H101.21V248.502C101.216 257.116 108.197 264.097 116.81 264.102V229.742C116.81 228.085 115.467 226.742 113.81 226.742Z" fill="#F9D2CB"/>
<path d="M96.7001 243.973H62.1201C62.1256 252.586 69.1068 259.567 77.7201 259.573H84.0901V265.743C84.1012 274.356 91.0868 281.333 99.7001 281.333V246.973C99.7001 245.316 98.357 243.973 96.7001 243.973Z" fill="#F9D2CB"/>
<path d="M79.58 261.191H45C45 269.813 51.9888 276.801 60.61 276.801H67V282.951C67.0055 291.557 73.9745 298.535 82.58 298.551V264.191C82.58 262.535 81.2369 261.191 79.58 261.191Z" fill="#F9D2CB"/>
</g>
<rect y="362.982" width="162" height="162" rx="12.9939" fill="#F9D2CB"/>
<rect x="124" y="374.982" width="24.0001" height="12.8001" rx="6.40003" fill="black"/>
<g filter="url(#filter2_d_9882_2551)">
<rect x="137.6" y="377.383" width="8.00004" height="8.00004" rx="4.00002" fill="#F9D2CB"/>
</g>
<g clip-path="url(#clip1_9882_2551)">
<path d="M56.7715 431.728C56.7715 429.294 58.8252 427.32 61.3585 427.32H91.9384C94.4717 427.32 96.5254 429.294 96.5254 431.728C96.5254 434.162 94.4717 436.136 91.9384 436.136H61.3585C58.8252 436.136 56.7715 434.162 56.7715 431.728Z" fill="black"/>
<path d="M67.1687 446.421C67.1687 443.986 69.2223 442.013 71.7557 442.013H102.336C104.869 442.013 106.923 443.986 106.923 446.421C106.923 448.855 104.869 450.829 102.336 450.829H71.7557C69.2223 450.829 67.1687 448.855 67.1687 446.421Z" fill="black"/>
<path d="M56.7715 460.526C56.7715 458.091 58.8252 456.118 61.3585 456.118H91.9384C94.4717 456.118 96.5254 458.091 96.5254 460.526C96.5254 462.96 94.4717 464.934 91.9384 464.934H61.3585C58.8252 464.934 56.7715 462.96 56.7715 460.526Z" fill="black"/>
</g>
<rect x="0.5" y="544.973" width="161" height="161" rx="12.4939" fill="black"/>
<rect x="0.5" y="544.973" width="161" height="161" rx="12.4939" stroke="#F9D2CB"/>
<rect x="124" y="556.473" width="24.0001" height="12.8001" rx="6.40003" fill="#F9D2CB"/>
<g filter="url(#filter3_d_9882_2551)">
<rect x="126.4" y="558.873" width="8.00004" height="8.00004" rx="4.00002" fill="black"/>
</g>
<g clip-path="url(#clip2_9882_2551)">
<path d="M73.895 608.411C73.8123 608.747 73.4869 608.806 73.1743 608.784L75.851 609.497C75.6506 609.363 75.4135 609.275 75.5219 608.791C75.6488 608.229 76.0422 608.429 76.2463 608.479C77.9173 608.889 79.5866 609.312 81.2264 609.834C81.6088 609.955 81.9176 610.429 82.1731 610.801C84.2818 613.856 86.3701 616.926 88.5137 620.064C88.7747 619.842 89.0008 619.671 89.2012 619.476C91.4679 617.283 93.7512 615.106 95.9811 612.876C96.6485 612.209 97.1797 612.071 98.0456 612.558C99.1247 613.163 100.208 613.759 101.294 614.351C98.2644 606.944 90.9881 601.725 82.4893 601.725C77.4265 601.725 72.7975 603.578 69.2402 606.642C70.4995 606.957 71.7717 607.232 73.0162 607.596C73.3582 607.697 74.0237 607.89 73.8931 608.411H73.895Z" fill="black"/>
<path d="M76.6044 633.656C76.8838 632.195 77.0217 630.704 77.314 629.246C77.439 628.626 77.2772 628.29 76.8268 627.898C72.5269 624.143 68.2398 620.37 63.9638 616.587C63.6053 616.271 63.2486 615.951 62.892 615.633C62.4269 617.337 62.1787 619.131 62.1787 620.982C62.1787 628.321 66.0724 634.752 71.9055 638.32C73.2622 637.265 74.6116 636.199 75.926 635.094C76.2974 634.781 76.5051 634.169 76.6044 633.658V633.656Z" fill="black"/>
<path d="M98.3504 620.439C96.4771 620.994 96.49 620.993 96.3631 622.954C96.2326 624.973 96.1223 626.995 95.8888 629.002C95.8245 629.558 95.4826 630.216 95.0561 630.576C91.1293 633.9 87.1621 637.178 83.1931 640.45C82.9633 640.639 82.7316 640.827 82.5 641.016C93.5541 640.827 102.455 631.81 102.455 620.711C102.455 620.208 102.437 619.709 102.4 619.217C101.588 619.459 100.775 619.702 99.9627 619.945C99.424 620.107 98.889 620.283 98.3504 620.443V620.439Z" fill="black"/>
<path d="M81.055 642.293C79.3435 643.712 77.6265 645.139 75.891 646.58C76.1668 644.869 76.4389 643.183 76.7073 641.508C76.3543 641.403 76.0069 641.289 75.6631 641.168C75.3322 643.229 75.0013 645.299 74.663 647.402C73.9865 647.402 72.1996 647.402 70.2509 647.402C70.102 647.406 69.9513 647.407 69.8024 647.413C69.4788 647.424 68.8133 647.492 68.8501 647.961C68.885 648.431 69.4623 648.428 69.7748 648.437C71.433 648.485 73.0949 648.483 74.7531 648.441C75.1097 648.431 75.5252 648.27 75.8065 648.043C78.1651 646.157 80.5109 644.256 82.8438 642.339C82.7261 642.341 82.6084 642.343 82.4908 642.343C82.0091 642.343 81.5312 642.324 81.0569 642.291L81.055 642.293Z" fill="black"/>
<path d="M59.1162 611.794L59.2338 611.599C61.1071 611.714 62.9804 611.816 64.8519 611.959C65.1571 611.428 65.4843 610.911 65.8354 610.409C64.8593 608.992 63.8831 607.573 62.9014 606.144C62.9326 606.152 62.9621 606.157 62.9915 606.163L62.9584 606.113C63.4272 606.209 63.6827 606.247 63.9309 606.315L68.3209 607.486C68.6206 607.196 68.9276 606.913 69.2438 606.639C69.0599 606.593 68.8742 606.547 68.6904 606.497C66.5414 605.936 64.4033 605.337 62.2524 604.791C61.9105 604.705 61.5171 604.811 61.1494 604.83C61.2505 605.208 61.2634 605.644 61.4675 605.955C62.3536 607.317 63.2985 608.643 64.2158 609.985C64.3721 610.214 64.5008 610.463 64.7122 610.823C62.0355 610.676 59.5206 610.536 57.0039 610.398V611.395C58.9691 613.158 60.927 614.928 62.8977 616.684C63.0117 616.266 63.1367 615.854 63.2764 615.448C61.8903 614.229 60.506 613.011 59.1199 611.792L59.1162 611.794Z" fill="black"/>
<path d="M108 617.971C105.767 616.762 103.526 615.565 101.294 614.35C101.511 614.881 101.708 615.421 101.88 615.975C103.301 616.727 104.735 617.488 106.226 618.278C104.993 618.644 103.8 618.997 102.623 619.346C102.675 619.742 102.717 620.139 102.746 620.539C104.498 620.015 106.25 619.492 108 618.968V617.971Z" fill="black"/>
<path d="M63.6013 647.388C63.5866 647.313 63.5719 647.239 63.5572 647.164C66.688 644.765 69.8169 642.366 72.9476 639.967C72.5946 639.779 72.2472 639.581 71.9071 639.373C71.431 639.743 70.9548 640.112 70.4787 640.48C67.5649 642.734 64.6308 644.96 61.7244 647.223C61.4762 647.416 61.0809 647.771 61.2023 648.092C61.3236 648.414 61.8181 648.434 62.1307 648.444C63.491 648.482 64.8533 648.488 66.2118 648.436C66.4802 648.425 66.9858 648.28 67.0005 647.929C67.0152 647.58 66.4913 647.434 66.2192 647.412C66.1493 647.407 66.0795 647.407 66.0115 647.401C64.7908 647.401 63.8642 647.401 63.605 647.401L63.6013 647.386V647.388Z" fill="black"/>
<path d="M73.1735 608.784C73.486 608.808 73.8096 608.748 73.8941 608.411C74.0228 607.891 73.3592 607.698 73.0172 607.597C71.7727 607.233 70.5023 606.955 69.2412 606.643C68.925 606.915 68.618 607.198 68.3184 607.49L73.1735 608.784Z" fill="black"/>
<path d="M96.9106 621.038C97.1128 618.545 97.304 616.194 97.5099 613.659C98.9843 614.44 100.426 615.203 101.88 615.973C101.707 615.422 101.51 614.879 101.293 614.348C100.207 613.756 99.1222 613.16 98.0449 612.556C97.179 612.069 96.6459 612.206 95.9804 612.874C93.7504 615.105 91.4672 617.28 89.2005 619.473C88.9983 619.668 88.7721 619.839 88.5129 620.062C86.3694 616.924 84.281 613.854 82.1724 610.798C81.9169 610.427 81.608 609.953 81.2256 609.831C79.5877 609.311 77.9166 608.886 76.2455 608.476C76.0414 608.427 75.6499 608.224 75.5212 608.789C75.4109 609.274 75.6499 609.361 75.8503 609.495L75.9992 609.533C76.1738 609.693 76.4937 609.695 76.7492 609.765C78.0177 610.112 79.2862 610.458 80.5988 610.817C79.6906 616.449 78.799 621.985 77.8651 627.779L77.8228 627.719L77.8081 627.81C73.7619 621.93 69.8167 616.197 65.833 610.408C65.4837 610.908 65.1546 611.425 64.8495 611.958C64.9267 611.964 65.0039 611.969 65.0829 611.975C65.3624 611.997 65.7153 612.199 65.8753 612.429C68.8424 616.699 71.7856 620.988 74.5965 625.411C70.8205 622.089 67.0445 618.769 63.2703 615.447C63.1306 615.854 63.0056 616.265 62.8916 616.683C63.2482 617.001 63.6049 617.319 63.9634 617.637C68.2394 621.42 72.5265 625.193 76.8264 628.948C77.275 629.34 77.4368 629.676 77.3136 630.296C77.0213 631.756 76.8834 633.245 76.604 634.706C76.5066 635.217 76.297 635.829 75.9256 636.142C74.6112 637.249 73.2618 638.313 71.9051 639.368C72.2452 639.576 72.5927 639.775 72.9456 639.962C73.9567 639.186 74.9697 638.41 75.9808 637.637L76.2014 637.765V637.776L76.2051 637.78C76.0249 638.907 75.8429 640.034 75.6627 641.164C76.0065 641.288 76.3558 641.401 76.7069 641.504C77.3357 637.605 77.9515 633.772 78.5821 629.857C83.6927 630.36 88.7813 630.86 94.1825 631.392C89.7575 635.065 85.4318 638.655 81.0528 642.289C81.5271 642.323 82.0051 642.341 82.4868 642.341C82.6044 642.341 82.7221 642.339 82.8397 642.337C83.0695 642.148 83.303 641.96 83.5328 641.771C87.5037 638.499 91.469 635.221 95.3958 631.897C95.8223 631.537 96.1642 630.881 96.2286 630.323C96.4602 628.316 96.5723 626.294 96.7029 624.275C96.8297 622.316 96.8168 622.316 98.6901 621.76C99.2288 621.6 99.7637 621.424 100.302 621.262C101.115 621.02 101.928 620.777 102.74 620.534C102.711 620.133 102.67 619.734 102.617 619.341C100.701 619.909 98.8299 620.462 96.9069 621.034L96.9106 621.038ZM78.7549 628.776C79.6667 623.115 80.551 617.63 81.4628 611.973C85.7977 618.166 90.0075 624.183 94.3001 630.318C89.07 629.8 83.9722 629.292 78.7549 628.776ZM95.1513 629.099C95.0741 629.13 94.9987 629.162 94.9215 629.193C93.0188 626.54 91.1142 623.887 89.1674 621.174C91.5205 618.893 93.8221 616.661 96.3609 614.199C95.9436 619.339 95.5465 624.218 95.1513 629.099Z" fill="black"/>
<path d="M78.7549 628.775C83.974 629.294 89.0718 629.799 94.3001 630.318C90.0075 624.183 85.7958 618.166 81.4628 611.973C80.551 617.629 79.6667 623.115 78.7549 628.775Z" fill="#F9D2CB"/>
<path d="M81.0546 642.293C79.5545 642.188 78.1003 641.92 76.7069 641.508C76.4366 643.183 76.1664 644.868 75.8906 646.58C77.626 645.139 79.3431 643.714 81.0546 642.293Z" fill="#F9D2CB"/>
<path d="M94.1845 631.396C88.7834 630.865 83.6948 630.363 78.5841 629.861C77.9536 633.777 77.3359 637.61 76.709 641.509C78.1025 641.923 79.5566 642.189 81.0567 642.294C85.4339 638.662 89.7614 635.069 94.1863 631.396H94.1845Z" fill="#F9D2CB"/>
<path d="M94.9221 629.195C94.9993 629.164 95.0746 629.132 95.1519 629.101C95.5489 624.222 95.9442 619.341 96.3615 614.201C93.8227 616.663 91.5211 618.895 89.168 621.176C91.1148 623.889 93.0194 626.542 94.9221 629.195V629.195Z" fill="#F9D2CB"/>
<path d="M59.1162 611.793C60.5023 613.011 61.8866 614.23 63.2728 615.449C63.6901 614.228 64.2214 613.061 64.8519 611.96C62.9805 611.815 61.1072 611.714 59.2339 611.6L59.1162 611.794V611.793Z" fill="#F9D2CB"/>
<path d="M74.5986 625.414C71.7859 620.991 68.8446 616.702 65.8774 612.432C65.7175 612.202 65.3645 612 65.0851 611.977C65.0079 611.972 64.9307 611.966 64.8516 611.961C64.2211 613.064 63.6898 614.231 63.2725 615.45C67.0485 618.772 70.8245 622.092 74.5986 625.414Z" fill="#F9D2CB"/>
<path d="M106.226 618.278C104.733 617.488 103.301 616.728 101.88 615.975C102.22 617.061 102.47 618.188 102.623 619.346C103.799 618.997 104.992 618.644 106.226 618.278Z" fill="#F9D2CB"/>
<path d="M96.9111 621.039C98.8359 620.469 100.707 619.914 102.621 619.346C102.469 618.19 102.218 617.063 101.878 615.975C100.424 615.204 98.983 614.441 97.5086 613.66C97.3027 616.195 97.1134 618.547 96.9111 621.039Z" fill="#F9D2CB"/>
<path d="M68.269 607.535C66.8039 607.14 65.3387 606.741 63.8717 606.348C63.64 606.285 63.4011 606.247 62.9893 606.164C63.9544 607.567 64.914 608.962 65.8718 610.354C66.5833 609.343 67.3866 608.4 68.2672 607.535H68.269Z" fill="#F9D2CB"/>
<path d="M72.709 608.703C71.2254 608.328 69.7455 607.934 68.2675 607.537C67.3869 608.401 66.5835 609.344 65.8721 610.355C69.8485 616.133 73.7844 621.854 77.8215 627.722C78.7498 621.961 79.6378 616.453 80.5404 610.852C79.226 610.493 77.9575 610.148 76.689 609.8C76.4335 609.73 76.1136 609.727 75.939 609.569C75.9096 609.543 75.8783 609.519 75.8471 609.499L73.1704 608.785C72.9994 608.772 72.8303 608.736 72.7071 608.704L72.709 608.703Z" fill="#F9D2CB"/>
<path d="M68.2689 607.536C68.2855 607.52 68.302 607.505 68.3186 607.488L63.9286 606.317C63.6804 606.251 63.4248 606.213 62.9561 606.115L62.9891 606.165C63.3991 606.248 63.6399 606.286 63.8716 606.349C65.3386 606.742 66.8019 607.143 68.2689 607.536V607.536Z" fill="#F9D2CB"/>
<path d="M76.6907 609.801C77.9592 610.149 79.2277 610.495 80.5421 610.853C79.6395 616.455 78.7515 621.962 77.8232 627.724L77.8654 627.784C78.7993 621.99 79.6909 616.455 80.5991 610.822C79.2847 610.463 78.0162 610.118 76.7495 609.77C76.494 609.7 76.1741 609.697 75.9995 609.539L75.8506 609.5C75.8837 609.522 75.9149 609.544 75.9425 609.57C76.1171 609.73 76.437 609.732 76.6926 609.801H76.6907Z" fill="#F9D2CB"/>
<path d="M72.7091 608.704C72.8322 608.735 73.0014 608.772 73.1723 608.784L68.3172 607.49C68.3007 607.507 68.2841 607.521 68.2676 607.538C69.7456 607.935 71.2255 608.329 72.7091 608.704Z" fill="#F9D2CB"/>
<path d="M74.6597 647.387C74.9962 645.287 75.3271 643.223 75.658 641.166C74.7259 640.833 73.8251 640.434 72.9611 639.973C69.8285 642.374 66.6941 644.776 63.5615 647.177L63.6038 647.387C64.4072 647.387 65.2142 647.356 66.0139 647.402C67.2548 647.402 68.799 647.402 70.2532 647.402C71.6908 647.363 73.1394 647.387 74.6616 647.387H74.6597Z" fill="#F9D2CB"/>
<path d="M72.9609 639.975C73.825 640.434 74.7258 640.833 75.6578 641.168C75.8398 640.037 76.02 638.91 76.2001 637.783C76.1284 637.741 76.0567 637.7 75.9851 637.658C74.9776 638.43 73.9684 639.204 72.9609 639.976V639.975Z" fill="#F9D2CB"/>
<path d="M63.6016 647.387L63.6052 647.402C63.8644 647.402 64.791 647.402 66.0117 647.402C65.212 647.356 64.4049 647.387 63.6016 647.387Z" fill="#F9D2CB"/>
<path d="M75.6631 641.166H75.6576C75.3285 643.219 74.9958 645.286 74.6594 647.385C73.1372 647.385 71.6904 647.363 70.251 647.4C72.1996 647.4 73.9847 647.4 74.6631 647.4C75.0013 645.297 75.3322 643.227 75.6631 641.166Z" fill="#F9D2CB"/>
<path d="M75.6627 641.167C75.8447 640.037 76.0249 638.91 76.2051 637.783L76.1995 637.779C76.0194 638.906 75.8374 640.035 75.6572 641.164H75.6627V641.167Z" fill="#F9D2CB"/>
</g>
<defs>
<filter id="filter0_d_9882_2551" x="135.6" y="14.4004" width="12" height="12" filterUnits="userSpaceOnUse" color-interpolation-filters="sRGB">
<feFlood flood-opacity="0" result="BackgroundImageFix"/>
<feColorMatrix in="SourceAlpha" type="matrix" values="0 0 0 0 0 0 0 0 0 0 0 0 0 0 0 0 0 0 127 0" result="hardAlpha"/>
<feOffset dy="2"/>
<feGaussianBlur stdDeviation="1"/>
<feComposite in2="hardAlpha" operator="out"/>
<feColorMatrix type="matrix" values="0 0 0 0 0 0 0 0 0 0 0 0 0 0 0 0 0 0 0.15 0"/>
<feBlend mode="normal" in2="BackgroundImageFix" result="effect1_dropShadow_9882_2551"/>
<feBlend mode="normal" in="SourceGraphic" in2="effect1_dropShadow_9882_2551" result="shape"/>
</filter>
<filter id="filter1_d_9882_2551" x="124.4" y="195.891" width="12" height="12" filterUnits="userSpaceOnUse" color-interpolation-filters="sRGB">
<feFlood flood-opacity="0" result="BackgroundImageFix"/>
<feColorMatrix in="SourceAlpha" type="matrix" values="0 0 0 0 0 0 0 0 0 0 0 0 0 0 0 0 0 0 127 0" result="hardAlpha"/>
<feOffset dy="2"/>
<feGaussianBlur stdDeviation="1"/>
<feComposite in2="hardAlpha" operator="out"/>
<feColorMatrix type="matrix" values="0 0 0 0 0 0 0 0 0 0 0 0 0 0 0 0 0 0 0.15 0"/>
<feBlend mode="normal" in2="BackgroundImageFix" result="effect1_dropShadow_9882_2551"/>
<feBlend mode="normal" in="SourceGraphic" in2="effect1_dropShadow_9882_2551" result="shape"/>
</filter>
<filter id="filter2_d_9882_2551" x="135.6" y="377.383" width="12" height="12" filterUnits="userSpaceOnUse" color-interpolation-filters="sRGB">
<feFlood flood-opacity="0" result="BackgroundImageFix"/>
<feColorMatrix in="SourceAlpha" type="matrix" values="0 0 0 0 0 0 0 0 0 0 0 0 0 0 0 0 0 0 127 0" result="hardAlpha"/>
<feOffset dy="2"/>
<feGaussianBlur stdDeviation="1"/>
<feComposite in2="hardAlpha" operator="out"/>
<feColorMatrix type="matrix" values="0 0 0 0 0 0 0 0 0 0 0 0 0 0 0 0 0 0 0.15 0"/>
<feBlend mode="normal" in2="BackgroundImageFix" result="effect1_dropShadow_9882_2551"/>
<feBlend mode="normal" in="SourceGraphic" in2="effect1_dropShadow_9882_2551" result="shape"/>
</filter>
<filter id="filter3_d_9882_2551" x="124.4" y="558.873" width="12" height="12" filterUnits="userSpaceOnUse" color-interpolation-filters="sRGB">
<feFlood flood-opacity="0" result="BackgroundImageFix"/>
<feColorMatrix in="SourceAlpha" type="matrix" values="0 0 0 0 0 0 0 0 0 0 0 0 0 0 0 0 0 0 127 0" result="hardAlpha"/>
<feOffset dy="2"/>
<feGaussianBlur stdDeviation="1"/>
<feComposite in2="hardAlpha" operator="out"/>
<feColorMatrix type="matrix" values="0 0 0 0 0 0 0 0 0 0 0 0 0 0 0 0 0 0 0.15 0"/>
<feBlend mode="normal" in2="BackgroundImageFix" result="effect1_dropShadow_9882_2551"/>
<feBlend mode="normal" in="SourceGraphic" in2="effect1_dropShadow_9882_2551" result="shape"/>
</filter>
<clipPath id="clip0_9882_2551">
<rect width="72" height="72" fill="white" transform="translate(45 226.742)"/>
</clipPath>
<clipPath id="clip1_9882_2551">
<rect width="51" height="51" fill="white" transform="translate(57 420.234)"/>
</clipPath>
<clipPath id="clip2_9882_2551">
<rect width="51" height="46.7478" fill="white" transform="translate(57 601.725)"/>
</clipPath>
</defs>
</svg>
