<svg width="101" height="327" viewBox="0 0 101 327" fill="none" xmlns="http://www.w3.org/2000/svg">
<rect width="100.631" height="100.631" rx="8.0716" fill="white"/>
<rect x="77.0264" y="7.45508" width="14.9084" height="7.95117" rx="3.97558" fill="black"/>
<g filter="url(#filter0_d_9882_2813)">
<rect x="85.4746" y="8.94531" width="4.96948" height="4.96948" rx="2.48474" fill="white"/>
</g>
<path d="M52.4565 40.8388H48.8661C48.6123 40.8389 48.3611 40.789 48.1266 40.6919C47.8922 40.5949 47.6791 40.4526 47.4997 40.2732C47.3202 40.0938 47.1778 39.8808 47.0807 39.6464C46.9836 39.412 46.9336 39.1607 46.9336 38.907V35.3166C46.9336 35.0628 46.9836 34.8116 47.0807 34.5771C47.1778 34.3427 47.3202 34.1297 47.4997 33.9503C47.6791 33.7709 47.8922 33.6287 48.1266 33.5316C48.3611 33.4346 48.6123 33.3847 48.8661 33.3848H52.4565C52.9687 33.385 53.4599 33.5886 53.8221 33.9508C54.1842 34.3131 54.3876 34.8043 54.3876 35.3166V38.907C54.3876 39.4193 54.1841 39.9107 53.8218 40.273C53.4595 40.6353 52.9682 40.8388 52.4558 40.8388" fill="black"/>
<path d="M43.1679 48.8861H39.129C38.8436 48.8864 38.5609 48.8304 38.2971 48.7213C38.0333 48.6123 37.7936 48.4523 37.5917 48.2505C37.3898 48.0487 37.2296 47.8091 37.1204 47.5454C37.0112 47.2817 36.955 46.999 36.9551 46.7136V42.6733C36.9553 42.0968 37.1844 41.544 37.5921 41.1365C37.9997 40.7289 38.5526 40.5 39.129 40.5H43.1679C43.7443 40.5002 44.2969 40.7292 44.7045 41.1367C45.112 41.5443 45.341 42.0969 45.3412 42.6733V46.7136C45.3413 46.9989 45.2851 47.2816 45.1759 47.5452C45.0668 47.8089 44.9067 48.0485 44.7048 48.2502C44.503 48.452 44.2634 48.612 43.9997 48.7211C43.736 48.8302 43.4533 48.8863 43.1679 48.8861" fill="black"/>
<path d="M42.7833 57.2697H40.3165C40.142 57.2698 39.9691 57.2355 39.8079 57.1688C39.6466 57.1021 39.5001 57.0042 39.3767 56.8808C39.2532 56.7575 39.1553 56.611 39.0885 56.4498C39.0217 56.2886 38.9873 56.1158 38.9873 55.9412V53.4751C38.9873 52.7394 39.5836 52.1445 40.3165 52.1445H42.7833C43.5169 52.1445 44.1118 52.7394 44.1118 53.4751V55.9412C44.1119 56.1157 44.0776 56.2885 44.0108 56.4497C43.9441 56.6109 43.8463 56.7574 43.7229 56.8808C43.5995 57.0042 43.453 57.102 43.2918 57.1688C43.1306 57.2355 42.9578 57.2698 42.7833 57.2697" fill="black"/>
<path d="M49.4073 65.0653H46.4899C46.2836 65.0655 46.0794 65.025 45.8888 64.9462C45.6983 64.8673 45.5252 64.7517 45.3793 64.6059C45.2335 64.4601 45.1179 64.2869 45.039 64.0964C44.9602 63.9058 44.9197 63.7016 44.9199 63.4954V60.5787C44.9199 59.7099 45.6232 59.0087 46.4899 59.0087H49.4073C50.2739 59.0087 50.9772 59.7099 50.9772 60.5787V63.4961C50.9772 64.3641 50.2739 65.0653 49.4073 65.0653ZM60.0962 42.3083H58.0757C57.7875 42.3083 57.5111 42.1939 57.3073 41.9902C57.1035 41.7865 56.9889 41.5102 56.9887 41.222V39.2036C56.9887 38.6031 57.4745 38.1152 58.075 38.1152H60.0962C60.696 38.1152 61.1818 38.6031 61.1818 39.2036V41.222C61.1818 41.8204 60.696 42.3083 60.0962 42.3083" fill="black"/>
<path d="M59.5214 50.4526C59.4764 47.5028 56.8427 44.9824 53.7359 44.9824C50.494 44.9824 47.9053 47.5711 47.9053 50.7672C47.9016 51.534 48.0499 52.2938 48.3416 53.0029C48.6333 53.712 49.0626 54.3562 49.6048 54.8984C50.1469 55.4406 50.7912 55.8699 51.5002 56.1616C52.2093 56.4533 52.9692 56.6016 53.7359 56.5978C55.289 56.5978 56.7308 55.9896 57.7657 54.9547C57.9684 54.7744 58.1036 54.5041 58.1036 54.2338C58.1036 53.7163 57.653 53.2665 57.1356 53.2665C56.8427 53.2665 56.5724 53.446 56.3703 53.6494C55.717 54.3464 54.749 54.6618 53.7359 54.6618C51.7999 54.6618 50.2257 53.3355 49.8864 51.4896H58.5767C58.583 51.4896 58.5886 51.4874 58.595 51.4874H58.621C58.6372 51.486 58.6534 51.4804 58.6703 51.4783C58.7034 51.4734 58.7365 51.4684 58.7689 51.4586C58.987 51.3961 59.1787 51.264 59.3146 51.0823C59.4505 50.9006 59.5231 50.6794 59.5214 50.4526ZM53.7359 46.8959C55.4819 46.8959 56.9321 48.0153 57.427 49.5768H50.0223C50.5172 48.016 51.9696 46.8959 53.7359 46.8959Z" fill="black"/>
<rect y="112.738" width="100.631" height="100.631" rx="8.0716" fill="white"/>
<rect x="77.0264" y="120.193" width="14.9084" height="7.95117" rx="3.97558" fill="black"/>
<g filter="url(#filter1_d_9882_2813)">
<rect x="85.4746" y="121.684" width="4.96948" height="4.96948" rx="2.48474" fill="white"/>
</g>
<g clip-path="url(#clip0_9882_2813)">
<path d="M34.9502 155.127C34.9502 153.615 36.2259 152.389 37.7996 152.389H56.7952C58.3689 152.389 59.6446 153.615 59.6446 155.127C59.6446 156.639 58.3689 157.865 56.7952 157.865H37.7996C36.2259 157.865 34.9502 156.639 34.9502 155.127Z" fill="black"/>
<path d="M41.4087 164.254C41.4087 162.741 42.6844 161.516 44.2581 161.516H63.2538C64.8274 161.516 66.1031 162.741 66.1031 164.254C66.1031 165.766 64.8274 166.992 63.2538 166.992H44.2581C42.6844 166.992 41.4087 165.766 41.4087 164.254Z" fill="black"/>
<path d="M34.9502 173.015C34.9502 171.503 36.2259 170.277 37.7996 170.277H56.7952C58.3689 170.277 59.6446 171.503 59.6446 173.015C59.6446 174.528 58.3689 175.753 56.7952 175.753H37.7996C36.2259 175.753 34.9502 174.528 34.9502 173.015Z" fill="black"/>
</g>
<rect x="0.310591" y="225.789" width="100.01" height="100.01" rx="7.76101" fill="black"/>
<rect x="0.310591" y="225.789" width="100.01" height="100.01" rx="7.76101" stroke="white" stroke-width="0.621182"/>
<rect x="77.0264" y="232.934" width="14.9084" height="7.95117" rx="3.97558" fill="white"/>
<g filter="url(#filter2_d_9882_2813)">
<rect x="78.5176" y="234.424" width="4.96948" height="4.96948" rx="2.48474" fill="black"/>
</g>
<g clip-path="url(#clip1_9882_2813)">
<path d="M45.5868 264.88C45.5354 265.089 45.3332 265.125 45.1391 265.112L46.8018 265.555C46.6773 265.471 46.53 265.417 46.5974 265.116C46.6762 264.767 46.9206 264.891 47.0473 264.922C48.0854 265.177 49.1223 265.439 50.1409 265.764C50.3784 265.839 50.5703 266.134 50.729 266.364C52.0388 268.262 53.3361 270.169 54.6676 272.119C54.8298 271.981 54.9702 271.874 55.0947 271.753C56.5028 270.391 57.9211 269.039 59.3063 267.654C59.7208 267.239 60.0508 267.154 60.5887 267.456C61.259 267.832 61.9316 268.202 62.6065 268.57C60.7246 263.969 56.2047 260.727 50.9254 260.727C47.7805 260.727 44.905 261.878 42.6953 263.781C43.4776 263.977 44.2678 264.148 45.0409 264.374C45.2533 264.437 45.6667 264.557 45.5856 264.88H45.5868Z" fill="black"/>
<path d="M47.2696 280.563C47.4431 279.655 47.5288 278.729 47.7104 277.823C47.788 277.439 47.6875 277.23 47.4077 276.986C44.7367 274.653 42.0736 272.31 39.4174 269.96C39.1948 269.763 38.9732 269.565 38.7517 269.367C38.4628 270.426 38.3086 271.54 38.3086 272.69C38.3086 277.249 40.7273 281.244 44.3507 283.46C45.1935 282.805 46.0317 282.142 46.8482 281.456C47.0789 281.262 47.2079 280.882 47.2696 280.564V280.563Z" fill="black"/>
<path d="M60.7776 272.353C59.614 272.698 59.622 272.697 59.5432 273.915C59.4621 275.169 59.3936 276.425 59.2485 277.672C59.2086 278.017 58.9962 278.426 58.7312 278.65C56.292 280.715 53.8277 282.751 51.3622 284.783C51.2194 284.901 51.0755 285.017 50.9316 285.135C57.7983 285.017 63.3276 279.416 63.3276 272.522C63.3276 272.209 63.3162 271.9 63.2934 271.594C62.7886 271.744 62.2839 271.895 61.7791 272.046C61.4445 272.146 61.1122 272.256 60.7776 272.355V272.353Z" fill="black"/>
<path d="M50.0345 285.927C48.9714 286.809 47.9048 287.695 46.8268 288.59C46.9981 287.527 47.1671 286.48 47.3338 285.44C47.1145 285.375 46.8987 285.304 46.6852 285.229C46.4796 286.509 46.2741 287.795 46.0639 289.101C45.6437 289.101 44.5337 289.101 43.3232 289.101C43.2307 289.103 43.1371 289.104 43.0446 289.108C42.8436 289.115 42.4302 289.157 42.4531 289.448C42.4748 289.74 42.8333 289.738 43.0275 289.744C44.0575 289.774 45.0898 289.772 46.1199 289.746C46.3414 289.74 46.5995 289.64 46.7742 289.499C48.2394 288.328 49.6965 287.147 51.1457 285.956C51.0726 285.957 50.9995 285.958 50.9264 285.958C50.6272 285.958 50.3303 285.947 50.0357 285.926L50.0345 285.927Z" fill="black"/>
<path d="M36.4068 266.982L36.4799 266.861C37.6436 266.933 38.8072 266.995 39.9698 267.085C40.1593 266.755 40.3626 266.434 40.5807 266.122C39.9743 265.241 39.3679 264.36 38.7581 263.473C38.7775 263.477 38.7958 263.481 38.8141 263.484L38.7935 263.453C39.0847 263.512 39.2435 263.536 39.3976 263.579L42.1246 264.306C42.3108 264.126 42.5015 263.95 42.6979 263.78C42.5837 263.751 42.4684 263.723 42.3542 263.692C41.0192 263.343 39.6911 262.971 38.355 262.632C38.1426 262.578 37.8982 262.645 37.6698 262.656C37.7327 262.891 37.7406 263.162 37.8674 263.355C38.4178 264.201 39.0048 265.024 39.5746 265.858C39.6717 266.001 39.7516 266.155 39.883 266.379C38.2203 266.287 36.6581 266.201 35.0947 266.115V266.734C36.3155 267.829 37.5317 268.929 38.7559 270.019C38.8267 269.76 38.9043 269.504 38.9911 269.252C38.1301 268.495 37.2702 267.738 36.4091 266.981L36.4068 266.982Z" fill="black"/>
<path d="M66.7723 270.82C65.3848 270.069 63.9928 269.325 62.6064 268.57C62.7412 268.9 62.8634 269.236 62.9707 269.58C63.8535 270.047 64.7442 270.52 65.6703 271.011C64.9041 271.238 64.1629 271.457 63.4321 271.674C63.4641 271.92 63.4903 272.166 63.5086 272.415C64.5969 272.09 65.6852 271.764 66.7723 271.439V270.82Z" fill="black"/>
<path d="M39.1928 289.092C39.1836 289.045 39.1745 289 39.1654 288.953C41.1101 287.463 43.0537 285.972 44.9985 284.482C44.7792 284.366 44.5634 284.242 44.3521 284.113C44.0564 284.343 43.7606 284.572 43.4648 284.801C41.6548 286.201 39.8323 287.584 38.0268 288.989C37.8727 289.109 37.6271 289.33 37.7025 289.53C37.7779 289.729 38.0851 289.742 38.2792 289.748C39.1243 289.772 39.9704 289.775 40.8144 289.743C40.9811 289.736 41.2951 289.646 41.3043 289.428C41.3134 289.211 40.9879 289.121 40.8189 289.107C40.7755 289.104 40.7321 289.104 40.6899 289.1C39.9316 289.1 39.3561 289.1 39.1951 289.1L39.1928 289.091V289.092Z" fill="black"/>
<path d="M45.139 265.112C45.3331 265.126 45.5341 265.089 45.5866 264.88C45.6666 264.557 45.2543 264.437 45.0419 264.374C44.2688 264.148 43.4797 263.975 42.6963 263.781C42.4999 263.95 42.3092 264.126 42.123 264.308L45.139 265.112Z" fill="black"/>
<path d="M59.8839 272.723C60.0096 271.175 60.1283 269.714 60.2562 268.139C61.1721 268.625 62.0674 269.099 62.9707 269.577C62.8633 269.235 62.7411 268.898 62.6064 268.568C61.9315 268.2 61.2577 267.83 60.5885 267.454C60.0507 267.152 59.7195 267.237 59.3061 267.652C57.9209 269.038 56.5026 270.389 55.0946 271.751C54.9689 271.872 54.8285 271.979 54.6675 272.117C53.3359 270.168 52.0387 268.26 50.7288 266.363C50.5701 266.132 50.3783 265.837 50.1407 265.762C49.1232 265.439 48.0852 265.175 47.0472 264.92C46.9204 264.889 46.6772 264.764 46.5972 265.114C46.5287 265.416 46.6772 265.47 46.8016 265.553L46.8941 265.577C47.0026 265.676 47.2013 265.677 47.3601 265.721C48.148 265.937 48.936 266.151 49.7513 266.374C49.1872 269.873 48.6333 273.311 48.0532 276.911L48.027 276.873L48.0178 276.93C45.5044 273.277 43.0537 269.716 40.5791 266.12C40.3621 266.431 40.1577 266.752 39.9681 267.083C40.0161 267.087 40.0641 267.09 40.1132 267.093C40.2867 267.107 40.506 267.233 40.6054 267.375C42.4485 270.028 44.2768 272.692 46.0228 275.44C43.6772 273.376 41.3316 271.314 38.9872 269.251C38.9004 269.503 38.8228 269.759 38.752 270.018C38.9735 270.215 39.195 270.413 39.4177 270.611C42.0739 272.961 44.737 275.304 47.408 277.637C47.6867 277.88 47.7871 278.089 47.7106 278.474C47.5291 279.381 47.4434 280.306 47.2698 281.214C47.2093 281.531 47.0791 281.911 46.8485 282.106C46.032 282.793 45.1938 283.454 44.351 284.11C44.5622 284.239 44.7781 284.362 44.9973 284.479C45.6254 283.997 46.2546 283.515 46.8827 283.034L47.0197 283.114V283.121L47.022 283.123C46.9101 283.823 46.7971 284.523 46.6852 285.225C46.8987 285.302 47.1157 285.373 47.3338 285.437C47.7243 283.015 48.1069 280.634 48.4986 278.201C51.6732 278.514 54.8342 278.825 58.1893 279.155C55.4406 281.436 52.7535 283.667 50.0334 285.924C50.328 285.945 50.6249 285.956 50.9241 285.956C50.9972 285.956 51.0703 285.955 51.1434 285.954C51.2861 285.836 51.4311 285.72 51.5739 285.602C54.0405 283.57 56.5037 281.533 58.943 279.469C59.2079 279.245 59.4203 278.837 59.4603 278.491C59.6042 277.244 59.6738 275.988 59.7549 274.734C59.8337 273.517 59.8257 273.517 60.9894 273.172C61.3239 273.073 61.6563 272.963 61.9909 272.863C62.4956 272.712 63.0003 272.561 63.5051 272.41C63.4868 272.161 63.4617 271.914 63.4286 271.669C62.2387 272.022 61.0761 272.366 59.8817 272.721L59.8839 272.723ZM48.6059 277.53C49.1723 274.014 49.7216 270.606 50.288 267.092C52.9808 270.939 55.5959 274.677 58.2624 278.488C55.0135 278.166 51.8468 277.851 48.6059 277.53ZM58.7911 277.731C58.7431 277.75 58.6963 277.77 58.6483 277.789C57.4664 276.141 56.2833 274.493 55.074 272.808C56.5357 271.391 57.9654 270.004 59.5425 268.475C59.2833 271.668 59.0366 274.699 58.7911 277.731Z" fill="black"/>
<path d="M48.6055 277.531C51.8475 277.853 55.0142 278.167 58.2619 278.489C55.5954 274.679 52.9792 270.941 50.2876 267.094C49.7212 270.608 49.1719 274.015 48.6055 277.531Z" fill="white"/>
<path d="M50.0339 285.927C49.1021 285.862 48.1988 285.695 47.3332 285.439C47.1653 286.48 46.9975 287.527 46.8262 288.59C47.9042 287.695 48.9708 286.81 50.0339 285.927Z" fill="white"/>
<path d="M58.1904 279.159C54.8354 278.829 51.6744 278.517 48.4998 278.205C48.1081 280.637 47.7244 283.018 47.335 285.441C48.2006 285.697 49.1039 285.863 50.0357 285.928C52.7547 283.672 55.4429 281.44 58.1916 279.159H58.1904Z" fill="white"/>
<path d="M58.6486 277.79C58.6965 277.771 58.7433 277.752 58.7913 277.732C59.038 274.701 59.2835 271.669 59.5427 268.477C57.9657 270.006 56.5359 271.392 55.0742 272.809C56.2836 274.495 57.4666 276.143 58.6486 277.79V277.79Z" fill="white"/>
<path d="M36.4062 266.981C37.2673 267.738 38.1272 268.495 38.9882 269.253C39.2474 268.494 39.5775 267.769 39.9692 267.085C38.8067 266.995 37.643 266.932 36.4793 266.861L36.4062 266.982V266.981Z" fill="white"/>
<path d="M46.0239 275.443C44.2767 272.695 42.4496 270.031 40.6064 267.378C40.5071 267.236 40.2878 267.11 40.1143 267.096C40.0663 267.093 40.0183 267.089 39.9692 267.086C39.5775 267.771 39.2475 268.496 38.9883 269.253C41.3339 271.317 43.6795 273.379 46.0239 275.443Z" fill="white"/>
<path d="M65.6703 271.009C64.743 270.518 63.8534 270.046 62.9707 269.578C63.182 270.253 63.3373 270.953 63.4321 271.672C64.1629 271.456 64.904 271.236 65.6703 271.009Z" fill="white"/>
<path d="M59.8838 272.724C61.0794 272.37 62.2419 272.026 63.4307 271.673C63.3359 270.954 63.1806 270.254 62.9694 269.578C62.0661 269.1 61.1708 268.626 60.2549 268.141C60.127 269.715 60.0094 271.176 59.8838 272.724Z" fill="white"/>
<path d="M42.0922 264.336C41.1821 264.091 40.2719 263.843 39.3606 263.599C39.2168 263.56 39.0683 263.536 38.8125 263.484C39.412 264.356 40.0081 265.222 40.6031 266.087C41.045 265.459 41.5441 264.873 42.0911 264.336H42.0922Z" fill="white"/>
<path d="M44.8505 265.062C43.9289 264.829 43.0096 264.585 42.0915 264.338C41.5445 264.875 41.0455 265.46 40.6035 266.089C43.0736 269.678 45.5185 273.231 48.0263 276.877C48.603 273.298 49.1545 269.876 49.7152 266.397C48.8987 266.174 48.1108 265.959 47.3228 265.744C47.1641 265.7 46.9654 265.698 46.8569 265.6C46.8386 265.584 46.8192 265.569 46.7998 265.556L45.1371 265.113C45.0309 265.105 44.9258 265.082 44.8493 265.063L44.8505 265.062Z" fill="white"/>
<path d="M42.0923 264.338C42.1025 264.328 42.1128 264.318 42.1231 264.308L39.3961 263.581C39.2419 263.54 39.0832 263.516 38.792 263.455L38.8125 263.486C39.0672 263.537 39.2168 263.561 39.3607 263.6C40.272 263.844 41.181 264.093 42.0923 264.338V264.338Z" fill="white"/>
<path d="M47.3236 265.744C48.1116 265.96 48.8995 266.174 49.716 266.397C49.1553 269.877 48.6038 273.298 48.0271 276.877L48.0533 276.915C48.6335 273.315 49.1873 269.877 49.7514 266.378C48.9349 266.155 48.147 265.94 47.3602 265.725C47.2014 265.681 47.0027 265.679 46.8943 265.581L46.8018 265.557C46.8223 265.57 46.8417 265.584 46.8589 265.6C46.9673 265.699 47.166 265.701 47.3248 265.744H47.3236Z" fill="white"/>
<path d="M44.8498 265.062C44.9263 265.082 45.0314 265.105 45.1376 265.113L42.1217 264.309C42.1114 264.319 42.1011 264.328 42.0908 264.338C43.009 264.585 43.9282 264.829 44.8498 265.062Z" fill="white"/>
<path d="M46.062 289.092C46.271 287.788 46.4765 286.505 46.6821 285.227C46.1031 285.021 45.5435 284.773 45.0068 284.486C43.0609 285.978 41.1139 287.47 39.168 288.962L39.1942 289.092C39.6933 289.092 40.1946 289.072 40.6913 289.101C41.4622 289.101 42.4214 289.101 43.3247 289.101C44.2177 289.077 45.1176 289.092 46.0631 289.092H46.062Z" fill="white"/>
<path d="M45.0068 284.488C45.5436 284.773 46.1031 285.021 46.6821 285.229C46.7951 284.527 46.9071 283.827 47.019 283.126C46.9744 283.1 46.9299 283.075 46.8854 283.049C46.2596 283.528 45.6326 284.009 45.0068 284.489V284.488Z" fill="white"/>
<path d="M39.1924 289.092L39.1947 289.102C39.3557 289.102 39.9312 289.102 40.6895 289.102C40.1927 289.073 39.6914 289.092 39.1924 289.092Z" fill="white"/>
<path d="M46.6852 285.227H46.6817C46.4773 286.502 46.2706 287.786 46.0617 289.09C45.1161 289.09 44.2174 289.076 43.3232 289.099C44.5337 289.099 45.6426 289.099 46.0639 289.099C46.2741 287.793 46.4796 286.507 46.6852 285.227Z" fill="white"/>
<path d="M46.6851 285.228C46.7981 284.525 46.91 283.825 47.0219 283.125L47.0185 283.123C46.9066 283.823 46.7936 284.524 46.6816 285.225H46.6851V285.228Z" fill="white"/>
</g>
<defs>
<filter id="filter0_d_9882_2813" x="84.2322" y="8.94531" width="7.45445" height="7.45348" filterUnits="userSpaceOnUse" color-interpolation-filters="sRGB">
<feFlood flood-opacity="0" result="BackgroundImageFix"/>
<feColorMatrix in="SourceAlpha" type="matrix" values="0 0 0 0 0 0 0 0 0 0 0 0 0 0 0 0 0 0 127 0" result="hardAlpha"/>
<feOffset dy="1.24236"/>
<feGaussianBlur stdDeviation="0.621182"/>
<feComposite in2="hardAlpha" operator="out"/>
<feColorMatrix type="matrix" values="0 0 0 0 0 0 0 0 0 0 0 0 0 0 0 0 0 0 0.15 0"/>
<feBlend mode="normal" in2="BackgroundImageFix" result="effect1_dropShadow_9882_2813"/>
<feBlend mode="normal" in="SourceGraphic" in2="effect1_dropShadow_9882_2813" result="shape"/>
</filter>
<filter id="filter1_d_9882_2813" x="84.2322" y="121.684" width="7.45445" height="7.45348" filterUnits="userSpaceOnUse" color-interpolation-filters="sRGB">
<feFlood flood-opacity="0" result="BackgroundImageFix"/>
<feColorMatrix in="SourceAlpha" type="matrix" values="0 0 0 0 0 0 0 0 0 0 0 0 0 0 0 0 0 0 127 0" result="hardAlpha"/>
<feOffset dy="1.24236"/>
<feGaussianBlur stdDeviation="0.621182"/>
<feComposite in2="hardAlpha" operator="out"/>
<feColorMatrix type="matrix" values="0 0 0 0 0 0 0 0 0 0 0 0 0 0 0 0 0 0 0.15 0"/>
<feBlend mode="normal" in2="BackgroundImageFix" result="effect1_dropShadow_9882_2813"/>
<feBlend mode="normal" in="SourceGraphic" in2="effect1_dropShadow_9882_2813" result="shape"/>
</filter>
<filter id="filter2_d_9882_2813" x="77.2752" y="234.424" width="7.45445" height="7.45348" filterUnits="userSpaceOnUse" color-interpolation-filters="sRGB">
<feFlood flood-opacity="0" result="BackgroundImageFix"/>
<feColorMatrix in="SourceAlpha" type="matrix" values="0 0 0 0 0 0 0 0 0 0 0 0 0 0 0 0 0 0 127 0" result="hardAlpha"/>
<feOffset dy="1.24236"/>
<feGaussianBlur stdDeviation="0.621182"/>
<feComposite in2="hardAlpha" operator="out"/>
<feColorMatrix type="matrix" values="0 0 0 0 0 0 0 0 0 0 0 0 0 0 0 0 0 0 0.15 0"/>
<feBlend mode="normal" in2="BackgroundImageFix" result="effect1_dropShadow_9882_2813"/>
<feBlend mode="normal" in="SourceGraphic" in2="effect1_dropShadow_9882_2813" result="shape"/>
</filter>
<clipPath id="clip0_9882_2813">
<rect width="31.6803" height="31.6803" fill="white" transform="translate(35.0918 147.986)"/>
</clipPath>
<clipPath id="clip1_9882_2813">
<rect width="31.6803" height="29.0389" fill="white" transform="translate(35.0918 260.727)"/>
</clipPath>
</defs>
</svg>
