<svg width="162" height="525" viewBox="0 0 162 525" fill="none" xmlns="http://www.w3.org/2000/svg">
<rect x="0.5" y="0.5" width="161" height="161" rx="12.4939" fill="black"/>
<rect x="0.5" y="0.5" width="161" height="161" rx="12.4939" stroke="#F9D2CB"/>
<rect x="124" y="12" width="24.0001" height="12.8001" rx="6.40003" fill="#F9D2CB"/>
<g filter="url(#filter0_d_9882_2663)">
<rect x="126.4" y="14.4004" width="8.00004" height="8.00004" rx="4.00002" fill="black"/>
</g>
<path d="M73.6035 79.4682C73.6035 79.4682 76.2941 60.3572 92.3443 60.252H111C111 60.252 107.317 79.4682 92.0201 79.4682H73.6035Z" fill="#F9D2CB"/>
<path d="M54 102.251C54 102.251 56.6906 83.1403 72.7347 83.0352H91.3883C91.3883 83.0352 87.705 102.251 72.4085 102.251H54Z" fill="#F9D2CB"/>
<rect y="181.49" width="162" height="162" rx="12.9939" fill="#F9D2CB"/>
<rect x="124" y="193.49" width="24.0001" height="12.8001" rx="6.40003" fill="black"/>
<g filter="url(#filter1_d_9882_2663)">
<rect x="137.6" y="195.891" width="8.00004" height="8.00004" rx="4.00002" fill="#F9D2CB"/>
</g>
<g clip-path="url(#clip0_9882_2663)">
<path fill-rule="evenodd" clip-rule="evenodd" d="M80.7164 248.653C81.2278 248.199 78.2729 247.574 76.0567 249.108C74.4087 250.245 74.3519 252.688 75.943 254.052C76.1135 254.166 76.2271 254.279 76.3408 254.393C76.7954 254.166 77.3637 253.938 77.9319 253.768C78.9548 253.427 79.8072 253.256 80.5459 253.143C80.8868 252.745 81.2846 252.12 81.171 250.926C81.0573 249.279 79.8072 249.563 80.7164 248.653ZM96.0025 257.518C95.7183 257.348 94.4682 257.405 93.5589 257.518C91.8542 257.746 89.9789 258.314 89.5812 258.655C88.8424 259.223 89.1834 260.246 89.7516 260.644C91.2859 261.78 92.6497 262.576 94.0704 262.348C94.9228 262.235 95.7183 260.871 96.2298 259.621C96.5139 258.768 96.5139 257.802 96.0025 257.518ZM90.0926 247.29C89.9789 247.517 89.8085 247.687 90.0926 248.426V248.483L90.1494 248.597L90.2631 248.824C90.6608 249.676 91.1723 250.472 91.911 250.926C92.1383 250.87 92.3088 250.87 92.5361 250.87C93.2748 250.813 93.7294 250.926 94.0136 251.097C94.0136 250.926 94.0704 250.756 94.0136 250.415C93.9567 249.335 94.2408 247.46 92.1383 246.494C91.3427 246.153 90.2062 246.267 89.8653 246.721C89.9221 246.721 89.9789 246.721 90.0358 246.778C90.604 246.892 90.2062 247.062 90.0926 247.29ZM111.743 262.292L109.925 262.633L106.458 226.719L47.2461 233.595L54.5198 292.807L61.4525 291.784C60.8842 290.988 60.0319 290.022 58.5544 288.829C56.5087 287.124 57.2474 284.226 58.4407 282.408C60.0319 279.339 68.2147 275.418 67.7601 270.531C67.5897 268.77 67.3055 266.44 65.6576 264.849C65.6008 265.531 65.7144 266.156 65.7144 266.156C65.7144 266.156 65.0325 265.303 64.6916 264.11C64.3506 263.655 64.0665 263.485 63.7255 262.917C63.4982 263.599 63.4982 264.451 63.4982 264.451C63.4982 264.451 62.93 263.144 62.8731 262.007C62.5322 262.519 62.4754 263.428 62.4754 263.428C62.4754 263.428 61.7366 261.382 61.9071 260.246C61.5661 259.28 60.6001 257.348 60.8842 252.972C62.7027 254.222 66.6804 253.938 68.2147 251.665C68.7262 250.926 69.0671 248.824 67.9306 244.789C67.1919 242.175 65.4303 238.311 64.7484 236.834L64.6916 236.891C65.0325 238.084 65.8281 240.584 66.1122 241.778C66.9646 245.414 67.2487 246.721 66.7941 248.426C66.4531 249.904 65.6008 250.87 63.4414 251.949C61.282 253.029 58.4976 250.415 58.2703 250.245C56.1677 248.597 54.5766 245.869 54.4061 244.562C54.2356 243.141 55.2585 242.289 55.7699 241.096C55.0312 241.323 54.2356 241.664 54.2356 241.664C54.2356 241.664 55.2017 240.641 56.395 239.789C56.9064 239.448 57.1906 239.277 57.702 238.823C56.9633 238.823 56.3382 238.823 56.3382 238.823C56.3382 238.823 57.5883 238.141 58.8953 237.629C57.9293 237.572 57.0201 237.629 57.0201 237.629C57.0201 237.629 59.8614 236.379 62.0776 235.47C63.6119 234.845 65.0893 235.015 65.9417 236.265C67.0214 237.857 68.2147 238.709 70.6582 239.277C72.1925 238.595 72.6471 238.254 74.5224 237.743C76.1703 235.924 77.4773 235.697 77.4773 235.697C77.4773 235.697 76.8522 236.265 76.6817 237.231C77.6478 236.493 78.6706 235.868 78.6706 235.868C78.6706 235.868 78.2729 236.379 77.8751 237.175L77.9887 237.288C79.0684 236.606 80.3754 236.095 80.3754 236.095C80.3754 236.095 79.9776 236.55 79.5799 237.175C80.4322 237.175 82.0802 237.231 82.7621 237.288C86.6262 237.345 87.4218 233.14 88.8993 232.629C90.7745 231.947 91.5701 231.549 94.7523 234.674C97.4799 237.345 99.5825 242.118 98.5596 243.198C97.6504 244.107 95.9456 242.857 94.0136 240.471C92.9907 239.22 92.1951 237.686 91.8542 235.754C91.57 234.163 90.3767 233.197 90.3767 233.197C90.3767 233.197 91.0586 234.731 91.0586 236.095C91.0586 236.834 91.1723 239.618 92.3088 241.152C92.1951 241.38 92.1383 242.289 92.0247 242.459C90.6608 240.811 87.7059 239.618 87.1945 239.277C88.8424 240.641 92.5929 243.71 94.0136 246.665C95.3774 249.449 94.5818 252.006 95.2637 252.688C95.4342 252.574 98.1618 255.984 98.7301 257.689C99.6393 260.7 98.7869 263.826 97.5936 265.758L94.2409 266.269C93.7294 266.156 93.4453 266.042 92.9907 265.815C93.218 265.36 93.7294 264.337 93.7294 264.11L93.5589 263.769C92.5361 265.246 90.7745 266.667 89.297 267.52C87.4218 268.599 85.2056 268.429 83.7849 267.974C79.7503 266.724 75.8862 263.996 74.977 263.258C74.977 263.258 74.977 263.826 75.1475 263.94C76.1703 265.076 78.5002 267.179 80.7732 268.656L75.943 269.167L78.216 286.897C77.1932 287.068 77.0227 287.124 75.943 287.295C74.977 283.828 73.1017 281.612 71.056 280.305C69.2376 279.169 66.7941 278.885 64.4074 279.339L64.2369 279.51C65.8849 279.339 67.817 279.567 69.8627 280.817C71.8516 282.067 73.3859 285.249 74.0109 287.181C74.7497 289.625 75.2611 292.295 73.2722 295.08C71.8516 297.069 67.6465 298.149 64.2938 295.819C65.203 297.239 66.3963 298.433 68.0443 298.66C70.4878 299.001 72.7608 298.546 74.3519 296.955C75.7157 295.535 76.4544 292.636 76.2271 289.568L78.3865 289.284L79.1821 294.796L114.755 290.534L111.743 262.292ZM77.7046 270.418L82.1938 269.793C82.9326 270.133 83.444 270.247 84.2964 270.474C85.6602 270.815 87.1945 271.156 89.5243 270.02C90.0358 269.736 91.1723 268.713 91.6269 268.145L109.925 264.849L111.8 287.465L80.4322 293.148L77.7046 270.418ZM103.674 277.975L97.6504 273.998L92.6497 282.351L86.8535 280.646L81.7392 288.488L82.0234 290.932L109.925 285.817L108.334 268.429L103.674 277.975Z" fill="black"/>
</g>
<rect y="362.982" width="162" height="162" rx="12.9939" fill="#F9D2CB"/>
<rect x="124" y="374.982" width="24.0001" height="12.8001" rx="6.40003" fill="black"/>
<g filter="url(#filter2_d_9882_2663)">
<rect x="137.6" y="377.383" width="8.00004" height="8.00004" rx="4.00002" fill="#F9D2CB"/>
</g>
<path d="M94.0099 420.234C97.3105 420.234 100.581 421.236 103.097 423.308C104.645 424.587 105.888 426.163 106.662 428.216C107.294 429.891 107.854 431.696 107.905 433.45C108.058 439.062 107.987 444.684 107.956 450.295C107.936 453.349 106.978 454.301 103.881 454.43C102.863 454.469 101.844 454.449 100.825 454.449C97.4124 454.43 97.0457 454.003 97.229 450.722C97.3105 449.373 97.7282 448.421 99.2869 448.501C101.375 448.6 101.864 447.499 101.834 445.715C101.762 441.838 101.885 437.952 101.783 434.075C101.671 429.911 98.3191 426.5 94.0506 426.163C90.0063 425.846 85.9212 425.836 81.8565 425.787C79.5338 425.757 78.3419 426.798 78.3929 429.296C78.5049 435.989 78.4336 442.671 78.4234 449.363C78.4234 450.107 78.5253 452.199 78.1687 452.724C77.4556 453.775 76.6916 453.973 75.6117 454.251C73.9716 454.667 72.7084 453.458 72.4435 451.763C72.2398 450.464 72.2907 449.125 72.2805 447.807C72.2703 440.123 72.2194 432.439 72.3213 424.765C72.3213 424.745 72.3213 424.736 72.3213 424.716C72.3722 422.188 74.6338 420.234 77.2315 420.234H94.0099Z" fill="black"/>
<path d="M57 439.786C57 437.664 58.6198 435.889 60.7896 435.612C62.4298 435.403 64.0801 435.225 65.7203 435.255C67.8086 435.294 67.0955 437.337 67.1872 438.626C67.2789 439.875 67.014 441.094 65.3739 441.015C63.367 440.906 63.0105 441.808 63.0716 443.553C63.204 447.598 63.092 451.643 63.1327 455.688C63.1735 460.081 65.6897 462.976 70.111 463.323C74.4915 463.66 78.9127 463.62 83.3034 463.838C85.4733 463.947 86.0743 462.956 86.054 461.003C85.9827 454.072 86.0234 447.132 86.0336 440.202C86.0336 436.722 87.0523 435.155 89.1916 435.225C91.2902 435.284 92.1765 436.702 92.1765 440.063C92.1765 448.481 92.2274 456.908 92.1358 465.325C92.1358 465.335 92.1358 465.355 92.1358 465.365C92.095 467.596 90.0677 469.311 87.7858 469.311H70.1619C67.2382 469.311 64.3756 468.339 62.1242 466.525C61.1258 465.722 60.2192 464.82 59.4144 463.818C57.7742 461.796 57 459.238 57 456.66V439.786Z" fill="black"/>
<defs>
<filter id="filter0_d_9882_2663" x="124.4" y="14.4004" width="12" height="12" filterUnits="userSpaceOnUse" color-interpolation-filters="sRGB">
<feFlood flood-opacity="0" result="BackgroundImageFix"/>
<feColorMatrix in="SourceAlpha" type="matrix" values="0 0 0 0 0 0 0 0 0 0 0 0 0 0 0 0 0 0 127 0" result="hardAlpha"/>
<feOffset dy="2"/>
<feGaussianBlur stdDeviation="1"/>
<feComposite in2="hardAlpha" operator="out"/>
<feColorMatrix type="matrix" values="0 0 0 0 0 0 0 0 0 0 0 0 0 0 0 0 0 0 0.15 0"/>
<feBlend mode="normal" in2="BackgroundImageFix" result="effect1_dropShadow_9882_2663"/>
<feBlend mode="normal" in="SourceGraphic" in2="effect1_dropShadow_9882_2663" result="shape"/>
</filter>
<filter id="filter1_d_9882_2663" x="135.6" y="195.891" width="12" height="12" filterUnits="userSpaceOnUse" color-interpolation-filters="sRGB">
<feFlood flood-opacity="0" result="BackgroundImageFix"/>
<feColorMatrix in="SourceAlpha" type="matrix" values="0 0 0 0 0 0 0 0 0 0 0 0 0 0 0 0 0 0 127 0" result="hardAlpha"/>
<feOffset dy="2"/>
<feGaussianBlur stdDeviation="1"/>
<feComposite in2="hardAlpha" operator="out"/>
<feColorMatrix type="matrix" values="0 0 0 0 0 0 0 0 0 0 0 0 0 0 0 0 0 0 0.15 0"/>
<feBlend mode="normal" in2="BackgroundImageFix" result="effect1_dropShadow_9882_2663"/>
<feBlend mode="normal" in="SourceGraphic" in2="effect1_dropShadow_9882_2663" result="shape"/>
</filter>
<filter id="filter2_d_9882_2663" x="135.6" y="377.383" width="12" height="12" filterUnits="userSpaceOnUse" color-interpolation-filters="sRGB">
<feFlood flood-opacity="0" result="BackgroundImageFix"/>
<feColorMatrix in="SourceAlpha" type="matrix" values="0 0 0 0 0 0 0 0 0 0 0 0 0 0 0 0 0 0 127 0" result="hardAlpha"/>
<feOffset dy="2"/>
<feGaussianBlur stdDeviation="1"/>
<feComposite in2="hardAlpha" operator="out"/>
<feColorMatrix type="matrix" values="0 0 0 0 0 0 0 0 0 0 0 0 0 0 0 0 0 0 0.15 0"/>
<feBlend mode="normal" in2="BackgroundImageFix" result="effect1_dropShadow_9882_2663"/>
<feBlend mode="normal" in="SourceGraphic" in2="effect1_dropShadow_9882_2663" result="shape"/>
</filter>
<clipPath id="clip0_9882_2663">
<rect width="72" height="72" fill="white" transform="translate(45 226.742)"/>
</clipPath>
</defs>
</svg>
