<svg width="101" height="438" viewBox="0 0 101 438" fill="none" xmlns="http://www.w3.org/2000/svg">
<rect x="0.263672" width="100.631" height="100.631" rx="8.0716" fill="white"/>
<rect x="77.29" y="7.45508" width="14.9084" height="7.95117" rx="3.97558" fill="black"/>
<g filter="url(#filter0_d_9882_2907)">
<rect x="85.7383" y="8.94531" width="4.96948" height="4.96948" rx="2.48474" fill="white"/>
</g>
<g clip-path="url(#clip0_9882_2907)">
<path d="M59.4229 42.3414C59.1978 42.1068 58.9285 41.9196 58.6306 41.7908C58.3328 41.662 58.0125 41.5941 57.6883 41.5912C57.3641 41.5883 57.0425 41.6503 56.7425 41.7737C56.4424 41.8971 56.1698 42.0793 55.9405 42.3098C55.7113 42.5403 55.53 42.8144 55.4073 43.1161C55.2845 43.4178 55.2228 43.7411 55.2258 44.0671C55.2287 44.393 55.2962 44.7151 55.4243 45.0146C55.5524 45.314 55.7385 45.5848 55.9719 45.8111C56.4247 46.2669 56.6809 46.8836 56.6851 47.5278C56.6892 48.1721 56.4409 48.792 55.9938 49.2536C55.9871 49.2604 55.9786 49.2647 55.9719 49.2723C55.514 49.734 55.2569 50.3594 55.2569 51.0114C55.2569 51.6634 55.514 52.2888 55.9719 52.7505C55.9786 52.7573 55.9871 52.7616 55.9938 52.7684C56.4409 53.2299 56.6892 53.8499 56.6851 54.4942C56.6809 55.1384 56.4247 55.7551 55.9719 56.2109C55.6305 56.554 55.3979 56.9913 55.3037 57.4673C55.2095 57.9433 55.2578 58.4368 55.4425 58.8852C55.6272 59.3336 55.94 59.7169 56.3414 59.9866C56.7427 60.2562 57.2146 60.4002 57.6974 60.4002C58.1801 60.4002 58.652 60.2562 59.0534 59.9866C59.4548 59.7169 59.7676 59.3336 59.9523 58.8852C60.137 58.4368 60.1853 57.9433 60.091 57.4673C59.9968 56.9913 59.7643 56.554 59.4229 56.2109C58.9702 55.755 58.7141 55.1383 58.71 54.4942C58.7059 53.85 58.9541 53.2301 59.4009 52.7684C59.4077 52.7616 59.4161 52.7573 59.4229 52.7505C59.8807 52.2888 60.1378 51.6634 60.1378 51.0114C60.1378 50.3594 59.8807 49.734 59.4229 49.2723C59.4161 49.2647 59.4077 49.2604 59.4009 49.2536C58.9541 48.7919 58.7059 48.172 58.71 47.5278C58.7141 46.8837 58.9702 46.267 59.4229 45.8111C59.8804 45.3509 60.1374 44.7269 60.1374 44.0762C60.1374 43.4256 59.8804 42.8015 59.4229 42.3414ZM66.3206 49.2783C66.662 48.9351 66.8946 48.4979 66.9888 48.0218C67.083 47.5458 67.0347 47.0524 66.85 46.604C66.6653 46.1555 66.3525 45.7722 65.9511 45.5026C65.5498 45.2329 65.0779 45.089 64.5951 45.089C64.1124 45.089 63.6405 45.2329 63.2391 45.5026C62.8377 45.7722 62.5249 46.1555 62.3402 46.604C62.1555 47.0524 62.1072 47.5458 62.2015 48.0218C62.2957 48.4979 62.5282 48.9351 62.8696 49.2783C63.0964 49.506 63.2763 49.7764 63.399 50.0741C63.5217 50.3718 63.5849 50.6909 63.5849 51.0131C63.5849 51.3354 63.5217 51.6544 63.399 51.9521C63.2763 52.2498 63.0964 52.5202 62.8696 52.748C62.5282 53.0911 62.2957 53.5284 62.2015 54.0044C62.1072 54.4804 62.1555 54.9738 62.3402 55.4223C62.5249 55.8707 62.8377 56.254 63.2391 56.5237C63.6405 56.7933 64.1124 56.9373 64.5951 56.9373C65.0779 56.9373 65.5498 56.7933 65.9511 56.5237C66.3525 56.254 66.6653 55.8707 66.85 55.4223C67.0347 54.9738 67.083 54.4804 66.9888 54.0044C66.8946 53.5284 66.662 53.0911 66.3206 52.748C65.8631 52.2878 65.6061 51.6638 65.6061 51.0131C65.6061 50.3624 65.8631 49.7384 66.3206 49.2783ZM42.7314 56.8021C42.504 57.0308 42.3492 57.3221 42.2865 57.6393C42.2238 57.9564 42.2561 58.2851 42.3792 58.5838C42.5023 58.8826 42.7108 59.1379 42.9782 59.3175C43.2456 59.4971 43.56 59.593 43.8816 59.593C44.2032 59.593 44.5176 59.4971 44.785 59.3175C45.0524 59.1379 45.2608 58.8826 45.3839 58.5838C45.5071 58.2851 45.5393 57.9564 45.4766 57.6393C45.4139 57.3221 45.2591 57.0308 45.0318 56.8021C44.8807 56.6502 44.7014 56.5297 44.5041 56.4474C44.3067 56.3652 44.0952 56.3229 43.8816 56.3229C43.6679 56.3229 43.4564 56.3652 43.2591 56.4474C43.0617 56.5297 42.8824 56.6502 42.7314 56.8021ZM49.6393 60.259C49.4118 60.4878 49.2568 60.7793 49.1941 61.0967C49.1313 61.414 49.1635 61.7429 49.2867 62.0418C49.4099 62.3407 49.6184 62.5962 49.886 62.7759C50.1535 62.9557 50.4681 63.0516 50.7899 63.0516C51.1117 63.0516 51.4263 62.9557 51.6938 62.7759C51.9614 62.5962 52.1699 62.3407 52.2931 62.0418C52.4163 61.7429 52.4485 61.414 52.3857 61.0967C52.323 60.7793 52.168 60.4878 51.9405 60.259C51.6352 59.9521 51.2212 59.7797 50.7895 59.7797C50.3578 59.7797 49.9437 59.9521 49.6384 60.259H49.6393ZM51.9397 41.7672C52.1672 41.5384 52.3221 41.2469 52.3849 40.9296C52.4476 40.6122 52.4154 40.2833 52.2922 39.9844C52.1691 39.6855 51.9605 39.43 51.693 39.2503C51.4254 39.0705 51.1108 38.9746 50.789 38.9746C50.4673 38.9746 50.1527 39.0705 49.8851 39.2503C49.6176 39.43 49.409 39.6855 49.2859 39.9844C49.1627 40.2833 49.1305 40.6122 49.1932 40.9296C49.256 41.2469 49.4109 41.5384 49.6384 41.7672C49.9437 42.0738 50.3575 42.2461 50.789 42.2461C51.2206 42.2461 51.6344 42.0738 51.9397 41.7672ZM42.1552 49.2842C41.8138 49.6273 41.5813 50.0646 41.4871 50.5406C41.3928 51.0166 41.4411 51.5101 41.6258 51.9585C41.8105 52.4069 42.1233 52.7902 42.5247 53.0599C42.9261 53.3295 43.398 53.4735 43.8807 53.4735C44.3635 53.4735 44.8354 53.3295 45.2367 53.0599C45.6381 52.7902 45.9509 52.4069 46.1356 51.9585C46.3203 51.5101 46.3686 51.0166 46.2744 50.5406C46.1802 50.0646 45.9476 49.6273 45.6062 49.2842C45.1485 48.8242 44.5279 48.5658 43.8807 48.5658C43.2336 48.5658 42.6129 48.8242 42.1552 49.2842ZM45.0351 45.2369C45.2628 45.0082 45.4178 44.7167 45.4807 44.3993C45.5436 44.0819 45.5114 43.753 45.3883 43.454C45.2651 43.155 45.0566 42.8995 44.789 42.7197C44.5214 42.5399 44.2068 42.4439 43.885 42.4439C43.5631 42.4439 43.2485 42.5399 42.9809 42.7197C42.7133 42.8995 42.5048 43.155 42.3816 43.454C42.2585 43.753 42.2264 44.0819 42.2892 44.3993C42.3521 44.7167 42.5071 45.0082 42.7348 45.2369C43.04 45.5433 43.4537 45.7154 43.885 45.7154C44.3163 45.7154 44.7299 45.5433 45.0351 45.2369ZM35.8319 46.3904C35.6044 46.6192 35.4495 46.9106 35.3867 47.228C35.324 47.5453 35.3562 47.8742 35.4793 48.1731C35.6025 48.472 35.8111 48.7275 36.0786 48.9073C36.3462 49.087 36.6608 49.1829 36.9825 49.1829C37.3043 49.1829 37.6189 49.087 37.8865 48.9073C38.154 48.7275 38.3626 48.472 38.4857 48.1731C38.6089 47.8742 38.6411 47.5453 38.5784 47.228C38.5156 46.9106 38.3607 46.6192 38.1332 46.3904C37.8279 46.0837 37.4141 45.9115 36.9825 45.9115C36.551 45.9115 36.1372 46.0837 35.8319 46.3904ZM35.8319 53.3298C35.6044 53.5586 35.4495 53.8501 35.3867 54.1674C35.324 54.4847 35.3562 54.8137 35.4793 55.1126C35.6025 55.4115 35.8111 55.6669 36.0786 55.8467C36.3462 56.0264 36.6608 56.1224 36.9825 56.1224C37.3043 56.1224 37.6189 56.0264 37.8865 55.8467C38.154 55.6669 38.3626 55.4115 38.4857 55.1126C38.6089 54.8137 38.6411 54.4847 38.5784 54.1674C38.5156 53.8501 38.3607 53.5586 38.1332 53.3298C37.9822 53.1777 37.8029 53.057 37.6055 52.9747C37.4081 52.8923 37.1964 52.8499 36.9827 52.8498C36.769 52.8497 36.5574 52.892 36.3599 52.9742C36.1624 53.0564 35.983 53.177 35.8319 53.329V53.3298ZM49.0674 52.7505C48.7259 53.0937 48.4934 53.5309 48.3992 54.0069C48.305 54.483 48.3532 54.9764 48.5379 55.4248C48.7226 55.8732 49.0355 56.2565 49.4368 56.5262C49.8382 56.7959 50.3101 56.9398 50.7929 56.9398C51.2756 56.9398 51.7475 56.7959 52.1489 56.5262C52.5502 56.2565 52.8631 55.8732 53.0478 55.4248C53.2325 54.9764 53.2807 54.483 53.1865 54.0069C53.0923 53.5309 52.8598 53.0937 52.5183 52.7505C52.0607 52.2905 51.44 52.0321 50.7929 52.0321C50.1457 52.0321 49.525 52.2905 49.0674 52.7505ZM49.0674 45.8111C48.7259 46.1542 48.4934 46.5915 48.3992 47.0675C48.305 47.5435 48.3532 48.0369 48.5379 48.4854C48.7226 48.9338 49.0355 49.3171 49.4368 49.5868C49.8382 49.8564 50.3101 50.0004 50.7929 50.0004C51.2756 50.0004 51.7475 49.8564 52.1489 49.5868C52.5502 49.3171 52.8631 48.9338 53.0478 48.4854C53.2325 48.0369 53.2807 47.5435 53.1865 47.0675C53.0923 46.5915 52.8598 46.1542 52.5183 45.8111C52.0607 45.3511 51.44 45.0926 50.7929 45.0926C50.1457 45.0926 49.525 45.3511 49.0674 45.8111Z" fill="black"/>
</g>
<rect x="0.574263" y="113.049" width="100.01" height="100.01" rx="7.76101" fill="black"/>
<rect x="0.574263" y="113.049" width="100.01" height="100.01" rx="7.76101" stroke="white" stroke-width="0.621182"/>
<rect x="77.29" y="120.193" width="14.9084" height="7.95117" rx="3.97558" fill="white"/>
<g filter="url(#filter1_d_9882_2907)">
<rect x="78.7812" y="121.684" width="4.96948" height="4.96948" rx="2.48474" fill="black"/>
</g>
<g clip-path="url(#clip1_9882_2907)">
<path d="M60.0221 157.11C61.5197 158.665 62.3261 160.71 62.2829 162.87C62.2397 165.03 61.3613 167.046 59.8061 168.544L59.5325 168.803L57.3581 166.571L57.6461 166.297C58.5965 165.376 59.1437 164.137 59.1581 162.812C59.1869 161.487 58.6829 160.235 57.7757 159.284C57.2429 158.737 56.6813 158.334 55.9901 158.075V154.849C57.5165 155.195 58.9133 155.972 60.0221 157.11ZM42.5835 148.196L41.0283 149.665L43.1883 151.911L44.7292 150.428C45.4398 149.741 46.394 149.365 47.3823 149.381C48.3705 149.397 49.3118 149.805 49.9996 150.515C50.6846 151.227 51.0587 152.182 51.0398 153.171C51.0209 154.159 50.6105 155.099 49.8988 155.785L48.358 157.254L50.518 159.5L52.0588 158.031C53.3644 156.771 54.1161 155.043 54.1485 153.229C54.1809 151.414 53.4914 149.661 52.2316 148.355C49.6396 145.633 45.2908 145.561 42.5835 148.196" fill="white"/>
<path d="M40.5389 151.307L61.8655 173.454L59.6191 175.614L56.2494 172.129L52.923 175.34C51.3678 176.838 49.323 177.644 47.163 177.616H47.1486C44.9885 177.572 42.9869 176.708 41.4893 175.153C40.7498 174.391 40.1692 173.489 39.7811 172.5C39.393 171.511 39.2052 170.455 39.2285 169.393C39.2717 167.233 40.1501 165.217 41.7053 163.72L43.9373 161.574L46.1118 163.82L43.8797 165.966C43.4089 166.417 43.0327 166.958 42.7731 167.556C42.5135 168.155 42.3757 168.799 42.3677 169.451C42.354 170.101 42.4688 170.747 42.7055 171.353C42.9422 171.958 43.2961 172.511 43.747 172.979C44.1979 173.447 44.7369 173.822 45.333 174.081C45.9291 174.341 46.5706 174.48 47.2206 174.491C48.5454 174.52 49.7982 174.016 50.763 173.094L54.0894 169.883L40.5389 155.828V151.307Z" fill="white"/>
</g>
<rect x="0.263672" y="225.479" width="99.3891" height="99.3891" rx="8.0716" fill="white"/>
<rect x="77.3516" y="232.148" width="14.9084" height="7.95117" rx="3.97558" fill="black"/>
<g filter="url(#filter2_d_9882_2907)">
<rect x="85.7998" y="233.639" width="4.96948" height="4.96948" rx="2.48474" fill="white"/>
</g>
<path d="M39.7207 272.815C41.461 269.331 44.3239 266.53 47.698 264.901C48.0927 264.713 48.4944 264.538 48.9001 264.38C48.9362 264.365 48.9211 264.311 48.882 264.318C36.8698 266.349 31.7152 281.343 39.7368 287.761C39.7679 287.786 39.8081 287.748 39.785 287.716C38.6201 286.112 35.8716 280.581 39.7207 272.815H39.7207ZM42.4803 282.813C42.1649 280.834 42.17 278.823 42.4825 276.882C43.1111 272.992 44.982 269.427 47.6732 266.784C48.1733 266.289 48.7045 265.832 49.2558 265.407C49.286 265.383 49.2581 265.336 49.2227 265.351C42.9434 268.17 39.3203 275.204 39.7842 281.613C40.0393 284.542 41.1861 289.935 46.7774 291C46.8126 291.006 46.8317 290.96 46.8025 290.94C44.5019 289.352 42.8841 285.638 42.4805 282.813L42.4803 282.813ZM34.719 268.366C37.5268 264.383 43.2898 261.695 48.9194 262.394C48.9595 262.399 48.9706 262.342 48.9324 262.332C44.6354 261.07 40.1658 261.916 37.4343 264.132C36.2624 265.082 35.3526 266.722 34.6628 268.333C34.6467 268.371 34.6959 268.398 34.719 268.366V268.366ZM66.4286 273.337C65.6865 264.222 57.5073 257.314 48.4384 258.146C45.2872 258.435 41.9161 259.743 39.4026 261.878C39.3715 261.904 39.4049 261.952 39.4397 261.931C41.5897 260.696 44.5521 260.726 46.2994 260.931C47.2202 261.039 48.1301 261.232 49.0107 261.506C49.8914 261.781 50.746 262.138 51.5594 262.568C51.9812 262.789 52.3919 263.033 52.7895 263.296C54.2727 262.633 55.8373 262.192 57.4129 261.97H57.4181C57.5296 261.954 57.6441 262.015 57.6822 262.122C57.7314 262.262 57.6451 262.404 57.5095 262.432C56.662 262.613 55.8275 262.858 55.0171 263.165C54.9819 263.179 54.991 263.232 55.0301 263.232C56.1789 263.236 57.3217 263.36 58.4333 263.593L58.4386 263.594C58.538 263.616 58.6174 263.694 58.6294 263.794C58.6475 263.959 58.5089 264.079 58.3623 264.059C57.3862 263.911 56.3961 263.851 55.4079 263.883C55.3698 263.884 55.3628 263.94 55.3999 263.951C55.8618 264.093 56.3157 264.256 56.7626 264.436C57.6021 264.78 58.4095 265.196 59.1767 265.669L59.1847 265.675C59.258 265.72 59.3062 265.802 59.2962 265.889C59.2741 266.075 59.0873 266.154 58.9487 266.078C58.1846 265.654 57.3872 265.291 56.5648 264.997C56.2183 264.876 55.8679 264.765 55.5154 264.668C55.4762 264.658 55.4542 264.709 55.4873 264.73C56.0647 265.096 56.616 265.497 57.1372 265.937C57.8311 266.52 58.4738 267.163 59.0562 267.854L59.0615 267.86C59.1178 267.927 59.1368 268.021 59.1007 268.1C59.0213 268.269 58.8175 268.286 58.71 268.168C58.1226 267.52 57.4799 266.922 56.792 266.382C56.3853 266.064 55.9595 265.77 55.5207 265.496C55.4866 265.475 55.4494 265.52 55.4775 265.55C55.6031 265.681 55.7256 265.817 55.8461 265.953C56.4466 266.64 56.9848 267.379 57.4498 268.16C57.9147 268.94 58.3074 269.763 58.6227 270.611L58.6257 270.617C58.6549 270.7 58.6417 270.796 58.5805 270.858C58.447 270.991 58.2481 270.937 58.1879 270.786C57.8625 269.973 57.4638 269.188 56.9969 268.448C56.5299 267.707 55.9947 267.01 55.4022 266.365C54.8087 265.723 54.157 265.134 53.4581 264.608C53.2613 264.459 52.963 264.252 52.8445 264.176C39.1945 271.82 43.9313 291.892 53.7825 290.849C61.6072 288.985 67.1031 281.614 66.4293 273.336L66.4286 273.337ZM36.7893 270.832C39.9375 265.821 45.4234 263.663 48.7845 263.34C48.8227 263.337 48.8227 263.277 48.7845 263.275C47.3957 263.154 46.1103 263.246 44.4273 263.598C42.7252 263.989 41.0863 264.664 39.6202 265.617C38.15 266.563 36.8536 267.778 35.8022 269.177C35.7922 269.19 35.7821 269.206 35.7711 269.219C33.7436 271.948 33.0929 275.452 33.8983 278.759C33.9897 279.137 34.2457 279.921 34.4195 280.419C34.4315 280.456 34.4867 280.443 34.4817 280.404C34.064 276.49 35.1967 273.367 36.7894 270.832" fill="black"/>
<rect x="0.263672" y="336.975" width="100.631" height="100.631" rx="8.0716" fill="white"/>
<rect x="77.29" y="344.43" width="14.9084" height="7.95117" rx="3.97558" fill="black"/>
<g filter="url(#filter3_d_9882_2907)">
<rect x="85.7383" y="345.92" width="4.96948" height="4.96948" rx="2.48474" fill="white"/>
</g>
<g clip-path="url(#clip2_9882_2907)">
<path d="M46.4307 370.381L38.2739 375.996C38.1939 376.047 38.1939 376.164 38.2739 376.222L41.4173 378.38C41.4609 378.41 41.5264 378.41 41.5701 378.38L46.5908 374.924C46.6272 374.902 46.649 374.858 46.649 374.815V370.498C46.649 370.388 46.5253 370.323 46.4307 370.381Z" fill="black"/>
<path d="M64.0102 389.888L52.9937 397.478C52.9574 397.508 52.9355 397.544 52.9355 397.588V401.905C52.9355 402.014 53.0593 402.08 53.1466 402.014L64.163 394.423C64.1994 394.394 64.2212 394.357 64.2212 394.314V389.997C64.2212 389.888 64.0975 389.822 64.0102 389.888Z" fill="black"/>
<path d="M58.0076 389.58C58.0513 389.609 58.1167 389.609 58.1604 389.58L61.2965 387.422C61.3765 387.371 61.3765 387.254 61.2965 387.196L53.1397 381.581C53.0524 381.515 52.9287 381.581 52.9287 381.69V386.007C52.9287 386.051 52.9506 386.095 52.9869 386.116L58.0076 389.58Z" fill="black"/>
<path d="M35.5665 378.687C35.4792 378.629 35.3555 378.687 35.3555 378.796V383.121C35.3555 383.164 35.3773 383.208 35.4137 383.23L46.4301 390.821C46.5174 390.886 46.6411 390.821 46.6411 390.711V386.395C46.6411 386.351 46.6193 386.307 46.5829 386.285L35.5665 378.687Z" fill="black"/>
</g>
<defs>
<filter id="filter0_d_9882_2907" x="84.4959" y="8.94531" width="7.45445" height="7.45348" filterUnits="userSpaceOnUse" color-interpolation-filters="sRGB">
<feFlood flood-opacity="0" result="BackgroundImageFix"/>
<feColorMatrix in="SourceAlpha" type="matrix" values="0 0 0 0 0 0 0 0 0 0 0 0 0 0 0 0 0 0 127 0" result="hardAlpha"/>
<feOffset dy="1.24236"/>
<feGaussianBlur stdDeviation="0.621182"/>
<feComposite in2="hardAlpha" operator="out"/>
<feColorMatrix type="matrix" values="0 0 0 0 0 0 0 0 0 0 0 0 0 0 0 0 0 0 0.15 0"/>
<feBlend mode="normal" in2="BackgroundImageFix" result="effect1_dropShadow_9882_2907"/>
<feBlend mode="normal" in="SourceGraphic" in2="effect1_dropShadow_9882_2907" result="shape"/>
</filter>
<filter id="filter1_d_9882_2907" x="77.5389" y="121.684" width="7.45445" height="7.45348" filterUnits="userSpaceOnUse" color-interpolation-filters="sRGB">
<feFlood flood-opacity="0" result="BackgroundImageFix"/>
<feColorMatrix in="SourceAlpha" type="matrix" values="0 0 0 0 0 0 0 0 0 0 0 0 0 0 0 0 0 0 127 0" result="hardAlpha"/>
<feOffset dy="1.24236"/>
<feGaussianBlur stdDeviation="0.621182"/>
<feComposite in2="hardAlpha" operator="out"/>
<feColorMatrix type="matrix" values="0 0 0 0 0 0 0 0 0 0 0 0 0 0 0 0 0 0 0.15 0"/>
<feBlend mode="normal" in2="BackgroundImageFix" result="effect1_dropShadow_9882_2907"/>
<feBlend mode="normal" in="SourceGraphic" in2="effect1_dropShadow_9882_2907" result="shape"/>
</filter>
<filter id="filter2_d_9882_2907" x="84.8059" y="233.639" width="6.95752" height="6.95654" filterUnits="userSpaceOnUse" color-interpolation-filters="sRGB">
<feFlood flood-opacity="0" result="BackgroundImageFix"/>
<feColorMatrix in="SourceAlpha" type="matrix" values="0 0 0 0 0 0 0 0 0 0 0 0 0 0 0 0 0 0 127 0" result="hardAlpha"/>
<feOffset dy="0.993896"/>
<feGaussianBlur stdDeviation="0.496948"/>
<feComposite in2="hardAlpha" operator="out"/>
<feColorMatrix type="matrix" values="0 0 0 0 0 0 0 0 0 0 0 0 0 0 0 0 0 0 0.15 0"/>
<feBlend mode="normal" in2="BackgroundImageFix" result="effect1_dropShadow_9882_2907"/>
<feBlend mode="normal" in="SourceGraphic" in2="effect1_dropShadow_9882_2907" result="shape"/>
</filter>
<filter id="filter3_d_9882_2907" x="84.4959" y="345.92" width="7.45445" height="7.45348" filterUnits="userSpaceOnUse" color-interpolation-filters="sRGB">
<feFlood flood-opacity="0" result="BackgroundImageFix"/>
<feColorMatrix in="SourceAlpha" type="matrix" values="0 0 0 0 0 0 0 0 0 0 0 0 0 0 0 0 0 0 127 0" result="hardAlpha"/>
<feOffset dy="1.24236"/>
<feGaussianBlur stdDeviation="0.621182"/>
<feComposite in2="hardAlpha" operator="out"/>
<feColorMatrix type="matrix" values="0 0 0 0 0 0 0 0 0 0 0 0 0 0 0 0 0 0 0.15 0"/>
<feBlend mode="normal" in2="BackgroundImageFix" result="effect1_dropShadow_9882_2907"/>
<feBlend mode="normal" in="SourceGraphic" in2="effect1_dropShadow_9882_2907" result="shape"/>
</filter>
<clipPath id="clip0_9882_2907">
<rect width="31.6803" height="24.077" fill="white" transform="translate(35.3555 38.9746)"/>
</clipPath>
<clipPath id="clip1_9882_2907">
<rect width="23.3282" height="31.6803" fill="white" transform="translate(39.083 146.123)"/>
</clipPath>
<clipPath id="clip2_9882_2907">
<rect width="28.8653" height="31.6803" fill="white" transform="translate(35.3555 370.359)"/>
</clipPath>
</defs>
</svg>
