<svg width="162" height="707" viewBox="0 0 162 707" fill="none" xmlns="http://www.w3.org/2000/svg">
<rect width="162" height="162" rx="12.9939" fill="#F9D2CB"/>
<rect x="124" y="12" width="24.0001" height="12.8001" rx="6.40003" fill="black"/>
<g filter="url(#filter0_d_9882_2519)">
<rect x="137.6" y="14.4004" width="8.00004" height="8.00004" rx="4.00002" fill="#F9D2CB"/>
</g>
<path fill-rule="evenodd" clip-rule="evenodd" d="M61.7902 61.3921C63.699 62.9354 64.3894 62.8135 67.9633 62.5698L101.631 60.5392C102.362 60.5392 101.753 59.8082 101.509 59.727L95.9045 55.7064C94.8486 54.8941 93.3866 53.9194 90.6655 54.1631L58.0945 56.5592C56.9167 56.6811 56.673 57.2902 57.1604 57.737L61.7902 61.3921ZM63.8208 69.2303V104.644C63.8208 106.553 64.7549 107.243 66.9073 107.122L103.905 104.969C106.058 104.847 106.301 103.548 106.301 102.004V66.8341C106.301 65.2909 105.692 64.438 104.392 64.5598L65.7296 66.8341C64.3082 66.956 63.8208 67.687 63.8208 69.2303ZM100.331 71.139C100.575 72.195 100.331 73.2915 99.2753 73.4133L97.4884 73.7788V99.9331C95.9451 100.745 94.5237 101.233 93.3053 101.233C91.3966 101.233 90.9092 100.624 89.4878 98.8366L77.832 80.5205V98.2274L81.5278 99.0397C81.5278 99.0397 81.5278 101.192 78.5631 101.192L70.3594 101.679C70.1157 101.192 70.3594 100.014 71.1716 99.7707L73.3241 99.1615V75.7688L70.3594 75.5252C70.1157 74.4692 70.7249 72.926 72.39 72.8041L81.2029 72.1949L93.3459 90.7142V74.3474L90.2594 73.9819C90.0157 72.6823 90.9904 71.7076 92.1682 71.5858L100.331 71.139ZM55.3735 53.3102L89.2847 50.8329C93.4272 50.4674 94.5237 50.7111 97.1229 52.6198L107.926 60.2143C109.713 61.5139 110.322 61.8794 110.322 63.3009V105.01C110.322 107.609 109.388 109.152 106.058 109.396L66.7043 111.792C64.1863 111.914 63.0086 111.548 61.709 109.883L53.7083 99.527C52.2869 97.6182 51.6777 96.1968 51.6777 94.5317V57.4527C51.6777 55.3002 52.6524 53.5539 55.3735 53.3102Z" fill="black"/>
<rect x="0.5" y="181.99" width="161" height="161" rx="12.4939" fill="black"/>
<rect x="0.5" y="181.99" width="161" height="161" rx="12.4939" stroke="#F9D2CB"/>
<rect x="124" y="193.49" width="24.0001" height="12.8001" rx="6.40003" fill="#F9D2CB"/>
<g filter="url(#filter1_d_9882_2519)">
<rect x="126.4" y="195.891" width="8.00004" height="8.00004" rx="4.00002" fill="black"/>
</g>
<mask id="mask0_9882_2519" style="mask-type:luminance" maskUnits="userSpaceOnUse" x="19" y="219" width="124" height="87">
<path d="M19.1377 219.543H143V305.176H19.1377V219.543Z" fill="white"/>
</mask>
<g mask="url(#mask0_9882_2519)">
<path fill-rule="evenodd" clip-rule="evenodd" d="M70.5668 228.918C74.565 224.798 80.1297 222.247 86.2772 222.247C94.474 222.247 101.578 226.754 105.403 233.47C108.798 231.967 112.476 231.192 116.195 231.194C130.95 231.194 142.926 243.137 142.926 257.875C142.926 272.613 130.95 284.557 116.195 284.557C114.392 284.557 112.634 284.377 110.913 284.038C107.566 289.942 101.168 293.954 93.882 293.954C90.9156 293.959 87.9872 293.293 85.3209 292.007C81.9284 299.894 74.0276 305.438 64.829 305.438C55.2206 305.438 47.0694 299.443 43.9273 291.015C42.5288 291.307 41.1033 291.454 39.6741 291.453C28.2441 291.453 19 282.169 19 270.766C19 263.104 23.1621 256.434 29.337 252.828C28.027 249.841 27.3527 246.619 27.3561 243.363C27.3561 230.203 38.1486 219.566 51.4455 219.566C59.2325 219.566 66.1997 223.24 70.5713 228.941" fill="#F9D2CB"/>
<path fill-rule="evenodd" clip-rule="evenodd" d="M37.0506 264.072C36.9728 264.273 37.0784 264.315 37.1034 264.35C37.3361 264.517 37.5725 264.638 37.8093 264.773C39.0752 265.436 40.2683 265.63 41.516 265.63C44.057 265.63 45.6372 264.291 45.6372 262.137V262.094C45.6372 260.102 43.8521 259.377 42.1854 258.858L41.9673 258.789C40.7059 258.384 39.6176 258.031 39.6176 257.211V257.169C39.6176 256.466 40.2551 255.948 41.2387 255.948C42.3316 255.948 43.634 256.308 44.4673 256.764C44.4673 256.764 44.7141 256.921 44.8039 256.686C44.8526 256.558 45.2774 255.433 45.323 255.306C45.3713 255.174 45.2866 255.075 45.1996 255.023C44.2433 254.446 42.9227 254.054 41.5566 254.054L41.3029 254.055C38.976 254.055 37.3503 255.448 37.3503 257.44V257.483C37.3503 259.583 39.1444 260.268 40.8202 260.741L41.0898 260.824C42.3102 261.196 43.3667 261.518 43.3667 262.366V262.408C43.3667 263.188 42.6791 263.769 41.5771 263.769C41.1486 263.769 39.7829 263.762 38.3029 262.836C38.1239 262.733 38.0219 262.659 37.884 262.575C37.8111 262.532 37.629 262.453 37.5497 262.689L37.0488 264.068M74.253 264.068C74.1751 264.269 74.2808 264.311 74.3067 264.347C74.5385 264.513 74.7758 264.634 75.0126 264.77C76.2785 265.432 77.4716 265.626 78.7193 265.626C81.2603 265.626 82.8405 264.288 82.8405 262.133V262.091C82.8405 260.099 81.06 259.373 79.3887 258.855L79.1706 258.785C77.9092 258.38 76.8209 258.028 76.8209 257.207V257.166C76.8209 256.462 77.4584 255.944 78.442 255.944C79.5349 255.944 80.8327 256.304 81.6706 256.76C81.6706 256.76 81.9174 256.918 82.0076 256.682C82.0559 256.554 82.4812 255.429 82.5222 255.303C82.5709 255.171 82.4858 255.071 82.3992 255.02C81.4429 254.443 80.1224 254.051 78.7562 254.051L78.5021 254.052C76.1752 254.052 74.5495 255.444 74.5495 257.436V257.479C74.5495 259.58 76.3436 260.265 78.0194 260.738L78.2885 260.821C79.5135 261.192 80.5654 261.515 80.5654 262.362V262.405C80.5654 263.184 79.8778 263.766 78.7758 263.766C78.3464 263.766 76.9771 263.758 75.5016 262.833C75.3227 262.729 75.218 262.658 75.0822 262.572C75.0363 262.543 74.8218 262.46 74.7485 262.685L74.2475 264.064M99.6575 259.846C99.6575 261.063 99.428 262.023 98.979 262.703C98.5309 263.375 97.8542 263.704 96.9116 263.704C95.969 263.704 95.295 263.378 94.8533 262.708C94.4084 262.032 94.1839 261.067 94.1839 259.85C94.1839 258.634 94.4098 257.678 94.8533 257.006C95.2941 256.339 95.9644 256.019 96.9116 256.019C97.8588 256.019 98.5327 256.343 98.979 257.006C99.4307 257.678 99.6575 258.634 99.6575 259.85M101.78 257.592C101.571 256.894 101.247 256.281 100.814 255.767C100.381 255.253 99.8351 254.839 99.1839 254.541C98.5373 254.241 97.7723 254.09 96.9071 254.09C96.0418 254.09 95.2814 254.242 94.6302 254.541C93.9835 254.84 93.4325 255.253 92.9999 255.767C92.5682 256.281 92.244 256.894 92.0345 257.592C91.8273 258.286 91.7221 259.044 91.7221 259.85C91.7221 260.657 91.8273 261.414 92.0345 262.108C92.2426 262.807 92.5673 263.42 92.9999 263.934C93.433 264.448 93.9835 264.858 94.6302 265.151C95.2814 265.443 96.0464 265.591 96.9071 265.591C97.7677 265.591 98.5327 265.443 99.1794 265.151C99.826 264.859 100.377 264.448 100.81 263.934C101.242 263.42 101.566 262.807 101.775 262.108C101.982 261.414 102.087 260.657 102.087 259.85C102.087 259.048 101.982 258.286 101.775 257.592M119.216 263.361C119.146 263.157 118.945 263.234 118.945 263.234C118.637 263.351 118.307 263.459 117.957 263.513C117.603 263.568 117.21 263.596 116.796 263.596C115.771 263.596 114.951 263.293 114.368 262.694C113.781 262.095 113.453 261.13 113.458 259.823C113.461 258.634 113.751 257.741 114.273 257.056C114.787 256.38 115.58 256.028 116.627 256.028C117.501 256.028 118.171 256.129 118.872 256.346C118.872 256.346 119.038 256.418 119.118 256.201C119.304 255.692 119.442 255.327 119.642 254.768C119.698 254.608 119.56 254.54 119.509 254.521C119.234 254.414 118.585 254.24 118.093 254.167C117.633 254.097 117.1 254.061 116.499 254.061C115.607 254.061 114.814 254.212 114.136 254.511C113.457 254.81 112.883 255.224 112.428 255.737C111.973 256.251 111.627 256.864 111.394 257.563C111.164 258.257 111.048 259.018 111.048 259.825C111.048 261.565 111.522 262.976 112.46 264.008C113.398 265.044 114.81 265.567 116.649 265.567C117.738 265.567 118.853 265.349 119.655 265.035C119.655 265.035 119.808 264.962 119.741 264.786L119.218 263.361M122.929 258.674C123.031 257.998 123.218 257.435 123.512 256.997C123.952 256.33 124.623 255.965 125.566 255.965C126.508 255.965 127.132 256.332 127.578 256.997C127.874 257.437 128.004 258.021 128.052 258.674L122.906 258.673L122.929 258.674ZM130.078 257.187C129.898 256.515 129.45 255.835 129.159 255.524C128.694 255.032 128.243 254.685 127.792 254.496C127.142 254.222 126.441 254.082 125.734 254.083C124.837 254.083 124.022 254.233 123.362 254.538C122.701 254.845 122.146 255.264 121.709 255.786C121.272 256.309 120.944 256.927 120.734 257.634C120.525 258.333 120.419 259.099 120.419 259.901C120.419 260.722 120.529 261.483 120.745 262.173C120.963 262.867 121.314 263.475 121.787 263.98C122.261 264.489 122.867 264.886 123.595 265.166C124.319 265.443 125.198 265.586 126.205 265.583C128.281 265.577 129.374 265.119 129.82 264.871C129.9 264.827 129.975 264.751 129.881 264.531L129.412 263.229C129.34 263.035 129.142 263.105 129.142 263.105C128.627 263.295 127.899 263.637 126.191 263.632C125.075 263.63 124.251 263.305 123.732 262.794C123.204 262.271 122.94 261.509 122.899 260.428L130.093 260.433C130.093 260.433 130.283 260.431 130.302 260.248C130.31 260.173 130.549 258.788 130.088 257.188L130.078 257.187ZM65.4151 258.674C65.5166 257.998 65.7042 257.435 65.998 256.997C66.4388 256.33 67.1091 255.965 68.0517 255.965C68.9943 255.965 69.6182 256.332 70.0645 256.997C70.36 257.437 70.4893 258.021 70.5381 258.674L65.3923 258.673L65.4151 258.674ZM72.5645 257.187C72.3841 256.515 71.9361 255.835 71.6446 255.524C71.1801 255.032 70.7293 254.685 70.2785 254.496C69.6276 254.222 68.9274 254.082 68.2202 254.083C67.3231 254.083 66.508 254.233 65.8477 254.538C65.1874 254.845 64.6318 255.264 64.1947 255.786C63.7589 256.309 63.4296 256.927 63.2202 257.634C63.0111 258.333 62.906 259.099 62.906 259.901C62.906 260.722 63.0148 261.483 63.232 262.173C63.4497 262.867 63.8012 263.475 64.2703 263.98C64.7439 264.489 65.3495 264.886 66.0781 265.166C66.8022 265.443 67.6765 265.586 68.6874 265.583C70.7639 265.577 71.8568 265.119 72.3031 264.871C72.3823 264.827 72.4579 264.751 72.3637 264.531L71.8946 263.229C71.8222 263.035 71.6237 263.105 71.6237 263.105C71.1091 263.295 70.3805 263.637 68.6728 263.632C67.5617 263.63 66.7329 263.305 66.2138 262.794C65.6856 262.271 65.4215 261.509 65.3805 260.428L72.5754 260.433C72.5754 260.433 72.7648 260.431 72.7844 260.248C72.7922 260.173 73.0308 258.788 72.5695 257.188L72.5645 257.187ZM49.8868 263.316C49.6049 263.094 49.5657 263.039 49.4724 262.894C49.3298 262.677 49.257 262.367 49.257 261.97C49.257 261.349 49.4664 260.898 49.8991 260.596C49.8945 260.597 50.5184 260.064 51.9847 260.082C52.6373 260.094 53.2885 260.149 53.9337 260.247V263.478H53.9346C53.9346 263.478 53.0238 263.672 51.9947 263.734C50.5329 263.821 49.8863 263.317 49.8909 263.319L49.8868 263.316ZM52.7465 258.314C52.4551 258.292 52.0771 258.282 51.6263 258.282C51.0115 258.282 50.415 258.358 49.8594 258.506C49.2993 258.656 48.7939 258.888 48.3612 259.196C47.9275 259.502 47.5707 259.903 47.3184 260.368C47.0639 260.837 46.9341 261.386 46.9341 262.008C46.9341 262.639 47.0448 263.185 47.2633 263.631C47.4775 264.073 47.8 264.456 48.2014 264.744C48.6008 265.032 49.094 265.244 49.6632 265.371C50.2278 265.498 50.8654 265.563 51.5666 265.563C52.3044 265.563 53.0375 265.501 53.7479 265.383C54.3529 265.279 54.9557 265.163 55.5557 265.035C55.7953 264.98 56.0612 264.909 56.0612 264.909C56.2388 264.864 56.2251 264.676 56.2251 264.676L56.221 258.186C56.221 256.762 55.8367 255.703 55.078 255.049C54.3221 254.396 53.2156 254.067 51.7811 254.067C51.2438 254.067 50.374 254.139 49.8549 254.242C49.8549 254.242 48.2884 254.543 47.6418 255.044C47.6418 255.044 47.4997 255.131 47.5771 255.327L48.0871 256.679C48.1504 256.854 48.323 256.794 48.323 256.794C48.323 256.794 48.3772 256.773 48.4409 256.736C49.8207 255.992 51.5694 256.014 51.5694 256.014C52.3435 256.014 52.9446 256.17 53.3453 256.474C53.7374 256.772 53.9373 257.222 53.9373 258.169V258.469C53.3226 258.381 52.7534 258.33 52.7534 258.33L52.7465 258.314ZM110.579 254.649C110.59 254.626 110.595 254.6 110.595 254.574C110.595 254.548 110.59 254.523 110.58 254.499C110.57 254.475 110.555 254.453 110.537 254.435C110.518 254.417 110.496 254.403 110.471 254.393C110.349 254.347 109.738 254.22 109.269 254.191C108.367 254.135 107.867 254.286 107.416 254.486C106.97 254.684 106.478 255.004 106.204 255.374L106.204 254.508C106.204 254.389 106.118 254.293 105.997 254.293H104.158C104.038 254.293 103.952 254.389 103.952 254.508V265.1C103.952 265.157 103.975 265.212 104.016 265.252C104.057 265.293 104.112 265.315 104.17 265.316H106.055C106.113 265.315 106.168 265.293 106.209 265.252C106.25 265.212 106.273 265.157 106.273 265.1V259.781C106.273 259.069 106.352 258.362 106.51 257.916C106.666 257.474 106.878 257.122 107.138 256.87C107.387 256.626 107.692 256.445 108.026 256.343C108.34 256.253 108.665 256.208 108.992 256.208C109.368 256.208 109.78 256.304 109.78 256.304C109.918 256.319 109.995 256.235 110.042 256.112C110.165 255.787 110.516 254.814 110.584 254.62" fill="black"/>
<path fill-rule="evenodd" clip-rule="evenodd" d="M92.9716 249.761C92.7386 249.692 92.5015 249.636 92.2617 249.595C91.9391 249.541 91.6124 249.516 91.2854 249.52C89.9862 249.52 88.962 249.883 88.243 250.601C87.529 251.313 87.0431 252.398 86.7995 253.825L86.7116 254.307H85.0809C85.0809 254.307 84.8819 254.299 84.84 254.514L84.5722 255.992C84.5535 256.133 84.615 256.222 84.8063 256.221H86.3937L84.783 265.119C84.6569 265.836 84.5126 266.425 84.3527 266.872C84.1952 267.313 84.0412 267.643 83.8518 267.883C83.6683 268.115 83.4943 268.286 83.1942 268.385C82.9465 268.468 82.6614 268.506 82.3491 268.506C82.1751 268.506 81.9438 268.477 81.773 268.443C81.6022 268.41 81.5134 268.372 81.3855 268.319C81.3855 268.319 81.1992 268.248 81.1259 268.433C81.0663 268.584 80.6432 269.736 80.5931 269.878C80.5421 270.019 80.6136 270.13 80.7038 270.162C80.9151 270.236 81.0722 270.284 81.36 270.351C81.7598 270.445 82.0968 270.45 82.4124 270.45C83.0736 270.45 83.676 270.358 84.1756 270.18C84.6783 270 85.1159 269.687 85.503 269.263C85.9215 268.805 86.1847 268.326 86.4365 267.673C86.6856 267.025 86.8978 266.221 87.0677 265.284L88.6861 256.221H91.0522C91.0522 256.221 91.2517 256.228 91.2931 256.014L91.5609 254.536C91.5795 254.394 91.5185 254.306 91.3263 254.307H89.0299C89.0413 254.255 89.1456 253.456 89.4092 252.703C89.5217 252.382 89.7334 252.123 89.9129 251.945C90.0804 251.775 90.2867 251.648 90.5144 251.574C90.764 251.498 91.0241 251.461 91.2854 251.464C91.5017 251.464 91.7139 251.49 91.8755 251.523C92.0982 251.57 92.1847 251.595 92.243 251.612C92.4771 251.683 92.5085 251.614 92.5545 251.502L93.1037 250.009C93.1601 249.849 93.0226 249.781 92.9716 249.761ZM60.8795 265.138C60.8795 265.257 60.7938 265.354 60.6736 265.354H58.7688C58.6481 265.354 58.5625 265.257 58.5625 265.138V249.964C58.5625 249.845 58.6481 249.749 58.7688 249.749H60.6736C60.7938 249.749 60.8795 249.845 60.8795 249.964V265.138Z" fill="black"/>
</g>
<rect x="0.5" y="363.482" width="161" height="161" rx="12.4939" fill="black"/>
<rect x="0.5" y="363.482" width="161" height="161" rx="12.4939" stroke="#F9D2CB"/>
<rect x="124" y="374.982" width="24.0001" height="12.8001" rx="6.40003" fill="#F9D2CB"/>
<g filter="url(#filter2_d_9882_2519)">
<rect x="126.4" y="377.383" width="8.00004" height="8.00004" rx="4.00002" fill="black"/>
</g>
<g clip-path="url(#clip0_9882_2519)">
<path d="M70.9385 433.448V440.416V417.234H108.002V454.353H70.9385V440.416V454.353H94.1028V426.479H70.9385V433.448V440.416V417.234H108.002V454.353H70.9385V440.416V454.353H94.1028V426.479H70.9385V433.448Z" fill="#F9D2CB"/>
<path d="M94.0631 445.052V431.115H70.8987V458.989H94.0631V445.052V468.234H57V431.115H94.0631V445.052Z" fill="#F9D2CB"/>
</g>
<rect y="544.473" width="162" height="162" rx="12.9939" fill="#F9D2CB"/>
<rect x="124" y="556.473" width="24.0001" height="12.8001" rx="6.40003" fill="black"/>
<g filter="url(#filter3_d_9882_2519)">
<rect x="137.6" y="558.873" width="8.00004" height="8.00004" rx="4.00002" fill="#F9D2CB"/>
</g>
<g clip-path="url(#clip1_9882_2519)">
<path d="M54.6797 612.525H66.042V639.549H71.6992V650.109H54.6797V612.525ZM107.273 637.389H95.9102V610.365H90.253V599.805H107.273V637.389Z" fill="black"/>
<path d="M52.043 597.213H87.9518V628.077L74.1444 610.269H52.043V597.213ZM109.861 652.749H73.9526V621.885L87.7601 639.693H109.861" fill="black"/>
</g>
<defs>
<filter id="filter0_d_9882_2519" x="135.6" y="14.4004" width="12" height="12" filterUnits="userSpaceOnUse" color-interpolation-filters="sRGB">
<feFlood flood-opacity="0" result="BackgroundImageFix"/>
<feColorMatrix in="SourceAlpha" type="matrix" values="0 0 0 0 0 0 0 0 0 0 0 0 0 0 0 0 0 0 127 0" result="hardAlpha"/>
<feOffset dy="2"/>
<feGaussianBlur stdDeviation="1"/>
<feComposite in2="hardAlpha" operator="out"/>
<feColorMatrix type="matrix" values="0 0 0 0 0 0 0 0 0 0 0 0 0 0 0 0 0 0 0.15 0"/>
<feBlend mode="normal" in2="BackgroundImageFix" result="effect1_dropShadow_9882_2519"/>
<feBlend mode="normal" in="SourceGraphic" in2="effect1_dropShadow_9882_2519" result="shape"/>
</filter>
<filter id="filter1_d_9882_2519" x="124.4" y="195.891" width="12" height="12" filterUnits="userSpaceOnUse" color-interpolation-filters="sRGB">
<feFlood flood-opacity="0" result="BackgroundImageFix"/>
<feColorMatrix in="SourceAlpha" type="matrix" values="0 0 0 0 0 0 0 0 0 0 0 0 0 0 0 0 0 0 127 0" result="hardAlpha"/>
<feOffset dy="2"/>
<feGaussianBlur stdDeviation="1"/>
<feComposite in2="hardAlpha" operator="out"/>
<feColorMatrix type="matrix" values="0 0 0 0 0 0 0 0 0 0 0 0 0 0 0 0 0 0 0.15 0"/>
<feBlend mode="normal" in2="BackgroundImageFix" result="effect1_dropShadow_9882_2519"/>
<feBlend mode="normal" in="SourceGraphic" in2="effect1_dropShadow_9882_2519" result="shape"/>
</filter>
<filter id="filter2_d_9882_2519" x="124.4" y="377.383" width="12" height="12" filterUnits="userSpaceOnUse" color-interpolation-filters="sRGB">
<feFlood flood-opacity="0" result="BackgroundImageFix"/>
<feColorMatrix in="SourceAlpha" type="matrix" values="0 0 0 0 0 0 0 0 0 0 0 0 0 0 0 0 0 0 127 0" result="hardAlpha"/>
<feOffset dy="2"/>
<feGaussianBlur stdDeviation="1"/>
<feComposite in2="hardAlpha" operator="out"/>
<feColorMatrix type="matrix" values="0 0 0 0 0 0 0 0 0 0 0 0 0 0 0 0 0 0 0.15 0"/>
<feBlend mode="normal" in2="BackgroundImageFix" result="effect1_dropShadow_9882_2519"/>
<feBlend mode="normal" in="SourceGraphic" in2="effect1_dropShadow_9882_2519" result="shape"/>
</filter>
<filter id="filter3_d_9882_2519" x="135.6" y="558.873" width="12" height="12" filterUnits="userSpaceOnUse" color-interpolation-filters="sRGB">
<feFlood flood-opacity="0" result="BackgroundImageFix"/>
<feColorMatrix in="SourceAlpha" type="matrix" values="0 0 0 0 0 0 0 0 0 0 0 0 0 0 0 0 0 0 127 0" result="hardAlpha"/>
<feOffset dy="2"/>
<feGaussianBlur stdDeviation="1"/>
<feComposite in2="hardAlpha" operator="out"/>
<feColorMatrix type="matrix" values="0 0 0 0 0 0 0 0 0 0 0 0 0 0 0 0 0 0 0.15 0"/>
<feBlend mode="normal" in2="BackgroundImageFix" result="effect1_dropShadow_9882_2519"/>
<feBlend mode="normal" in="SourceGraphic" in2="effect1_dropShadow_9882_2519" result="shape"/>
</filter>
<clipPath id="clip0_9882_2519">
<rect width="51" height="51" fill="white" transform="translate(57 417.234)"/>
</clipPath>
<clipPath id="clip1_9882_2519">
<rect width="72" height="72" fill="white" transform="translate(45 589.725)"/>
</clipPath>
</defs>
</svg>
