<svg width="162" height="523" viewBox="0 0 162 523" fill="none" xmlns="http://www.w3.org/2000/svg">
<rect width="162" height="162" rx="12.9939" fill="#F9D2CB"/>
<rect x="124" y="12" width="24.0001" height="12.8001" rx="6.40003" fill="black"/>
<g filter="url(#filter0_d_9882_2498)">
<rect x="137.6" y="14.4004" width="8.00004" height="8.00004" rx="4.00002" fill="#F9D2CB"/>
</g>
<path d="M47.6109 100.216C46.8663 101.48 46.03 102.946 45.3197 104.115C44.684 105.233 45.0252 106.675 46.0873 107.358L60.98 116.895C61.5028 117.231 62.1333 117.335 62.73 117.182C63.3266 117.03 63.8395 116.634 64.1533 116.085C64.749 115.047 65.5166 113.7 66.3529 112.258C72.2527 102.124 78.1869 103.364 88.8868 108.681L103.654 115.989C104.213 116.266 104.856 116.296 105.437 116.071C106.017 115.847 106.486 115.387 106.735 114.797L113.826 98.1059C114.327 96.9138 113.818 95.5238 112.681 94.9823C109.565 93.4562 103.367 90.4161 97.7881 87.6143C77.7172 77.4685 60.6593 78.1242 47.6109 100.216Z" fill="black"/>
<path d="M114.389 62.338C115.134 61.0742 115.97 59.6078 116.681 58.4394C117.316 57.3213 116.975 55.8794 115.913 55.1965L101.02 45.6587C100.493 45.2893 99.8426 45.1642 99.2235 45.3134C98.6045 45.4626 98.0728 45.8727 97.7554 46.4456C97.1597 47.4828 96.3921 48.83 95.5559 50.2726C89.656 60.4066 83.7218 59.1667 73.0219 53.8493L58.301 46.5767C57.7417 46.2997 57.0985 46.2701 56.5179 46.4947C55.9374 46.7193 55.4689 47.179 55.2193 47.769L48.1281 64.4602C47.6271 65.6523 48.1369 67.0423 49.2737 67.5838C52.3897 69.1099 58.5874 72.15 64.1665 74.9518C84.2832 85.0857 101.341 84.4061 114.389 62.338Z" fill="black"/>
<rect x="0.5" y="181.99" width="161" height="161" rx="12.4939" fill="black"/>
<rect x="0.5" y="181.99" width="161" height="161" rx="12.4939" stroke="#F9D2CB"/>
<rect x="124" y="193.49" width="24.0001" height="12.8001" rx="6.40003" fill="#F9D2CB"/>
<g filter="url(#filter1_d_9882_2498)">
<rect x="126.4" y="195.891" width="8.00004" height="8.00004" rx="4.00002" fill="black"/>
</g>
<path d="M75.7441 256.524C83.692 252.165 94.4602 246.14 94.4602 228.578H81.2564C81.2564 238.321 76.5133 241.013 69.2063 244.987C61.2584 249.345 50.4902 255.37 50.4902 272.933H63.5658C63.694 263.19 68.4371 260.626 75.7441 256.524Z" fill="#F9D2CB"/>
<path d="M98.4341 252.551C98.4341 262.293 93.691 264.985 86.384 268.959C78.4361 273.318 67.668 279.343 67.668 296.905H80.7436C80.7436 287.163 85.4867 284.471 92.7936 280.497C100.742 276.138 111.51 270.113 111.51 252.551H98.4341Z" fill="#F9D2CB"/>
<rect y="362.982" width="160" height="160" rx="12.9939" fill="#F9D2CB"/>
<rect x="124" y="374.686" width="24.0001" height="12.8001" rx="6.40003" fill="black"/>
<g filter="url(#filter2_d_9882_2498)">
<rect x="137.6" y="377.086" width="8.00004" height="8.00004" rx="4.00002" fill="#F9D2CB"/>
</g>
<path d="M63.4234 440.156C66.225 434.547 70.8339 430.038 76.2656 427.416C76.901 427.112 77.5476 426.831 78.2007 426.576C78.2589 426.552 78.2346 426.466 78.1716 426.477C58.8339 429.746 50.536 453.885 63.4493 464.216C63.4994 464.256 63.5641 464.195 63.5269 464.144C61.6517 461.561 57.227 452.658 63.4235 440.156H63.4234ZM67.8659 456.251C67.3583 453.065 67.3663 449.828 67.8695 446.702C68.8815 440.44 71.8932 434.701 76.2257 430.447C77.0307 429.65 77.8859 428.914 78.7734 428.229C78.8219 428.192 78.777 428.116 78.7201 428.14C68.6115 432.678 62.7788 444.002 63.5257 454.318C63.9363 459.033 65.7825 467.716 74.7836 469.431C74.8402 469.441 74.8709 469.366 74.824 469.333C71.1204 466.778 68.5161 460.798 67.8662 456.251L67.8659 456.251ZM55.3716 432.993C59.8916 426.581 69.1692 422.254 78.2318 423.38C78.2964 423.388 78.3142 423.295 78.2528 423.279C71.3354 421.248 64.1399 422.61 59.7428 426.177C57.8562 427.706 56.3916 430.346 55.281 432.941C55.2552 433.001 55.3343 433.045 55.3716 432.993V432.993ZM106.419 440.995C105.224 426.322 92.0569 415.202 77.4574 416.541C72.3846 417.005 66.9577 419.111 62.9114 422.548C62.8613 422.591 62.915 422.668 62.9711 422.634C66.4322 420.646 71.2012 420.694 74.0141 421.024C75.4965 421.198 76.9611 421.509 78.3789 421.949C79.7966 422.392 81.1723 422.967 82.4818 423.659C83.1607 424.016 83.8219 424.409 84.4621 424.831C86.8498 423.764 89.3684 423.055 91.9049 422.698H91.9134C92.0928 422.672 92.2771 422.769 92.3385 422.941C92.4177 423.167 92.2787 423.396 92.0605 423.441C90.6961 423.732 89.3527 424.126 88.0481 424.62C87.9915 424.643 88.006 424.729 88.0691 424.729C89.9184 424.735 91.7581 424.935 93.5477 425.31L93.5562 425.311C93.7162 425.347 93.8439 425.472 93.8633 425.633C93.8924 425.899 93.6693 426.092 93.4333 426.06C91.862 425.821 90.268 425.725 88.6773 425.777C88.6158 425.778 88.6046 425.868 88.6643 425.886C89.408 426.115 90.1387 426.376 90.8581 426.667C92.2095 427.221 93.5093 427.889 94.7443 428.651L94.7573 428.662C94.8753 428.733 94.9529 428.866 94.9367 429.006C94.9012 429.305 94.6005 429.433 94.3774 429.31C93.1472 428.628 91.8636 428.043 90.5396 427.569C89.9819 427.374 89.4177 427.196 88.8503 427.04C88.7872 427.024 88.7517 427.107 88.8051 427.141C89.7346 427.73 90.6221 428.375 91.4611 429.082C92.5782 430.022 93.6128 431.057 94.5504 432.169L94.5589 432.179C94.6495 432.287 94.6802 432.438 94.622 432.565C94.4943 432.838 94.1661 432.865 93.9931 432.675C93.0474 431.631 92.0128 430.669 90.9054 429.8C90.2507 429.287 89.5653 428.815 88.8588 428.373C88.8039 428.339 88.744 428.412 88.7893 428.461C88.9914 428.672 89.1886 428.889 89.3826 429.108C90.3493 430.214 91.2158 431.404 91.9643 432.662C92.7128 433.917 93.3449 435.242 93.8525 436.608L93.8574 436.617C93.9043 436.751 93.8832 436.905 93.7846 437.005C93.5696 437.22 93.2495 437.132 93.1525 436.889C92.6287 435.58 91.987 434.317 91.2352 433.125C90.4835 431.932 89.6219 430.81 88.6681 429.772C87.7127 428.738 86.6635 427.79 85.5384 426.944C85.2215 426.704 84.7414 426.371 84.5506 426.248C62.5763 438.554 70.2018 470.867 86.0605 469.188C98.657 466.186 107.505 454.321 106.42 440.995L106.419 440.995ZM58.7045 436.963C63.7725 428.896 72.6039 425.423 78.0146 424.902C78.0761 424.897 78.0761 424.801 78.0146 424.798C75.7789 424.603 73.7097 424.751 71.0002 425.317C68.2601 425.947 65.6218 427.034 63.2616 428.568C60.8949 430.091 58.8079 432.047 57.1153 434.299C57.0992 434.32 57.083 434.346 57.0653 434.367C53.8014 438.759 52.7538 444.401 54.0503 449.725C54.1974 450.334 54.6097 451.595 54.8893 452.397C54.9087 452.456 54.9976 452.436 54.9896 452.373C54.3171 446.072 56.1406 441.043 58.7045 436.963" fill="black"/>
<defs>
<filter id="filter0_d_9882_2498" x="135.6" y="14.4004" width="12" height="12" filterUnits="userSpaceOnUse" color-interpolation-filters="sRGB">
<feFlood flood-opacity="0" result="BackgroundImageFix"/>
<feColorMatrix in="SourceAlpha" type="matrix" values="0 0 0 0 0 0 0 0 0 0 0 0 0 0 0 0 0 0 127 0" result="hardAlpha"/>
<feOffset dy="2"/>
<feGaussianBlur stdDeviation="1"/>
<feComposite in2="hardAlpha" operator="out"/>
<feColorMatrix type="matrix" values="0 0 0 0 0 0 0 0 0 0 0 0 0 0 0 0 0 0 0.15 0"/>
<feBlend mode="normal" in2="BackgroundImageFix" result="effect1_dropShadow_9882_2498"/>
<feBlend mode="normal" in="SourceGraphic" in2="effect1_dropShadow_9882_2498" result="shape"/>
</filter>
<filter id="filter1_d_9882_2498" x="124.4" y="195.891" width="12" height="12" filterUnits="userSpaceOnUse" color-interpolation-filters="sRGB">
<feFlood flood-opacity="0" result="BackgroundImageFix"/>
<feColorMatrix in="SourceAlpha" type="matrix" values="0 0 0 0 0 0 0 0 0 0 0 0 0 0 0 0 0 0 127 0" result="hardAlpha"/>
<feOffset dy="2"/>
<feGaussianBlur stdDeviation="1"/>
<feComposite in2="hardAlpha" operator="out"/>
<feColorMatrix type="matrix" values="0 0 0 0 0 0 0 0 0 0 0 0 0 0 0 0 0 0 0.15 0"/>
<feBlend mode="normal" in2="BackgroundImageFix" result="effect1_dropShadow_9882_2498"/>
<feBlend mode="normal" in="SourceGraphic" in2="effect1_dropShadow_9882_2498" result="shape"/>
</filter>
<filter id="filter2_d_9882_2498" x="136" y="377.086" width="11.2" height="11.2" filterUnits="userSpaceOnUse" color-interpolation-filters="sRGB">
<feFlood flood-opacity="0" result="BackgroundImageFix"/>
<feColorMatrix in="SourceAlpha" type="matrix" values="0 0 0 0 0 0 0 0 0 0 0 0 0 0 0 0 0 0 127 0" result="hardAlpha"/>
<feOffset dy="1.60001"/>
<feGaussianBlur stdDeviation="0.800004"/>
<feComposite in2="hardAlpha" operator="out"/>
<feColorMatrix type="matrix" values="0 0 0 0 0 0 0 0 0 0 0 0 0 0 0 0 0 0 0.15 0"/>
<feBlend mode="normal" in2="BackgroundImageFix" result="effect1_dropShadow_9882_2498"/>
<feBlend mode="normal" in="SourceGraphic" in2="effect1_dropShadow_9882_2498" result="shape"/>
</filter>
</defs>
</svg>
