<svg width="102" height="439" viewBox="0 0 102 439" fill="none" xmlns="http://www.w3.org/2000/svg">
<rect x="0.942427" y="0.310591" width="100.01" height="100.01" rx="7.76101" fill="black"/>
<rect x="0.942427" y="0.310591" width="100.01" height="100.01" rx="7.76101" stroke="white" stroke-width="0.621182"/>
<rect x="77.6582" y="7.45508" width="14.9084" height="7.95117" rx="3.97558" fill="white"/>
<g filter="url(#filter0_d_9882_2872)">
<rect x="79.1494" y="8.94531" width="4.96948" height="4.96948" rx="2.48474" fill="black"/>
</g>
<path d="M46.0371 49.0481C46.0371 49.0481 47.7084 37.1767 57.6785 37.1113H69.2671C69.2671 37.1113 66.9791 49.0481 57.4772 49.0481H46.0371Z" fill="white"/>
<path d="M33.8604 63.2004C33.8604 63.2004 35.5317 51.329 45.498 51.2637H57.0853C57.0853 51.2637 54.7973 63.2004 45.2954 63.2004H33.8604Z" fill="white"/>
<rect x="0.631836" y="112.738" width="100.631" height="100.631" rx="8.0716" fill="white"/>
<rect x="77.6582" y="120.193" width="14.9084" height="7.95117" rx="3.97558" fill="black"/>
<g filter="url(#filter1_d_9882_2872)">
<rect x="86.1064" y="121.684" width="4.96948" height="4.96948" rx="2.48474" fill="white"/>
</g>
<path fill-rule="evenodd" clip-rule="evenodd" d="M47.1604 146.123L36.7791 148.815L33.9182 159.152L37.4963 162.789L33.8604 166.367L36.5529 176.749L46.8892 179.608L50.5259 176.03L54.1041 179.667L64.4854 176.975L67.3457 166.637L63.7682 163.001L67.4042 159.424L64.7116 149.041L54.3739 146.182L50.7386 149.759L47.1604 146.123ZM40.7898 150.803L46.2584 149.385L48.6498 151.815L45.1622 155.247L40.7898 150.803ZM52.7946 151.848L55.2245 149.457L60.6696 150.964L56.2258 155.336L52.7946 151.848ZM37.1945 158.303L38.701 152.859L43.072 157.302L39.5852 160.733L37.1945 158.303ZM58.2803 157.425L62.7241 153.052L64.1414 158.521L61.7122 160.912L58.2803 157.425ZM47.2175 157.335L50.7051 153.904L54.1355 157.392L50.6487 160.823L47.2175 157.335ZM41.6411 162.822L45.128 159.391L48.5606 162.878L45.0723 166.31L41.6411 162.822ZM52.7047 162.912L56.1915 159.48L59.6227 162.968L56.1351 166.399L52.7047 162.912ZM37.1217 167.269L39.5523 164.877L42.9828 168.366L38.5404 172.737L37.1217 167.269ZM47.1276 168.398L50.6151 164.967L54.0463 168.455L50.5595 171.886L47.1276 168.398ZM58.1904 168.489L61.6779 165.057L64.0693 167.487L62.5636 172.932L58.1904 168.489ZM40.595 174.827L45.0381 170.454L48.4707 173.941L46.04 176.333L40.595 174.827ZM52.6147 173.975L56.1016 170.543L60.4733 174.987L55.0054 176.405L52.6147 173.975Z" fill="black"/>
<rect x="0.942427" y="225.789" width="100.01" height="100.01" rx="7.76101" fill="black"/>
<rect x="0.942427" y="225.789" width="100.01" height="100.01" rx="7.76101" stroke="white" stroke-width="0.621182"/>
<rect x="77.6582" y="232.934" width="14.9084" height="7.95117" rx="3.97558" fill="white"/>
<g filter="url(#filter2_d_9882_2872)">
<rect x="79.1494" y="234.424" width="4.96948" height="4.96948" rx="2.48474" fill="black"/>
</g>
<g clip-path="url(#clip0_9882_2872)">
<path d="M44.3818 268.935V273.263V258.863H67.4047V281.921H44.3818V273.263V281.921H58.7711V264.606H44.3818V268.935V273.263V258.863H67.4047V281.921H44.3818V273.263V281.921H58.7711V264.606H44.3818V268.935Z" fill="white"/>
<path d="M58.7465 276.144V267.486H44.3572V284.801H58.7465V276.144V290.544H35.7236V267.486H58.7465V276.144Z" fill="white"/>
</g>
<rect x="0.631836" y="338.217" width="100.631" height="100.631" rx="8.0716" fill="white"/>
<rect x="77.6582" y="345.672" width="14.9084" height="7.95117" rx="3.97558" fill="black"/>
<g filter="url(#filter3_d_9882_2872)">
<rect x="86.1064" y="347.162" width="4.96948" height="4.96948" rx="2.48474" fill="white"/>
</g>
<g clip-path="url(#clip1_9882_2872)">
<path d="M51.5097 371.621C45.9231 371.621 41.024 374.629 38.4456 379.185C37.5001 380.99 37.3282 382.537 38.1018 383.826C38.9612 385.373 40.9381 385.545 41.9694 385.545H43.8603L43.1727 387.694C42.743 388.983 42.9149 390.444 43.6025 391.389C44.2901 392.335 45.3215 392.85 46.6107 392.85C47.4702 392.85 48.4156 392.679 49.2751 392.335C49.0172 391.991 48.8453 391.647 48.6735 391.217C48.5875 390.874 48.4156 390.53 48.4156 390.1C47.8999 390.358 47.2983 390.444 46.6966 390.444C46.3528 390.444 45.8371 390.358 45.5793 389.928C45.3214 389.584 45.2355 389.069 45.4074 388.467L46.3528 385.545H49.361L50.1346 383.052H47.2123L48.5015 379.013H45.9231L44.6339 383.052H41.8835C41.024 383.052 40.5083 382.794 40.2505 382.365C39.9926 381.849 40.2505 380.818 40.9381 379.614V379.528C43.2587 376.176 47.0404 373.942 51.4238 373.942C58.3856 373.942 64.0583 379.614 64.0583 386.576C64.0583 393.538 58.3856 399.211 51.4238 399.211C45.2355 399.211 40.0786 394.741 38.9612 388.897L36.5547 389.412C37.9299 396.374 44.0322 401.703 51.4238 401.703C59.7608 401.703 66.5508 394.913 66.5508 386.576C66.6367 378.411 59.8468 371.621 51.5097 371.621Z" fill="black"/>
<path d="M61.1361 390.874C60.5345 390.874 59.7609 390.788 59.2452 390.444C59.0733 390.272 58.8155 390.101 58.7295 389.671C58.7295 389.499 58.7296 389.241 58.8155 388.983L60.7064 383.225H58.1279L56.4949 388.21C56.0652 389.499 54.69 390.53 53.4867 390.53C53.1429 390.53 52.7132 390.444 52.5413 390.101C52.3694 389.843 52.1975 389.499 52.4553 388.897L54.3462 383.139H51.7677L50.1347 388.124C49.7049 389.327 49.8768 390.616 50.5644 391.562C51.252 392.421 52.1975 392.937 53.4867 392.937C54.69 392.937 55.9792 392.421 57.0106 391.562C57.3544 392.077 57.7841 392.421 58.3858 392.679C59.2452 392.937 59.761 392.937 60.3626 392.937C60.6204 392.937 60.9642 392.851 61.0502 392.851C61.1361 392.765 61.1361 392.679 61.2221 392.593C61.308 392.421 61.394 392.249 61.4799 392.077C61.5659 391.905 61.6518 391.734 61.7378 391.562C61.8237 391.39 61.9097 391.218 61.9956 391.046C62.0816 390.96 62.0815 390.788 62.1675 390.702C61.9097 390.874 61.5659 390.874 61.1361 390.874Z" fill="black"/>
</g>
<defs>
<filter id="filter0_d_9882_2872" x="77.9071" y="8.94531" width="7.45445" height="7.45348" filterUnits="userSpaceOnUse" color-interpolation-filters="sRGB">
<feFlood flood-opacity="0" result="BackgroundImageFix"/>
<feColorMatrix in="SourceAlpha" type="matrix" values="0 0 0 0 0 0 0 0 0 0 0 0 0 0 0 0 0 0 127 0" result="hardAlpha"/>
<feOffset dy="1.24236"/>
<feGaussianBlur stdDeviation="0.621182"/>
<feComposite in2="hardAlpha" operator="out"/>
<feColorMatrix type="matrix" values="0 0 0 0 0 0 0 0 0 0 0 0 0 0 0 0 0 0 0.15 0"/>
<feBlend mode="normal" in2="BackgroundImageFix" result="effect1_dropShadow_9882_2872"/>
<feBlend mode="normal" in="SourceGraphic" in2="effect1_dropShadow_9882_2872" result="shape"/>
</filter>
<filter id="filter1_d_9882_2872" x="84.8641" y="121.684" width="7.45445" height="7.45348" filterUnits="userSpaceOnUse" color-interpolation-filters="sRGB">
<feFlood flood-opacity="0" result="BackgroundImageFix"/>
<feColorMatrix in="SourceAlpha" type="matrix" values="0 0 0 0 0 0 0 0 0 0 0 0 0 0 0 0 0 0 127 0" result="hardAlpha"/>
<feOffset dy="1.24236"/>
<feGaussianBlur stdDeviation="0.621182"/>
<feComposite in2="hardAlpha" operator="out"/>
<feColorMatrix type="matrix" values="0 0 0 0 0 0 0 0 0 0 0 0 0 0 0 0 0 0 0.15 0"/>
<feBlend mode="normal" in2="BackgroundImageFix" result="effect1_dropShadow_9882_2872"/>
<feBlend mode="normal" in="SourceGraphic" in2="effect1_dropShadow_9882_2872" result="shape"/>
</filter>
<filter id="filter2_d_9882_2872" x="77.9071" y="234.424" width="7.45445" height="7.45348" filterUnits="userSpaceOnUse" color-interpolation-filters="sRGB">
<feFlood flood-opacity="0" result="BackgroundImageFix"/>
<feColorMatrix in="SourceAlpha" type="matrix" values="0 0 0 0 0 0 0 0 0 0 0 0 0 0 0 0 0 0 127 0" result="hardAlpha"/>
<feOffset dy="1.24236"/>
<feGaussianBlur stdDeviation="0.621182"/>
<feComposite in2="hardAlpha" operator="out"/>
<feColorMatrix type="matrix" values="0 0 0 0 0 0 0 0 0 0 0 0 0 0 0 0 0 0 0.15 0"/>
<feBlend mode="normal" in2="BackgroundImageFix" result="effect1_dropShadow_9882_2872"/>
<feBlend mode="normal" in="SourceGraphic" in2="effect1_dropShadow_9882_2872" result="shape"/>
</filter>
<filter id="filter3_d_9882_2872" x="84.8641" y="347.162" width="7.45445" height="7.45348" filterUnits="userSpaceOnUse" color-interpolation-filters="sRGB">
<feFlood flood-opacity="0" result="BackgroundImageFix"/>
<feColorMatrix in="SourceAlpha" type="matrix" values="0 0 0 0 0 0 0 0 0 0 0 0 0 0 0 0 0 0 127 0" result="hardAlpha"/>
<feOffset dy="1.24236"/>
<feGaussianBlur stdDeviation="0.621182"/>
<feComposite in2="hardAlpha" operator="out"/>
<feColorMatrix type="matrix" values="0 0 0 0 0 0 0 0 0 0 0 0 0 0 0 0 0 0 0.15 0"/>
<feBlend mode="normal" in2="BackgroundImageFix" result="effect1_dropShadow_9882_2872"/>
<feBlend mode="normal" in="SourceGraphic" in2="effect1_dropShadow_9882_2872" result="shape"/>
</filter>
<clipPath id="clip0_9882_2872">
<rect width="31.6803" height="31.6803" fill="white" transform="translate(35.7236 258.863)"/>
</clipPath>
<clipPath id="clip1_9882_2872">
<rect width="31.6803" height="31.6803" fill="white" transform="translate(35.7236 371.602)"/>
</clipPath>
</defs>
</svg>
