<svg width="162" height="707" viewBox="0 0 162 707" fill="none" xmlns="http://www.w3.org/2000/svg">
<rect width="162" height="162" rx="12.9939" fill="#F9D2CB"/>
<rect x="124" y="12" width="24.0001" height="12.8001" rx="6.40003" fill="black"/>
<g filter="url(#filter0_d_9882_2621)">
<rect x="137.6" y="14.4004" width="8.00004" height="8.00004" rx="4.00002" fill="#F9D2CB"/>
</g>
<path d="M56.2294 100.926C53.2613 100.932 50.5193 99.341 49.0522 96.7609C47.6062 94.1966 47.6929 91.0438 49.2776 88.5628L64.0579 65.3529C65.598 62.8133 68.3853 61.2988 71.354 61.3885C74.3206 61.4596 77.0189 63.1229 78.4153 65.7412C79.7932 68.3465 79.6209 71.481 77.9707 73.9267L63.1999 97.1366C61.6775 99.5089 59.048 100.938 56.2294 100.926Z" fill="black"/>
<path d="M81.5806 100.925C78.5995 100.925 75.8564 99.3307 74.416 96.7692C72.9732 94.2119 73.06 91.0671 74.6414 88.5931L89.3935 65.4364C90.9113 62.8604 93.707 61.3104 96.6959 61.3875C99.7021 61.4533 102.426 63.1348 103.804 65.7652C105.173 68.3956 104.972 71.5489 103.272 73.9883L88.523 97.145C87.0054 99.507 84.3881 100.932 81.5806 100.925Z" fill="black"/>
<path d="M106.366 101.12C110.569 101.12 113.975 97.7846 113.975 93.6703C113.975 89.556 110.569 86.2207 106.366 86.2207C102.164 86.2207 98.7568 89.556 98.7568 93.6703C98.7568 97.7846 102.164 101.12 106.366 101.12Z" fill="black"/>
<rect y="181.49" width="162" height="162" rx="12.9939" fill="#F9D2CB"/>
<rect x="124" y="193.49" width="24.0001" height="12.8001" rx="6.40003" fill="black"/>
<g filter="url(#filter1_d_9882_2621)">
<rect x="137.6" y="195.891" width="8.00004" height="8.00004" rx="4.00002" fill="#F9D2CB"/>
</g>
<path fill-rule="evenodd" clip-rule="evenodd" d="M77.6881 291.998C80.7241 294.068 85.6921 295.31 90.522 295.31C99.492 295.31 106.254 291.446 106.254 282.752C106.254 275.3 102.114 271.712 92.592 269.642C87.7621 268.4 85.968 266.882 85.968 264.26C85.968 261.638 88.176 259.568 92.178 259.568C96.594 259.568 100.182 261.086 103.77 263.708V255.29C100.32 253.22 96.594 252.254 91.902 252.254C83.4841 252.254 76.9981 256.394 76.9981 264.812C76.9981 271.988 80.7241 275.438 89.28 277.37C94.662 278.75 97.146 279.992 97.146 283.304C97.146 286.616 94.386 287.996 90.246 287.996C85.9681 287.996 81.4141 286.202 77.5501 283.304L77.6881 291.998ZM75.7561 260.948H71.4781V294.482H62.2321V260.948H55.7461V253.22H62.2321V245.354C62.2321 235.142 67.8901 230.174 76.7221 230.174C80.0341 230.174 82.5181 230.864 84.8641 232.244V240.662C82.6561 239.144 80.5861 238.316 77.6881 238.316C73.6861 238.316 71.4781 240.248 71.4781 245.354V253.22H81.5521C78.5161 254.738 76.4461 257.498 75.7561 260.948Z" fill="black"/>
<rect x="0.5" y="363.482" width="161" height="161" rx="12.4939" fill="black"/>
<rect x="0.5" y="363.482" width="161" height="161" rx="12.4939" stroke="#F9D2CB"/>
<rect x="124" y="374.982" width="24.0001" height="12.8001" rx="6.40003" fill="#F9D2CB"/>
<g filter="url(#filter2_d_9882_2621)">
<rect x="126.4" y="377.383" width="8.00004" height="8.00004" rx="4.00002" fill="black"/>
</g>
<g clip-path="url(#clip0_9882_2621)">
<path fill-rule="evenodd" clip-rule="evenodd" d="M80.7164 430.146C81.2278 429.691 78.2729 429.066 76.0567 430.6C74.4087 431.737 74.3519 434.18 75.943 435.544C76.1135 435.658 76.2271 435.771 76.3408 435.885C76.7954 435.658 77.3637 435.43 77.9319 435.26C78.9548 434.919 79.8072 434.748 80.5459 434.635C80.8868 434.237 81.2846 433.612 81.171 432.419C81.0573 430.771 79.8072 431.055 80.7164 430.146ZM96.0025 439.01C95.7183 438.84 94.4682 438.897 93.5589 439.01C91.8542 439.238 89.9789 439.806 89.5812 440.147C88.8424 440.715 89.1834 441.738 89.7516 442.136C91.2859 443.272 92.6497 444.068 94.0704 443.841C94.9228 443.727 95.7183 442.363 96.2298 441.113C96.5139 440.261 96.5139 439.295 96.0025 439.01ZM90.0926 428.782C89.9789 429.009 89.8085 429.18 90.0926 429.918V429.975L90.1494 430.089L90.2631 430.316C90.6608 431.168 91.1723 431.964 91.911 432.419C92.1383 432.362 92.3088 432.362 92.5361 432.362C93.2748 432.305 93.7294 432.419 94.0136 432.589C94.0136 432.419 94.0704 432.248 94.0136 431.907C93.9567 430.828 94.2408 428.952 92.1383 427.986C91.3427 427.645 90.2062 427.759 89.8653 428.214C89.9221 428.214 89.9789 428.214 90.0358 428.27C90.604 428.384 90.2062 428.554 90.0926 428.782ZM111.743 443.784L109.925 444.125L106.458 408.211L47.2461 415.087L54.5198 474.299L61.4525 473.276C60.8842 472.481 60.0319 471.515 58.5544 470.321C56.5087 468.617 57.2474 465.718 58.4407 463.9C60.0319 460.831 68.2147 456.91 67.7601 452.023C67.5897 450.262 67.3055 447.932 65.6576 446.341C65.6008 447.023 65.7144 447.648 65.7144 447.648C65.7144 447.648 65.0325 446.796 64.6916 445.602C64.3506 445.148 64.0665 444.977 63.7255 444.409C63.4982 445.091 63.4982 445.943 63.4982 445.943C63.4982 445.943 62.93 444.636 62.8731 443.5C62.5322 444.011 62.4754 444.92 62.4754 444.92C62.4754 444.92 61.7366 442.875 61.9071 441.738C61.5661 440.772 60.6001 438.84 60.8842 434.464C62.7027 435.715 66.6804 435.43 68.2147 433.157C68.7262 432.419 69.0671 430.316 67.9306 426.281C67.1919 423.667 65.4303 419.803 64.7484 418.326L64.6916 418.383C65.0325 419.576 65.8281 422.076 66.1122 423.27C66.9646 426.907 67.2487 428.214 66.7941 429.918C66.4531 431.396 65.6008 432.362 63.4414 433.441C61.282 434.521 58.4976 431.907 58.2703 431.737C56.1677 430.089 54.5766 427.361 54.4061 426.054C54.2356 424.634 55.2585 423.781 55.7699 422.588C55.0312 422.815 54.2356 423.156 54.2356 423.156C54.2356 423.156 55.2017 422.133 56.395 421.281C56.9064 420.94 57.1906 420.769 57.702 420.315C56.9633 420.315 56.3382 420.315 56.3382 420.315C56.3382 420.315 57.5883 419.633 58.8953 419.121C57.9293 419.065 57.0201 419.121 57.0201 419.121C57.0201 419.121 59.8614 417.871 62.0776 416.962C63.6119 416.337 65.0893 416.507 65.9417 417.758C67.0214 419.349 68.2147 420.201 70.6582 420.769C72.1925 420.087 72.6471 419.747 74.5224 419.235C76.1703 417.417 77.4773 417.189 77.4773 417.189C77.4773 417.189 76.8522 417.758 76.6817 418.724C77.6478 417.985 78.6706 417.36 78.6706 417.36C78.6706 417.36 78.2729 417.871 77.8751 418.667L77.9887 418.78C79.0684 418.099 80.3754 417.587 80.3754 417.587C80.3754 417.587 79.9776 418.042 79.5799 418.667C80.4322 418.667 82.0802 418.724 82.7621 418.78C86.6262 418.837 87.4218 414.632 88.8993 414.121C90.7745 413.439 91.5701 413.041 94.7523 416.167C97.4799 418.837 99.5825 423.611 98.5596 424.69C97.6504 425.6 95.9456 424.349 94.0136 421.963C92.9907 420.713 92.1951 419.178 91.8542 417.246C91.57 415.655 90.3767 414.689 90.3767 414.689C90.3767 414.689 91.0586 416.223 91.0586 417.587C91.0586 418.326 91.1723 421.11 92.3088 422.645C92.1951 422.872 92.1383 423.781 92.0247 423.952C90.6608 422.304 87.7059 421.11 87.1945 420.769C88.8424 422.133 92.5929 425.202 94.0136 428.157C95.3774 430.941 94.5818 433.498 95.2637 434.18C95.4342 434.067 98.1618 437.476 98.7301 439.181C99.6393 442.193 98.7869 445.318 97.5936 447.25L94.2409 447.762C93.7294 447.648 93.4453 447.534 92.9907 447.307C93.218 446.852 93.7294 445.829 93.7294 445.602L93.5589 445.261C92.5361 446.739 90.7745 448.159 89.297 449.012C87.4218 450.091 85.2056 449.921 83.7849 449.466C79.7503 448.216 75.8862 445.489 74.977 444.75C74.977 444.75 74.977 445.318 75.1475 445.432C76.1703 446.568 78.5002 448.671 80.7732 450.148L75.943 450.66L78.216 468.389C77.1932 468.56 77.0227 468.617 75.943 468.787C74.977 465.321 73.1017 463.104 71.056 461.797C69.2376 460.661 66.7941 460.377 64.4074 460.831L64.2369 461.002C65.8849 460.831 67.817 461.059 69.8627 462.309C71.8516 463.559 73.3859 466.741 74.0109 468.673C74.7497 471.117 75.2611 473.788 73.2722 476.572C71.8516 478.561 67.6465 479.641 64.2938 477.311C65.203 478.731 66.3963 479.925 68.0443 480.152C70.4878 480.493 72.7608 480.038 74.3519 478.447C75.7157 477.027 76.4544 474.129 76.2271 471.06L78.3865 470.776L79.1821 476.288L114.755 472.026L111.743 443.784ZM77.7046 451.91L82.1938 451.285C82.9326 451.626 83.444 451.739 84.2964 451.967C85.6602 452.308 87.1945 452.649 89.5243 451.512C90.0358 451.228 91.1723 450.205 91.6269 449.637L109.925 446.341L111.8 468.957L80.4322 474.64L77.7046 451.91ZM103.674 459.468L97.6504 455.49L92.6497 463.843L86.8535 462.138L81.7392 469.98L82.0234 472.424L109.925 467.31L108.334 449.921L103.674 459.468Z" fill="#F9D2CB"/>
</g>
<rect y="544.473" width="162" height="162" rx="12.9939" fill="#F9D2CB"/>
<rect x="124" y="556.473" width="24.0001" height="12.8001" rx="6.40003" fill="black"/>
<g filter="url(#filter3_d_9882_2621)">
<rect x="137.6" y="558.873" width="8.00004" height="8.00004" rx="4.00002" fill="#F9D2CB"/>
</g>
<g clip-path="url(#clip1_9882_2621)">
<path d="M82.414 598.758C73.4204 598.758 65.5338 603.601 61.3829 610.934C59.8609 613.839 59.5841 616.33 60.8294 618.405C62.213 620.896 65.3954 621.173 67.0557 621.173H70.0997L68.9928 624.632C68.301 626.707 68.5778 629.059 69.6847 630.581C70.7916 632.103 72.4519 632.934 74.5274 632.934C75.911 632.934 77.433 632.657 78.8166 632.103C78.4015 631.55 78.1248 630.996 77.8481 630.305C77.7097 629.751 77.433 629.198 77.433 628.506C76.6028 628.921 75.6342 629.059 74.6657 629.059C74.1122 629.059 73.2821 628.921 72.867 628.229C72.4519 627.676 72.3135 626.846 72.5902 625.877L74.1123 621.173H78.955L80.2002 617.16H75.4959L77.5713 610.657H73.4204L71.345 617.16H66.9174C65.5338 617.16 64.7036 616.745 64.2885 616.053C63.8734 615.223 64.2885 613.563 65.3954 611.626V611.487C69.1312 606.091 75.2191 602.494 82.2757 602.494C93.4831 602.494 102.615 611.626 102.615 622.833C102.615 634.04 93.4831 643.172 82.2757 643.172C72.3135 643.172 64.0117 635.977 62.213 626.569L58.3389 627.399C60.5527 638.606 70.3764 647.185 82.2757 647.185C95.6969 647.185 106.628 636.254 106.628 622.833C106.766 609.688 95.8353 598.758 82.414 598.758Z" fill="black"/>
<path d="M97.9109 629.752C96.9424 629.752 95.6971 629.613 94.8669 629.06C94.5902 628.783 94.1751 628.506 94.0367 627.814C94.0367 627.538 94.0367 627.123 94.1751 626.708L97.2191 617.437H93.0682L90.4393 625.462C89.7475 627.538 87.5337 629.198 85.5966 629.198C85.0432 629.198 84.3513 629.06 84.0746 628.506C83.7979 628.091 83.5211 627.538 83.9362 626.569L86.9802 617.299H82.8293L80.2004 625.324C79.5086 627.261 79.7853 629.336 80.8922 630.858C81.9991 632.242 83.5212 633.072 85.5966 633.072C87.5337 633.072 89.6091 632.242 91.2695 630.858C91.8229 631.689 92.5147 632.242 93.4833 632.657C94.8669 633.072 95.6971 633.072 96.6657 633.072C97.0807 633.072 97.6342 632.934 97.7725 632.934C97.9109 632.796 97.9109 632.657 98.0493 632.519C98.1877 632.242 98.326 631.965 98.4644 631.689C98.6027 631.412 98.7411 631.135 98.8794 630.858C99.0178 630.582 99.1562 630.305 99.2945 630.028C99.4329 629.89 99.4329 629.613 99.5713 629.475C99.1562 629.752 98.6027 629.752 97.9109 629.752Z" fill="black"/>
</g>
<defs>
<filter id="filter0_d_9882_2621" x="135.6" y="14.4004" width="12" height="12" filterUnits="userSpaceOnUse" color-interpolation-filters="sRGB">
<feFlood flood-opacity="0" result="BackgroundImageFix"/>
<feColorMatrix in="SourceAlpha" type="matrix" values="0 0 0 0 0 0 0 0 0 0 0 0 0 0 0 0 0 0 127 0" result="hardAlpha"/>
<feOffset dy="2"/>
<feGaussianBlur stdDeviation="1"/>
<feComposite in2="hardAlpha" operator="out"/>
<feColorMatrix type="matrix" values="0 0 0 0 0 0 0 0 0 0 0 0 0 0 0 0 0 0 0.15 0"/>
<feBlend mode="normal" in2="BackgroundImageFix" result="effect1_dropShadow_9882_2621"/>
<feBlend mode="normal" in="SourceGraphic" in2="effect1_dropShadow_9882_2621" result="shape"/>
</filter>
<filter id="filter1_d_9882_2621" x="135.6" y="195.891" width="12" height="12" filterUnits="userSpaceOnUse" color-interpolation-filters="sRGB">
<feFlood flood-opacity="0" result="BackgroundImageFix"/>
<feColorMatrix in="SourceAlpha" type="matrix" values="0 0 0 0 0 0 0 0 0 0 0 0 0 0 0 0 0 0 127 0" result="hardAlpha"/>
<feOffset dy="2"/>
<feGaussianBlur stdDeviation="1"/>
<feComposite in2="hardAlpha" operator="out"/>
<feColorMatrix type="matrix" values="0 0 0 0 0 0 0 0 0 0 0 0 0 0 0 0 0 0 0.15 0"/>
<feBlend mode="normal" in2="BackgroundImageFix" result="effect1_dropShadow_9882_2621"/>
<feBlend mode="normal" in="SourceGraphic" in2="effect1_dropShadow_9882_2621" result="shape"/>
</filter>
<filter id="filter2_d_9882_2621" x="124.4" y="377.383" width="12" height="12" filterUnits="userSpaceOnUse" color-interpolation-filters="sRGB">
<feFlood flood-opacity="0" result="BackgroundImageFix"/>
<feColorMatrix in="SourceAlpha" type="matrix" values="0 0 0 0 0 0 0 0 0 0 0 0 0 0 0 0 0 0 127 0" result="hardAlpha"/>
<feOffset dy="2"/>
<feGaussianBlur stdDeviation="1"/>
<feComposite in2="hardAlpha" operator="out"/>
<feColorMatrix type="matrix" values="0 0 0 0 0 0 0 0 0 0 0 0 0 0 0 0 0 0 0.15 0"/>
<feBlend mode="normal" in2="BackgroundImageFix" result="effect1_dropShadow_9882_2621"/>
<feBlend mode="normal" in="SourceGraphic" in2="effect1_dropShadow_9882_2621" result="shape"/>
</filter>
<filter id="filter3_d_9882_2621" x="135.6" y="558.873" width="12" height="12" filterUnits="userSpaceOnUse" color-interpolation-filters="sRGB">
<feFlood flood-opacity="0" result="BackgroundImageFix"/>
<feColorMatrix in="SourceAlpha" type="matrix" values="0 0 0 0 0 0 0 0 0 0 0 0 0 0 0 0 0 0 127 0" result="hardAlpha"/>
<feOffset dy="2"/>
<feGaussianBlur stdDeviation="1"/>
<feComposite in2="hardAlpha" operator="out"/>
<feColorMatrix type="matrix" values="0 0 0 0 0 0 0 0 0 0 0 0 0 0 0 0 0 0 0.15 0"/>
<feBlend mode="normal" in2="BackgroundImageFix" result="effect1_dropShadow_9882_2621"/>
<feBlend mode="normal" in="SourceGraphic" in2="effect1_dropShadow_9882_2621" result="shape"/>
</filter>
<clipPath id="clip0_9882_2621">
<rect width="72" height="72" fill="white" transform="translate(45 408.234)"/>
</clipPath>
<clipPath id="clip1_9882_2621">
<rect width="51" height="51" fill="white" transform="translate(57 598.725)"/>
</clipPath>
</defs>
</svg>
